<?xml version="1.0" ?>
<svg xmlns="http://www.w3.org/2000/svg" version="1.1" width="3100" height="2110">
  <defs/>
  <g>
    <path d="M 165.30999755859375 14.797160148620605 C 642.2429809570312 88.34490203857422 567.91748046875 229.19564819335938 206.2115478515625 66.02684020996094 C 218.390869140625 455.6071472167969 87.92459106445312 477.04571533203125 91.739990234375 86.51759338378906" stroke-width="56.593544006347656" fill="none" stroke="rgb(223, 178, 97)" stroke-opacity="0.6082598" stroke-linecap="round" stroke-linejoin="round"/>
    <path d="M 343.3430480957031 1161.91015625 C 266.4410095214844 1122.0185546875 151.42941284179688 1175.690673828125 38.87141036987305 1159.180908203125" stroke-width="39.58606719970703" fill="none" stroke="rgb(46, 54, 62)" stroke-opacity="0.7245122" stroke-linecap="round" stroke-linejoin="round"/>
    <path d="M 1559.2703857421875 1188.142822265625 C 1127.37548828125 1172.309814453125 1153.09912109375 1205.912353515625 1221.6153564453125 821.0452270507812" stroke-width="52.39533615112305" fill="none" stroke="rgb(74, 98, 120)" stroke-opacity="1.0" stroke-linecap="round" stroke-linejoin="round"/>
    <path d="M 324.92913818359375 648.0317993164062 C 140.22830200195312 740.7171630859375 116.71321868896484 687.5831298828125 -12.452774047851562 748.2877807617188" stroke-width="50.24733352661133" fill="none" stroke="rgb(164, 148, 113)" stroke-opacity="0.9090649" stroke-linecap="round" stroke-linejoin="round"/>
    <path d="M 212.11134338378906 753.177490234375 C 81.65557098388672 853.5037231445312 128.57225036621094 788.6110229492188 259.3051452636719 712.2933349609375 C 157.52139282226562 788.9207153320312 216.7236785888672 829.5591430664062 212.90525817871094 825.681396484375" stroke-width="21.60636329650879" fill="none" stroke="rgb(34, 46, 31)" stroke-opacity="0.46625122" stroke-linecap="round" stroke-linejoin="round"/>
    <path d="M 516.4247436523438 1774.1072998046875 C 310.90374755859375 1864.20361328125 318.2207946777344 1790.193359375 266.24615478515625 1813.487060546875 C 261.7632141113281 1837.0120849609375 322.30511474609375 1876.919677734375 466.23382568359375 1841.59912109375 C 325.3514404296875 1925.942626953125 532.922119140625 2004.93017578125 138.00595092773438 2041.8291015625" stroke-width="43.3585090637207" fill="none" stroke="rgb(53, 82, 117)" stroke-opacity="1.0" stroke-linecap="round" stroke-linejoin="round"/>
    <path d="M 3068.43115234375 414.5534362792969 C 3044.7236328125 727.4104614257812 3087.124267578125 746.886474609375 3182.602294921875 678.289306640625 C 3166.57861328125 672.4615478515625 3160.312255859375 644.6441040039062 3212.927490234375 679.5576782226562 C 3158.74560546875 717.9691772460938 3087.798095703125 819.9979858398438 2905.368896484375 549.8359985351562" stroke-width="58.785762786865234" fill="none" stroke="rgb(206, 174, 119)" stroke-opacity="0.8006625" stroke-linecap="round" stroke-linejoin="round"/>
    <path d="M 1051.2059326171875 285.6641540527344 C 1045.572998046875 290.656005859375 1104.085205078125 232.5509796142578 1008.589599609375 183.30435180664062 C 1190.1871337890625 171.27627563476562 1243.6922607421875 142.4640350341797 853.209228515625 172.7239532470703" stroke-width="46.579254150390625" fill="none" stroke="rgb(201, 142, 32)" stroke-opacity="0.39044434" stroke-linecap="round" stroke-linejoin="round"/>
    <path d="M 1639.390625 1672.1763916015625 C 1815.7862548828125 1868.1376953125 1928.9166259765625 2037.2877197265625 1730.872314453125 2006.9588623046875 C 1697.73291015625 1998.3990478515625 1586.57763671875 1977.5596923828125 1433.779296875 1716.6961669921875" stroke-width="61.28354263305664" fill="none" stroke="rgb(119, 134, 132)" stroke-opacity="1.0" stroke-linecap="round" stroke-linejoin="round"/>
    <path d="M 802.1189575195312 1031.05419921875 C 666.2240600585938 1044.83447265625 660.70068359375 883.5234985351562 921.156982421875 964.6412963867188 C 690.2102661132812 977.018310546875 638.6651000976562 995.9110107421875 666.4713745117188 980.6755981445312" stroke-width="29.062843322753906" fill="none" stroke="rgb(82, 90, 111)" stroke-opacity="0.8620459" stroke-linecap="round" stroke-linejoin="round"/>
    <path d="M 2002.638916015625 1656.59521484375 C 2141.903076171875 1673.4263916015625 2077.71142578125 1631.6646728515625 1951.0595703125 1608.24462890625 C 1833.3099365234375 1615.9937744140625 1863.697021484375 1778.341552734375 2255.31396484375 1914.4215087890625" stroke-width="53.618892669677734" fill="none" stroke="rgb(94, 116, 133)" stroke-opacity="1.0" stroke-linecap="round" stroke-linejoin="round"/>
    <path d="M 1657.4903564453125 1302.93408203125 C 1873.224609375 1036.64404296875 1667.8687744140625 1002.8515014648438 1810.749267578125 1292.2137451171875 C 1836.8167724609375 1032.4007568359375 1744.71484375 937.168701171875 1578.0311279296875 982.6333618164062" stroke-width="50.005828857421875" fill="none" stroke="rgb(154, 155, 135)" stroke-opacity="1.0" stroke-linecap="round" stroke-linejoin="round"/>
    <path d="M 2903.09326171875 1405.812744140625 C 3172.68896484375 1240.7083740234375 3280.07470703125 1346.1826171875 2806.643798828125 1515.2213134765625" stroke-width="45.162940979003906" fill="none" stroke="rgb(30, 59, 99)" stroke-opacity="0.8981513" stroke-linecap="round" stroke-linejoin="round"/>
    <path d="M 382.4758605957031 1889.59912109375 C 18.752756118774414 2017.6851806640625 5.642809867858887 1869.4716796875 335.0819091796875 1876.183349609375 C 386.3985595703125 1924.1563720703125 417.0260009765625 1982.412109375 27.915607452392578 2001.048095703125 C 153.53289794921875 2158.200439453125 278.535888671875 2076.460693359375 546.36083984375 1941.65625" stroke-width="50.786415100097656" fill="none" stroke="rgb(34, 61, 100)" stroke-opacity="0.9670492" stroke-linecap="round" stroke-linejoin="round"/>
    <path d="M 1888.9173583984375 866.7135009765625 C 1843.0025634765625 973.5911865234375 1841.786376953125 1144.09130859375 1963.2161865234375 1223.1065673828125 C 1861.32958984375 906.7714233398438 1844.495361328125 969.8163452148438 2093.098876953125 963.1648559570312 C 2056.948974609375 1042.4722900390625 1862.53173828125 1032.96728515625 1663.6865234375 900.7061157226562" stroke-width="45.388397216796875" fill="none" stroke="rgb(168, 168, 146)" stroke-opacity="1.0" stroke-linecap="round" stroke-linejoin="round"/>
    <path d="M 2928.197021484375 123.11785125732422 C 3241.22265625 149.39901733398438 3234.3203125 -19.73985481262207 2787.300048828125 30.081069946289062 C 2962.102294921875 109.00074005126953 3067.927001953125 47.96931838989258 3148.05615234375 95.18258666992188 C 3094.266357421875 74.013916015625 3162.23095703125 84.55078887939453 3140.771240234375 108.7131118774414" stroke-width="48.82085037231445" fill="none" stroke="rgb(240, 185, 85)" stroke-opacity="0.59214705" stroke-linecap="round" stroke-linejoin="round"/>
    <path d="M 1754.4715576171875 550.9139404296875 C 1780.845703125 571.7301635742188 1765.17138671875 512.0150756835938 1772.43798828125 611.8763427734375 C 1688.28515625 522.6128540039062 1730.4508056640625 504.6479797363281 1625.0386962890625 619.2904052734375" stroke-width="39.74966812133789" fill="none" stroke="rgb(87, 114, 104)" stroke-opacity="0.6523052" stroke-linecap="round" stroke-linejoin="round"/>
    <path d="M 736.4832763671875 571.5288696289062 C 737.4812622070312 582.31494140625 654.2444458007812 627.9847412109375 1029.519287109375 547.5859375" stroke-width="57.977779388427734" fill="none" stroke="rgb(42, 52, 89)" stroke-opacity="1.0" stroke-linecap="round" stroke-linejoin="round"/>
    <path d="M 2008.32080078125 1585.64111328125 C 2346.590576171875 1648.296875 2175.99365234375 1519.562744140625 2462.308837890625 1464.673583984375 C 2533.18212890625 1360.615234375 2364.039794921875 1435.1502685546875 2152.5595703125 1570.6470947265625 C 2149.830078125 1581.126953125 2055.4609375 1484.6392822265625 1888.1512451171875 1577.3924560546875" stroke-width="52.00672149658203" fill="none" stroke="rgb(110, 113, 94)" stroke-opacity="0.8890632" stroke-linecap="round" stroke-linejoin="round"/>
    <path d="M 2698.69677734375 304.6598205566406 C 2919.033935546875 284.3251037597656 2792.475830078125 120.95024871826172 3127.023193359375 196.7294158935547 C 2787.689208984375 315.6919250488281 2658.169677734375 311.9620666503906 2907.64892578125 99.83377075195312" stroke-width="54.9920539855957" fill="none" stroke="rgb(246, 210, 146)" stroke-opacity="0.93464136" stroke-linecap="round" stroke-linejoin="round"/>
    <path d="M 2779.594482421875 1994.244873046875 C 3210.201171875 1915.6871337890625 3177.669189453125 1978.1676025390625 2874.26611328125 2108.85498046875 C 2981.608154296875 2108.15966796875 3033.395263671875 2059.368408203125 3083.6748046875 2070.251953125" stroke-width="54.93131637573242" fill="none" stroke="rgb(111, 142, 161)" stroke-opacity="1.0" stroke-linecap="round" stroke-linejoin="round"/>
    <path d="M 2551.957275390625 1172.0406494140625 C 2910.130615234375 1002.2869873046875 2879.56982421875 1141.257568359375 2657.129638671875 1185.995361328125 C 2456.690673828125 1226.186279296875 2467.39990234375 1142.766845703125 2415.78515625 914.9166870117188 C 2588.9345703125 1063.1766357421875 2546.77880859375 1117.6937255859375 2332.140869140625 1130.1290283203125" stroke-width="50.18668746948242" fill="none" stroke="rgb(166, 165, 141)" stroke-opacity="0.97180206" stroke-linecap="round" stroke-linejoin="round"/>
    <path d="M 1061.10205078125 1769.0377197265625 C 1295.9473876953125 1959.22607421875 1061.702880859375 1867.23681640625 982.436279296875 2110.89599609375 C 1235.500732421875 1932.4888916015625 1135.7403564453125 1870.9217529296875 1166.2266845703125 1834.0625 C 1169.2327880859375 1840.3673095703125 1185.5718994140625 1797.0472412109375 1173.8309326171875 1826.7869873046875" stroke-width="44.89255142211914" fill="none" stroke="rgb(43, 87, 104)" stroke-opacity="0.66578597" stroke-linecap="round" stroke-linejoin="round"/>
    <path d="M 2516.264404296875 1133.2376708984375 C 2731.650146484375 1013.9036254882812 2620.38427734375 1151.12548828125 2503.554931640625 949.1237182617188 C 3025.072265625 958.7575073242188 3089.30810546875 1114.2220458984375 2583.55712890625 1004.1106567382812" stroke-width="56.42366027832031" fill="none" stroke="rgb(179, 176, 149)" stroke-opacity="0.9381705" stroke-linecap="round" stroke-linejoin="round"/>
    <path d="M 2257.712158203125 815.7415161132812 C 1885.93359375 906.3333740234375 1958.7626953125 971.1481323242188 2335.73486328125 841.518310546875 C 2346.4384765625 955.5144653320312 2175.978515625 899.873291015625 2080.19140625 956.9739990234375 C 2071.60693359375 1074.45556640625 2095.856689453125 906.6326293945312 2399.640625 971.9149169921875" stroke-width="48.6390495300293" fill="none" stroke="rgb(197, 190, 151)" stroke-opacity="0.6933554" stroke-linecap="round" stroke-linejoin="round"/>
    <path d="M 2006.1055908203125 137.73362731933594 C 2312.652099609375 302.8252868652344 2430.729248046875 316.75225830078125 2414.04345703125 46.32769775390625 C 2008.45849609375 104.0112533569336 2200.994873046875 121.96559143066406 2551.70654296875 245.29644775390625" stroke-width="66.4582290649414" fill="none" stroke="rgb(238, 189, 87)" stroke-opacity="0.53674495" stroke-linecap="round" stroke-linejoin="round"/>
    <path d="M 46.7681770324707 700.9015502929688 C 211.07142639160156 451.95306396484375 158.68959045410156 418.9353332519531 84.83048248291016 521.9688110351562 C 114.1094970703125 340.6746520996094 17.586963653564453 320.6004943847656 27.275901794433594 705.4200439453125" stroke-width="53.01395797729492" fill="none" stroke="rgb(201, 172, 125)" stroke-opacity="0.8625393" stroke-linecap="round" stroke-linejoin="round"/>
    <path d="M 814.28076171875 876.8367309570312 C 833.7474365234375 790.0614013671875 707.7486572265625 825.3773193359375 823.9253540039062 972.3479614257812" stroke-width="39.47322082519531" fill="none" stroke="rgb(98, 138, 134)" stroke-opacity="0.6601738" stroke-linecap="round" stroke-linejoin="round"/>
    <path d="M 2495.564453125 1042.7802734375 C 2108.996337890625 945.4373779296875 2100.828857421875 1056.76513671875 2431.970458984375 1065.388916015625 C 2134.00830078125 1171.2021484375 2148.97412109375 1146.820556640625 2497.9404296875 1175.6182861328125 C 2216.85302734375 1230.8052978515625 2262.63134765625 1129.751953125 2049.7578125 1426.3031005859375" stroke-width="47.88809585571289" fill="none" stroke="rgb(164, 164, 141)" stroke-opacity="1.0" stroke-linecap="round" stroke-linejoin="round"/>
    <path d="M 1675.345947265625 838.66796875 C 1424.45947265625 757.2886962890625 1454.3543701171875 885.9154052734375 1682.7728271484375 887.1487426757812 C 1711.9034423828125 909.072265625 1604.5 885.6318969726562 1668.016845703125 1098.276611328125 C 1534.8095703125 991.6875610351562 1433.2601318359375 943.847900390625 1457.0174560546875 641.21044921875" stroke-width="52.32729721069336" fill="none" stroke="rgb(160, 163, 139)" stroke-opacity="0.78704125" stroke-linecap="round" stroke-linejoin="round"/>
    <path d="M 1299.291015625 1356.8251953125 C 1595.7388916015625 1474.508056640625 1506.85888671875 1456.0291748046875 1719.84326171875 1588.69873046875 C 1826.9945068359375 1543.9522705078125 1682.2611083984375 1446.245361328125 1311.291748046875 1301.21337890625" stroke-width="57.80685043334961" fill="none" stroke="rgb(105, 114, 115)" stroke-opacity="1.0" stroke-linecap="round" stroke-linejoin="round"/>
    <path d="M 1064.658447265625 1438.1627197265625 C 1132.404052734375 1432.6707763671875 1056.641845703125 1486.627197265625 1070.4771728515625 1455.196533203125 C 985.7940673828125 1376.2415771484375 1059.4788818359375 1243.9627685546875 920.3950805664062 1280.7757568359375 C 868.2959594726562 1404.778076171875 900.9153442382812 1322.8458251953125 1083.0556640625 1154.8658447265625" stroke-width="25.056516647338867" fill="none" stroke="rgb(66, 89, 94)" stroke-opacity="0.5968119" stroke-linecap="round" stroke-linejoin="round"/>
    <path d="M 850.6630249023438 26.036834716796875 C 1344.7691650390625 6.623308181762695 1291.7896728515625 60.1722526550293 837.90869140625 78.8589859008789 C 914.7252807617188 222.2255401611328 1317.891845703125 -36.820411682128906 1376.592041015625 147.703369140625 C 1002.8497314453125 89.944580078125 964.322509765625 127.81029510498047 1363.798828125 201.11163330078125" stroke-width="50.788795471191406" fill="none" stroke="rgb(240, 194, 125)" stroke-opacity="0.7998546" stroke-linecap="round" stroke-linejoin="round"/>
    <path d="M 444.1513977050781 1206.7103271484375 C 813.0297241210938 1519.753662109375 786.4930419921875 1325.4912109375 449.40472412109375 1154.0023193359375" stroke-width="55.48255920410156" fill="none" stroke="rgb(29, 63, 106)" stroke-opacity="0.9500689" stroke-linecap="round" stroke-linejoin="round"/>
    <path d="M 902.8792114257812 1059.822998046875 C 918.4778442382812 960.2596435546875 1017.864501953125 1060.881103515625 1006.9470825195312 1054.326171875 C 1078.7906494140625 1202.0587158203125 1001.5479125976562 1235.4847412109375 963.198974609375 1034.5550537109375 C 1057.8902587890625 1022.6038208007812 1095.5196533203125 1184.1483154296875 1175.040771484375 889.92822265625" stroke-width="43.494171142578125" fill="none" stroke="rgb(41, 58, 92)" stroke-opacity="0.996782" stroke-linecap="round" stroke-linejoin="round"/>
    <path d="M 2014.8612060546875 579.55517578125 C 2166.6962890625 557.9823608398438 2177.45703125 523.7612915039062 2215.18701171875 630.3312377929688 C 2081.30712890625 585.3399047851562 2074.807861328125 624.0936279296875 2281.264404296875 713.7737426757812" stroke-width="34.0416259765625" fill="none" stroke="rgb(206, 205, 40)" stroke-opacity="0.19848125" stroke-linecap="round" stroke-linejoin="round"/>
    <path d="M 2589.872314453125 382.4524230957031 C 2838.546875 643.5906982421875 2993.172119140625 622.3258666992188 2777.94287109375 461.3655090332031 C 3095.4384765625 478.61883544921875 3104.592529296875 342.8126220703125 2851.34326171875 205.47145080566406 C 2949.10595703125 402.99835205078125 3133.77001953125 392.60089111328125 2696.603271484375 416.4832763671875" stroke-width="52.98550796508789" fill="none" stroke="rgb(243, 209, 150)" stroke-opacity="0.96812904" stroke-linecap="round" stroke-linejoin="round"/>
    <path d="M 321.2402648925781 2087.118408203125 C 843.758544921875 2115.678955078125 813.822021484375 2053.35791015625 372.37799072265625 2044.447265625" stroke-width="45.61514663696289" fill="none" stroke="rgb(25, 47, 92)" stroke-opacity="0.9781591" stroke-linecap="round" stroke-linejoin="round"/>
    <path d="M 2527.96044921875 330.4069519042969 C 2514.4345703125 266.5223388671875 2434.6435546875 313.6341247558594 2429.3505859375 324.4595031738281" stroke-width="6.319026470184326" fill="none" stroke="rgb(227, 210, 110)" stroke-opacity="0.46732882" stroke-linecap="round" stroke-linejoin="round"/>
    <path d="M 926.4610595703125 502.77093505859375 C 1228.7603759765625 589.1564331054688 1319.0908203125 526.9454956054688 911.4085693359375 458.2890625" stroke-width="46.42401885986328" fill="none" stroke="rgb(43, 60, 94)" stroke-opacity="0.9560602" stroke-linecap="round" stroke-linejoin="round"/>
    <path d="M 1161.744384765625 1409.7762451171875 C 1153.665283203125 1409.529541015625 1227.697509765625 1405.718505859375 1163.4072265625 1409.5155029296875 C 1073.8050537109375 1414.0216064453125 1116.427734375 1406.2042236328125 1114.2210693359375 1408.360595703125 C 1086.885986328125 1437.621826171875 1140.99560546875 1493.8009033203125 1039.2611083984375 1615.365966796875" stroke-width="42.79769515991211" fill="none" stroke="rgb(0, 76, 41)" stroke-opacity="0.2915057" stroke-linecap="round" stroke-linejoin="round"/>
    <path d="M 1450.3363037109375 18.532859802246094 C 1209.184814453125 37.962158203125 1280.304931640625 31.49273109436035 1171.8216552734375 -10.210673332214355" stroke-width="46.6533317565918" fill="none" stroke="rgb(246, 209, 149)" stroke-opacity="0.96285987" stroke-linecap="round" stroke-linejoin="round"/>
    <path d="M 1941.989990234375 25.635549545288086 C 2269.253662109375 23.07931900024414 2260.98486328125 -11.09736156463623 2083.025390625 180.6574249267578" stroke-width="56.79832077026367" fill="none" stroke="rgb(245, 209, 145)" stroke-opacity="0.9254805" stroke-linecap="round" stroke-linejoin="round"/>
    <path d="M 350.91595458984375 1481.558349609375 C 170.55203247070312 1520.530517578125 69.83528900146484 1488.2967529296875 120.3681411743164 1413.40625 C 195.2704620361328 1498.8076171875 361.7745056152344 1352.7618408203125 432.9229431152344 1517.7010498046875 C 111.96524047851562 1612.7674560546875 56.0516242980957 1508.6343994140625 66.99414825439453 1410.1171875" stroke-width="56.525211334228516" fill="none" stroke="rgb(47, 64, 87)" stroke-opacity="0.8883649" stroke-linecap="round" stroke-linejoin="round"/>
    <path d="M 1298.6002197265625 371.8141784667969 C 1094.4088134765625 395.7124328613281 1225.81005859375 500.8538818359375 1117.99658203125 350.9513854980469 C 1024.3128662109375 373.1934509277344 1011.6751098632812 367.53424072265625 1005.3785400390625 329.5240783691406 C 993.6981811523438 264.8873291015625 946.262451171875 270.500732421875 958.5272827148438 270.7247619628906" stroke-width="42.54157638549805" fill="none" stroke="rgb(138, 159, 144)" stroke-opacity="0.6930215" stroke-linecap="round" stroke-linejoin="round"/>
    <path d="M 2024.1456298828125 1539.59765625 C 2508.6259765625 1377.496826171875 2392.173828125 1291.9129638671875 1987.332275390625 1510.960205078125" stroke-width="54.936119079589844" fill="none" stroke="rgb(34, 48, 50)" stroke-opacity="0.5643187" stroke-linecap="round" stroke-linejoin="round"/>
    <path d="M 2473.06201171875 1422.13134765625 C 2780.03369140625 1329.8065185546875 2606.45556640625 1407.376708984375 2652.80419921875 1365.0364990234375 C 2816.84130859375 1211.5325927734375 2860.612060546875 1171.7642822265625 2541.360595703125 1367.989990234375" stroke-width="50.724586486816406" fill="none" stroke="rgb(102, 131, 134)" stroke-opacity="1.0" stroke-linecap="round" stroke-linejoin="round"/>
    <path d="M 1843.5556640625 1337.54541015625 C 1486.4697265625 1379.9876708984375 1515.40771484375 1275.6064453125 1741.140625 1002.7302856445312 C 1644.206298828125 1357.38623046875 1606.3175048828125 1248.9163818359375 1272.5665283203125 1218.811767578125" stroke-width="54.92498779296875" fill="none" stroke="rgb(147, 150, 133)" stroke-opacity="1.0" stroke-linecap="round" stroke-linejoin="round"/>
    <path d="M 2197.0498046875 430.8732604980469 C 2221.39453125 474.8117980957031 2259.312744140625 574.1871337890625 2555.051513671875 671.1932983398438 C 2358.177001953125 423.0391845703125 2212.4365234375 529.6770629882812 2280.119140625 399.1866455078125" stroke-width="61.56555938720703" fill="none" stroke="rgb(199, 171, 102)" stroke-opacity="0.58651334" stroke-linecap="round" stroke-linejoin="round"/>
    <path d="M 2288.4765625 1775.0140380859375 C 2292.668212890625 1773.3804931640625 2250.309814453125 1772.365478515625 2254.87255859375 1776.411865234375 C 2411.59375 1818.10009765625 2332.132080078125 1765.7398681640625 2140.49365234375 1753.0020751953125 C 2344.94775390625 1874.42333984375 2325.0419921875 1896.9058837890625 2161.47705078125 1808.763427734375" stroke-width="35.41944122314453" fill="none" stroke="rgb(44, 79, 118)" stroke-opacity="0.98269844" stroke-linecap="round" stroke-linejoin="round"/>
    <path d="M 2214.918701171875 1149.677734375 C 1950.33837890625 1205.7734375 1939.6348876953125 1125.878662109375 2278.262939453125 1094.1650390625 C 2152.186279296875 1257.501220703125 2203.882080078125 1273.0391845703125 1840.2720947265625 1288.0860595703125" stroke-width="49.76254653930664" fill="none" stroke="rgb(154, 154, 134)" stroke-opacity="1.0" stroke-linecap="round" stroke-linejoin="round"/>
    <path d="M 471.8871765136719 309.1925354003906 C 863.788330078125 175.24102783203125 789.027099609375 101.17150115966797 521.5368041992188 237.5106201171875 C 752.4408569335938 -11.01774787902832 533.525146484375 4.486663818359375 411.571533203125 387.3821105957031 C 425.58355712890625 119.2169418334961 426.9774169921875 106.95306396484375 312.9888916015625 464.05157470703125" stroke-width="52.77656936645508" fill="none" stroke="rgb(244, 202, 134)" stroke-opacity="0.7953507" stroke-linecap="round" stroke-linejoin="round"/>
    <path d="M 2008.622802734375 1056.1802978515625 C 2214.998779296875 1000.662841796875 2278.198974609375 1031.9952392578125 2106.7490234375 1053.1646728515625 C 2246.875244140625 915.1860961914062 2377.547119140625 1091.6497802734375 2030.845947265625 1087.7274169921875" stroke-width="41.27089309692383" fill="none" stroke="rgb(170, 169, 146)" stroke-opacity="1.0" stroke-linecap="round" stroke-linejoin="round"/>
    <path d="M 1066.5557861328125 1028.979736328125 C 1248.1455078125 640.7423095703125 1318.442138671875 587.6807250976562 914.4645385742188 818.4717407226562" stroke-width="55.42940902709961" fill="none" stroke="rgb(44, 65, 101)" stroke-opacity="0.98861784" stroke-linecap="round" stroke-linejoin="round"/>
    <path d="M 1842.265625 203.3729248046875 C 2157.808837890625 246.8606719970703 2052.66796875 97.98777770996094 1766.00439453125 187.07994079589844 C 1798.5518798828125 93.26010131835938 1766.1390380859375 -5.351088523864746 2118.781982421875 99.15816497802734 C 1672.7752685546875 72.76084899902344 1613.288330078125 306.4236755371094 2112.873291015625 251.55775451660156" stroke-width="50.945472717285156" fill="none" stroke="rgb(245, 209, 145)" stroke-opacity="0.92518586" stroke-linecap="round" stroke-linejoin="round"/>
    <path d="M 109.952880859375 1884.649658203125 C -69.32022094726562 1771.884521484375 -36.139244079589844 1795.3319091796875 141.17343139648438 1670.82421875" stroke-width="46.235450744628906" fill="none" stroke="rgb(117, 153, 139)" stroke-opacity="0.5283288" stroke-linecap="round" stroke-linejoin="round"/>
    <path d="M 1090.87939453125 440.4234313964844 C 1370.231201171875 549.2935791015625 1348.2918701171875 702.0604858398438 1063.877197265625 636.4407958984375 C 782.1683959960938 771.19482421875 815.3187866210938 567.8704223632812 1236.119873046875 592.1593627929688" stroke-width="54.189300537109375" fill="none" stroke="rgb(42, 64, 102)" stroke-opacity="0.998278" stroke-linecap="round" stroke-linejoin="round"/>
    <path d="M 1877.716796875 950.0230102539062 C 1705.2330322265625 886.4874267578125 1749.3720703125 908.3113403320312 1745.7003173828125 750.3825073242188 C 1875.9110107421875 881.2056274414062 1779.89599609375 927.2569580078125 2013.04736328125 912.0516967773438" stroke-width="51.55702590942383" fill="none" stroke="rgb(172, 176, 159)" stroke-opacity="1.0" stroke-linecap="round" stroke-linejoin="round"/>
    <path d="M 2284.75927734375 1723.865966796875 C 2305.452392578125 1722.0875244140625 2357.73779296875 1710.9052734375 2364.854736328125 1789.3343505859375" stroke-width="29.98358154296875" fill="none" stroke="rgb(104, 189, 176)" stroke-opacity="0.46530044" stroke-linecap="round" stroke-linejoin="round"/>
    <path d="M 2844.094482421875 794.2942504882812 C 2736.4033203125 815.826171875 2726.582275390625 768.5095825195312 2679.08837890625 781.1937255859375 C 2687.532470703125 809.020263671875 2709.4912109375 881.0776977539062 2898.494873046875 961.9306030273438" stroke-width="18.276220321655273" fill="none" stroke="rgb(186, 171, 96)" stroke-opacity="0.39534858" stroke-linecap="round" stroke-linejoin="round"/>
    <path d="M 1115.4693603515625 1173.4483642578125 C 1180.56689453125 1025.2552490234375 1102.2449951171875 1063.955078125 761.3956298828125 1424.47216796875" stroke-width="55.634334564208984" fill="none" stroke="rgb(33, 59, 99)" stroke-opacity="0.9635507" stroke-linecap="round" stroke-linejoin="round"/>
    <path d="M 661.898193359375 662.6611938476562 C 659.6685791015625 657.3505249023438 668.8690185546875 683.45703125 658.9059448242188 651.9841918945312 C 669.520263671875 673.765869140625 660.6685180664062 656.0288696289062 661.0594482421875 669.5726318359375 C 681.9085693359375 634.5919189453125 660.9000244140625 594.9647827148438 989.357421875 759.9105224609375" stroke-width="62.647056579589844" fill="none" stroke="rgb(45, 62, 89)" stroke-opacity="0.74681306" stroke-linecap="round" stroke-linejoin="round"/>
    <path d="M 3081.64404296875 1371.884521484375 C 2689.6875 1465.2537841796875 2719.081787109375 1625.235595703125 2854.494384765625 1585.39501953125 C 2875.560546875 1532.893798828125 2984.755859375 1555.30078125 3047.028076171875 1483.5333251953125" stroke-width="42.120113372802734" fill="none" stroke="rgb(18, 62, 101)" stroke-opacity="0.7147148" stroke-linecap="round" stroke-linejoin="round"/>
    <path d="M 368.5177001953125 861.4529418945312 C 381.57293701171875 1006.6035766601562 456.3785705566406 908.3601684570312 226.0457305908203 949.1688842773438" stroke-width="46.92700958251953" fill="none" stroke="rgb(130, 163, 168)" stroke-opacity="0.99059993" stroke-linecap="round" stroke-linejoin="round"/>
    <path d="M 726.130859375 1692.596923828125 C 503.4904479980469 1681.0283203125 525.1416015625 1762.806396484375 641.6544799804688 1737.64892578125 C 775.3207397460938 1791.955810546875 724.3079223632812 1857.10986328125 646.9288940429688 1791.287353515625" stroke-width="47.00856399536133" fill="none" stroke="rgb(54, 128, 121)" stroke-opacity="0.46397838" stroke-linecap="round" stroke-linejoin="round"/>
    <path d="M 1993.735107421875 834.8881225585938 C 2004.7301025390625 733.3775024414062 2039.1705322265625 784.4226684570312 1996.2529296875 797.7702026367188 C 1986.0435791015625 737.28759765625 2010.978271484375 743.751708984375 2013.3006591796875 755.8321533203125 C 2008.214111328125 758.9185180664062 1932.5419921875 762.0030517578125 1954.186767578125 691.0846557617188" stroke-width="6.760434627532959" fill="none" stroke="rgb(228, 205, 123)" stroke-opacity="0.3670825" stroke-linecap="round" stroke-linejoin="round"/>
    <path d="M 2079.0546875 468.6166687011719 C 2031.4169921875 481.48858642578125 1986.9736328125 455.6603698730469 2072.764892578125 415.1036376953125" stroke-width="9.259525299072266" fill="none" stroke="rgb(192, 226, 52)" stroke-opacity="0.18555902" stroke-linecap="round" stroke-linejoin="round"/>
    <path d="M 1939.711181640625 446.1582946777344 C 2092.02490234375 511.2955322265625 2028.90625 531.204833984375 1986.051025390625 557.7546997070312 C 1927.802734375 532.664306640625 1987.1611328125 490.9600830078125 1779.0897216796875 431.70965576171875" stroke-width="38.416954040527344" fill="none" stroke="rgb(190, 222, 39)" stroke-opacity="0.16851367" stroke-linecap="round" stroke-linejoin="round"/>
    <path d="M 382.2377624511719 1215.041748046875 C 502.36016845703125 996.54150390625 491.3722839355469 991.817138671875 582.4763793945312 1000.0818481445312 C 597.7373046875 1014.6626586914062 647.8843383789062 969.9965209960938 857.8529663085938 1010.5736694335938" stroke-width="40.89777755737305" fill="none" stroke="rgb(82, 106, 128)" stroke-opacity="0.9751091" stroke-linecap="round" stroke-linejoin="round"/>
    <path d="M 721.0767211914062 2066.6015625 C 568.417724609375 2079.099365234375 582.552001953125 2008.82373046875 750.9945678710938 2047.06396484375 C 694.1634521484375 1952.0521240234375 711.3802490234375 2039.6807861328125 485.29302978515625 2007.3397216796875 C 693.5056762695312 1896.6722412109375 719.9566650390625 1966.62646484375 602.9613037109375 1909.8250732421875" stroke-width="36.627220153808594" fill="none" stroke="rgb(30, 56, 96)" stroke-opacity="0.94781846" stroke-linecap="round" stroke-linejoin="round"/>
    <path d="M 1095.322265625 1392.7003173828125 C 1072.49560546875 1306.621337890625 1102.03125 1288.98876953125 1324.70263671875 1216.200927734375 C 1350.330078125 1377.549072265625 1256.1505126953125 1276.0384521484375 1120.6298828125 1199.93505859375" stroke-width="52.66028594970703" fill="none" stroke="rgb(0, 0, 5)" stroke-opacity="0.22574383" stroke-linecap="round" stroke-linejoin="round"/>
    <path d="M 679.267578125 267.0675048828125 C 707.0416259765625 402.3820495605469 703.6397094726562 227.78421020507812 904.4393920898438 205.61009216308594 C 760.8994140625 313.7864990234375 767.6823120117188 245.98817443847656 747.5032348632812 308.34710693359375" stroke-width="41.12614440917969" fill="none" stroke="rgb(202, 154, 90)" stroke-opacity="0.66025406" stroke-linecap="round" stroke-linejoin="round"/>
    <path d="M 2670.912109375 1798.9735107421875 C 2313.705322265625 1737.9661865234375 2251.11669921875 1798.1788330078125 2636.5634765625 1827.6419677734375 C 2359.055908203125 1856.8616943359375 2325.251708984375 1828.8232421875 2326.34033203125 1885.0352783203125 C 2302.63525390625 1743.0311279296875 2215.0283203125 1829.87890625 2348.3369140625 1973.3580322265625" stroke-width="41.142539978027344" fill="none" stroke="rgb(28, 69, 108)" stroke-opacity="0.82286215" stroke-linecap="round" stroke-linejoin="round"/>
    <path d="M 2165.536376953125 1208.8223876953125 C 1891.427734375 1242.220458984375 2078.31884765625 1194.5 1945.2625732421875 980.06689453125 C 1994.549560546875 1337.8934326171875 1867.6689453125 1312.068603515625 1811.1214599609375 1011.2647094726562" stroke-width="48.48024368286133" fill="none" stroke="rgb(156, 156, 136)" stroke-opacity="1.0" stroke-linecap="round" stroke-linejoin="round"/>
    <path d="M 550.8555908203125 1354.472900390625 C 197.7771759033203 1087.2955322265625 178.99676513671875 1140.0316162109375 421.8148193359375 1310.2154541015625 C 409.5733337402344 1056.3223876953125 364.8868103027344 1012.6309814453125 357.6188049316406 1231.9493408203125" stroke-width="44.020172119140625" fill="none" stroke="rgb(27, 54, 98)" stroke-opacity="0.95535016" stroke-linecap="round" stroke-linejoin="round"/>
    <path d="M 1305.993408203125 2125.427734375 C 855.6400756835938 1918.0146484375 975.8775634765625 1741.272705078125 1226.0885009765625 2061.1455078125 C 1279.4605712890625 1864.23291015625 1169.8333740234375 2107.0283203125 1427.3048095703125 2084.490966796875" stroke-width="52.8717041015625" fill="none" stroke="rgb(57, 84, 116)" stroke-opacity="1.0" stroke-linecap="round" stroke-linejoin="round"/>
    <path d="M 14.688672065734863 1323.11474609375 C -31.319238662719727 1163.932861328125 180.6603546142578 1158.6666259765625 114.25767517089844 1240.6297607421875 C 163.22589111328125 1264.0616455078125 303.4795227050781 1277.5848388671875 187.11868286132812 1209.7869873046875" stroke-width="38.84174346923828" fill="none" stroke="rgb(0, 50, 39)" stroke-opacity="0.399872" stroke-linecap="round" stroke-linejoin="round"/>
    <path d="M 1833.9635009765625 623.786376953125 C 1963.6163330078125 641.4576416015625 1903.8525390625 673.5947265625 2083.1904296875 661.1010131835938 C 1844.186767578125 522.384521484375 1724.2076416015625 539.974853515625 1872.8155517578125 722.6099243164062" stroke-width="44.84904479980469" fill="none" stroke="rgb(156, 161, 75)" stroke-opacity="0.2857175" stroke-linecap="round" stroke-linejoin="round"/>
    <path d="M 310.13787841796875 987.525634765625 C 538.0342407226562 953.0106811523438 600.41455078125 1034.0277099609375 334.789794921875 1019.3256225585938" stroke-width="41.24922180175781" fill="none" stroke="rgb(63, 93, 124)" stroke-opacity="1.0" stroke-linecap="round" stroke-linejoin="round"/>
    <path d="M 166.605712890625 971.66162109375 C -0.23040828108787537 861.732421875 -80.89141082763672 801.5912475585938 129.80455017089844 789.69287109375 C -46.74835205078125 930.3325805664062 -90.0955810546875 736.5557250976562 202.3281707763672 755.4854736328125" stroke-width="35.905311584472656" fill="none" stroke="rgb(27, 66, 87)" stroke-opacity="0.6831751" stroke-linecap="round" stroke-linejoin="round"/>
    <path d="M 1608.064697265625 1116.1220703125 C 1275.3983154296875 1158.6256103515625 1191.1572265625 1125.5667724609375 1239.9578857421875 1015.861083984375 C 1653.5748291015625 1005.274658203125 1674.8660888671875 1106.9532470703125 1276.2208251953125 1067.3521728515625" stroke-width="55.000160217285156" fill="none" stroke="rgb(116, 128, 117)" stroke-opacity="0.8400292" stroke-linecap="round" stroke-linejoin="round"/>
    <path d="M 892.0157470703125 976.264892578125 C 915.2933349609375 969.1268310546875 755.828369140625 1218.0162353515625 757.7742309570312 1374.940185546875 C 967.7966918945312 954.5062866210938 1045.8370361328125 1036.419921875 856.7162475585938 1274.468994140625" stroke-width="46.34157180786133" fill="none" stroke="rgb(38, 61, 100)" stroke-opacity="0.99172384" stroke-linecap="round" stroke-linejoin="round"/>
    <path d="M 2772.026611328125 1180.948974609375 C 2460.98486328125 1328.1590576171875 2423.14794921875 1456.8370361328125 2181.6689453125 1374.08642578125 C 2640.111572265625 1305.4991455078125 2577.370361328125 1225.993896484375 2184.477783203125 1327.78369140625 C 2187.005859375 1245.045166015625 2395.36181640625 1214.5662841796875 2628.9443359375 1244.586669921875" stroke-width="51.69609069824219" fill="none" stroke="rgb(151, 151, 129)" stroke-opacity="0.96407133" stroke-linecap="round" stroke-linejoin="round"/>
    <path d="M 1604.630859375 35.358245849609375 C 1420.1229248046875 -5.198182582855225 1370.7857666015625 103.63237762451172 1429.723388671875 301.10565185546875 C 1526.7528076171875 -104.79999542236328 1537.806884765625 -18.17647933959961 1502.9100341796875 358.1372375488281 C 1625.2318115234375 237.5833282470703 1559.389892578125 76.13799285888672 1779.3817138671875 24.715028762817383" stroke-width="55.111568450927734" fill="none" stroke="rgb(238, 202, 140)" stroke-opacity="0.8919143" stroke-linecap="round" stroke-linejoin="round"/>
    <path d="M 2767.94873046875 1628.1016845703125 C 3067.806640625 1457.9466552734375 3159.438720703125 1564.5889892578125 2999.342041015625 1755.1778564453125" stroke-width="53.0567512512207" fill="none" stroke="rgb(78, 137, 165)" stroke-opacity="0.84244347" stroke-linecap="round" stroke-linejoin="round"/>
    <path d="M 734.8358154296875 1991.6138916015625 C 707.9033813476562 1911.5235595703125 505.7410888671875 2073.0283203125 582.7267456054688 1936.4215087890625 C 468.3746032714844 1936.439453125 456.5937194824219 1896.398193359375 512.6393432617188 1994.118896484375" stroke-width="31.07546043395996" fill="none" stroke="rgb(34, 51, 88)" stroke-opacity="0.919471" stroke-linecap="round" stroke-linejoin="round"/>
    <path d="M 3103.144775390625 1787.594970703125 C 2820.805419921875 1795.0526123046875 2705.2626953125 1885.7138671875 3092.631591796875 1821.3345947265625 C 2825.898193359375 1908.6514892578125 2726.975341796875 1849.076416015625 2812.61474609375 1874.2237548828125 C 2805.66796875 1933.130615234375 2739.1669921875 1950.336669921875 3097.595458984375 1901.67236328125" stroke-width="42.64896774291992" fill="none" stroke="rgb(40, 75, 120)" stroke-opacity="1.0" stroke-linecap="round" stroke-linejoin="round"/>
    <path d="M 1532.296875 1310.2747802734375 C 1146.4527587890625 1276.227783203125 1271.288818359375 1167.1446533203125 1098.5198974609375 1180.4598388671875" stroke-width="56.38325500488281" fill="none" stroke="rgb(11, 33, 61)" stroke-opacity="0.67530906" stroke-linecap="round" stroke-linejoin="round"/>
    <path d="M 757.4835205078125 1058.2388916015625 C 630.6412353515625 1079.642333984375 714.2760009765625 1080.7340087890625 823.2310791015625 1119.603271484375 C 954.2818603515625 1029.9774169921875 994.010498046875 1032.987060546875 786.0811767578125 1089.5560302734375 C 843.3782958984375 1208.6585693359375 845.6822509765625 1154.925537109375 917.250732421875 1040.1058349609375" stroke-width="29.33945655822754" fill="none" stroke="rgb(101, 126, 135)" stroke-opacity="0.7638631" stroke-linecap="round" stroke-linejoin="round"/>
    <path d="M 2296.378662109375 1648.3060302734375 C 2679.005126953125 1619.2274169921875 2660.474365234375 1466.4266357421875 2658.294677734375 1732.5174560546875" stroke-width="56.552242279052734" fill="none" stroke="rgb(98, 140, 158)" stroke-opacity="0.9536582" stroke-linecap="round" stroke-linejoin="round"/>
    <path d="M 1708.5701904296875 790.9970703125 C 1660.44140625 689.0225830078125 1628.953369140625 758.1317138671875 1809.071044921875 693.7500610351562 C 1691.3699951171875 778.3193359375 1638.2926025390625 837.4993896484375 1598.4031982421875 762.367431640625" stroke-width="35.01641082763672" fill="none" stroke="rgb(170, 181, 167)" stroke-opacity="0.8977906" stroke-linecap="round" stroke-linejoin="round"/>
    <path d="M 132.90028381347656 1070.0548095703125 C 141.99758911132812 1093.8411865234375 239.7710418701172 1170.529052734375 403.3811340332031 1095.8670654296875 C 61.28717041015625 1088.651611328125 124.00836181640625 1036.8843994140625 278.4083557128906 1252.505126953125" stroke-width="37.51702880859375" fill="none" stroke="rgb(27, 51, 79)" stroke-opacity="0.7513066" stroke-linecap="round" stroke-linejoin="round"/>
    <path d="M 2223.17822265625 1766.6077880859375 C 2239.090087890625 1728.4644775390625 2186.6796875 1710.9384765625 2239.266845703125 1781.5025634765625 C 2115.267578125 1800.40869140625 2112.251953125 1711.8695068359375 2209.00537109375 1673.2176513671875 C 2096.592529296875 1673.159423828125 1999.072021484375 1679.24951171875 1758.7952880859375 1591.1356201171875" stroke-width="29.231142044067383" fill="none" stroke="rgb(152, 170, 175)" stroke-opacity="1.0" stroke-linecap="round" stroke-linejoin="round"/>
    <path d="M 2896.89111328125 340.792724609375 C 2510.98974609375 417.0398254394531 2494.983642578125 242.88511657714844 2746.571044921875 -16.847122192382812 C 2596.726806640625 413.05938720703125 2584.304443359375 343.25360107421875 2849.837646484375 69.34794616699219" stroke-width="59.60226058959961" fill="none" stroke="rgb(245, 208, 142)" stroke-opacity="0.9076044" stroke-linecap="round" stroke-linejoin="round"/>
    <path d="M 147.04891967773438 654.8546142578125 C 539.413818359375 560.792236328125 509.7840881347656 456.31072998046875 281.8119812011719 547.9923706054688 C 283.12896728515625 304.2012023925781 285.1944274902344 259.0806884765625 269.06964111328125 190.52142333984375 C 470.067626953125 345.3294982910156 477.2143859863281 175.08839416503906 139.7901611328125 116.30474853515625" stroke-width="48.29255294799805" fill="none" stroke="rgb(217, 190, 147)" stroke-opacity="1.0" stroke-linecap="round" stroke-linejoin="round"/>
    <path d="M 2932.969970703125 1563.85302734375 C 2781.149169921875 1664.3387451171875 2797.90087890625 1727.4901123046875 2709.46240234375 1645.91552734375" stroke-width="53.65781021118164" fill="none" stroke="rgb(46, 103, 144)" stroke-opacity="1.0" stroke-linecap="round" stroke-linejoin="round"/>
    <path d="M 801.9105834960938 352.76708984375 C 754.0718383789062 438.2806091308594 700.9315185546875 461.8766784667969 550.6304931640625 428.78973388671875 C 661.3876953125 323.77880859375 684.347900390625 381.7476806640625 831.1910400390625 49.75064468383789" stroke-width="47.944278717041016" fill="none" stroke="rgb(231, 215, 161)" stroke-opacity="0.64042604" stroke-linecap="round" stroke-linejoin="round"/>
    <path d="M 2574.56201171875 1855.4818115234375 C 2326.449462890625 1888.692626953125 2308.847900390625 2009.7244873046875 2520.708984375 1880.6541748046875" stroke-width="48.98754119873047" fill="none" stroke="rgb(23, 68, 100)" stroke-opacity="0.71251684" stroke-linecap="round" stroke-linejoin="round"/>
    <path d="M 2666.767333984375 1678.0478515625 C 2722.678466796875 1736.1229248046875 2893.978759765625 1776.553466796875 2854.253173828125 1771.2593994140625 C 2784.279296875 1739.806884765625 2763.6708984375 1736.848388671875 2812.886962890625 1753.8834228515625 C 2877.526123046875 1775.0665283203125 2893.996826171875 1812.6781005859375 2707.096923828125 1867.2496337890625" stroke-width="46.83997344970703" fill="none" stroke="rgb(46, 84, 115)" stroke-opacity="0.6498029" stroke-linecap="round" stroke-linejoin="round"/>
    <path d="M 2351.519775390625 1906.5447998046875 C 2455.998291015625 1790.411376953125 2430.642333984375 1841.5555419921875 2198.389404296875 1755.5714111328125" stroke-width="34.440704345703125" fill="none" stroke="rgb(36, 64, 104)" stroke-opacity="0.8716246" stroke-linecap="round" stroke-linejoin="round"/>
  </g>
</svg>
