<?xml version="1.0" ?>
<svg xmlns="http://www.w3.org/2000/svg" version="1.1" width="3100" height="2110">
  <defs/>
  <g>
    <path d="M 142.9919891357422 57.90360641479492 C 609.0681762695312 143.6246795654297 542.4077758789062 238.89747619628906 235.12937927246094 125.40515899658203 C 168.70748901367188 216.7709197998047 184.1975860595703 297.2222900390625 82.43035888671875 465.19342041015625" stroke-width="53.35517883300781" fill="none" stroke="rgb(212, 169, 94)" stroke-opacity="0.61149204" stroke-linecap="round" stroke-linejoin="round"/>
    <path d="M 267.8109130859375 1127.7222900390625 C 77.61947631835938 1035.0992431640625 140.38418579101562 1187.2716064453125 56.36729049682617 1165.51806640625" stroke-width="37.81631088256836" fill="none" stroke="rgb(0, 22, 61)" stroke-opacity="0.79120713" stroke-linecap="round" stroke-linejoin="round"/>
    <path d="M 1470.6136474609375 1150.282470703125 C 1242.129150390625 1135.2457275390625 1211.5736083984375 1154.831298828125 1218.0372314453125 824.7009887695312" stroke-width="41.943145751953125" fill="none" stroke="rgb(56, 107, 145)" stroke-opacity="1.0" stroke-linecap="round" stroke-linejoin="round"/>
    <path d="M 160.84771728515625 691.6328735351562 C -13.620948791503906 718.0738525390625 21.221708297729492 721.3659057617188 15.004648208618164 852.8079833984375" stroke-width="35.817970275878906" fill="none" stroke="rgb(155, 152, 139)" stroke-opacity="0.9773337" stroke-linecap="round" stroke-linejoin="round"/>
    <path d="M 184.36972045898438 773.5117797851562 C 21.447738647460938 802.2614135742188 79.11602020263672 765.861083984375 230.68267822265625 733.34423828125 C 202.15997314453125 791.1102294921875 286.6117858886719 799.8096923828125 258.6581115722656 809.078125" stroke-width="21.6909236907959" fill="none" stroke="rgb(20, 50, 47)" stroke-opacity="0.65826416" stroke-linecap="round" stroke-linejoin="round"/>
    <path d="M 344.5041198730469 1808.145751953125 C 377.6882629394531 1893.77783203125 312.035400390625 1775.508544921875 259.2147521972656 1815.0023193359375 C 347.68914794921875 1884.8121337890625 273.7325134277344 1911.421142578125 537.0311889648438 1719.488525390625 C 329.8319396972656 2008.6268310546875 436.9319763183594 1979.533935546875 130.9977264404297 2044.4364013671875" stroke-width="42.94778060913086" fill="none" stroke="rgb(62, 92, 123)" stroke-opacity="0.9998896" stroke-linecap="round" stroke-linejoin="round"/>
    <path d="M 3071.751220703125 427.7939453125 C 3064.886474609375 739.6446533203125 3081.280029296875 756.4058227539062 3169.133544921875 674.5011596679688 C 3166.57861328125 672.4615478515625 3160.312255859375 644.6441040039062 3204.2373046875 695.9685668945312 C 3151.368408203125 753.2691650390625 3196.024658203125 708.8375854492188 2955.330078125 682.4061279296875" stroke-width="48.687007904052734" fill="none" stroke="rgb(192, 162, 106)" stroke-opacity="0.7359909" stroke-linecap="round" stroke-linejoin="round"/>
    <path d="M 964.9939575195312 207.6793975830078 C 1051.5732421875 353.1976623535156 1104.2027587890625 314.02825927734375 1011.4307250976562 216.73207092285156 C 1160.4154052734375 230.0405731201172 1184.5665283203125 206.9271697998047 1049.4056396484375 127.7496337890625" stroke-width="35.56218719482422" fill="none" stroke="rgb(195, 215, 74)" stroke-opacity="0.20768844" stroke-linecap="round" stroke-linejoin="round"/>
    <path d="M 1560.8853759765625 1860.7205810546875 C 1751.0482177734375 1954.86181640625 1913.0941162109375 1980.3489990234375 1711.7958984375 1999.7642822265625 C 1693.385009765625 2015.5020751953125 1642.4754638671875 1944.671142578125 1492.6959228515625 1881.054931640625" stroke-width="49.564208984375" fill="none" stroke="rgb(171, 166, 132)" stroke-opacity="1.0" stroke-linecap="round" stroke-linejoin="round"/>
    <path d="M 802.814208984375 1028.1014404296875 C 682.4444580078125 1056.06884765625 657.5762939453125 886.4088745117188 863.3578491210938 986.201904296875 C 746.0960083007812 1029.105224609375 708.2185668945312 965.8735961914062 656.05322265625 999.2926025390625" stroke-width="30.157041549682617" fill="none" stroke="rgb(70, 84, 108)" stroke-opacity="0.97156715" stroke-linecap="round" stroke-linejoin="round"/>
    <path d="M 2064.29443359375 1665.5177001953125 C 2114.8798828125 1651.3507080078125 2079.837890625 1638.5372314453125 1975.6085205078125 1617.35009765625 C 1822.4246826171875 1613.9775390625 1867.3524169921875 1780.04052734375 2251.232177734375 1916.039794921875" stroke-width="47.69342803955078" fill="none" stroke="rgb(117, 139, 149)" stroke-opacity="0.99793625" stroke-linecap="round" stroke-linejoin="round"/>
    <path d="M 1705.2889404296875 1201.0054931640625 C 1737.0556640625 960.6089477539062 1651.0301513671875 981.3572387695312 1803.7569580078125 1228.728515625 C 1747.2178955078125 952.8346557617188 1734.826416015625 925.3336181640625 1569.75927734375 998.3907470703125" stroke-width="44.326881408691406" fill="none" stroke="rgb(159, 160, 139)" stroke-opacity="1.0" stroke-linecap="round" stroke-linejoin="round"/>
    <path d="M 2903.142822265625 1408.3656005859375 C 3156.206298828125 1240.1177978515625 3268.801025390625 1363.1820068359375 2830.802734375 1502.5750732421875" stroke-width="43.868560791015625" fill="none" stroke="rgb(24, 54, 96)" stroke-opacity="0.88604796" stroke-linecap="round" stroke-linejoin="round"/>
    <path d="M 423.5722351074219 1854.9368896484375 C 24.638837814331055 2029.69775390625 27.0220947265625 1899.668701171875 327.38201904296875 1854.5648193359375 C 375.33563232421875 1941.8143310546875 418.7487487792969 1941.6220703125 21.86263084411621 2017.3197021484375 C 164.11538696289062 2161.892333984375 266.83111572265625 2049.82080078125 501.5036315917969 1935.4166259765625" stroke-width="49.59683609008789" fill="none" stroke="rgb(32, 60, 98)" stroke-opacity="0.9311319" stroke-linecap="round" stroke-linejoin="round"/>
    <path d="M 1860.537109375 850.942138671875 C 1881.07421875 968.393798828125 1867.6343994140625 1115.7613525390625 2012.3797607421875 1140.2913818359375 C 1820.15673828125 908.9679565429688 1853.896240234375 902.1647338867188 2106.323486328125 1011.8342895507812 C 2053.55078125 1063.6416015625 1955.7366943359375 952.4231567382812 1651.543212890625 923.9100341796875" stroke-width="37.12330627441406" fill="none" stroke="rgb(168, 168, 146)" stroke-opacity="0.981586" stroke-linecap="round" stroke-linejoin="round"/>
    <path d="M 3001.622802734375 119.0174331665039 C 3153.030517578125 165.448486328125 3139.4208984375 -22.233661651611328 2904.365966796875 -17.58534812927246 C 3053.56396484375 71.78558349609375 3064.298583984375 39.297889709472656 3071.1240234375 148.35000610351562 C 2998.508544921875 219.14427185058594 3117.6103515625 193.08192443847656 3131.052490234375 145.4131622314453" stroke-width="41.62746047973633" fill="none" stroke="rgb(239, 182, 79)" stroke-opacity="0.55979276" stroke-linecap="round" stroke-linejoin="round"/>
    <path d="M 1747.9447021484375 520.37939453125 C 1753.0914306640625 517.6605224609375 1709.129638671875 542.0244140625 1771.40087890625 562.686279296875 C 1719.770751953125 530.2178344726562 1641.3675537109375 517.310791015625 1636.5904541015625 624.1664428710938" stroke-width="32.4403076171875" fill="none" stroke="rgb(84, 110, 98)" stroke-opacity="0.5932072" stroke-linecap="round" stroke-linejoin="round"/>
    <path d="M 726.8033447265625 563.1092529296875 C 724.7901000976562 587.432373046875 702.8441772460938 598.7869262695312 953.3245239257812 544.2412109375" stroke-width="52.24196243286133" fill="none" stroke="rgb(47, 52, 86)" stroke-opacity="1.0" stroke-linecap="round" stroke-linejoin="round"/>
    <path d="M 2016.418212890625 1595.062744140625 C 2370.220947265625 1629.5498046875 2215.80224609375 1515.56396484375 2351.85498046875 1497.33056640625 C 2383.111572265625 1408.9061279296875 2278.460693359375 1450.0216064453125 2209.369873046875 1549.850830078125 C 2273.9658203125 1542.2728271484375 2195.58154296875 1554.49169921875 1913.1732177734375 1545.563720703125" stroke-width="49.844058990478516" fill="none" stroke="rgb(116, 120, 107)" stroke-opacity="1.0" stroke-linecap="round" stroke-linejoin="round"/>
    <path d="M 2694.162109375 382.1868896484375 C 2973.626953125 187.76739501953125 2881.346435546875 172.6222686767578 2962.842041015625 37.48141860961914 C 3006.29443359375 375.703369140625 2722.60009765625 305.8851623535156 2904.28076171875 86.80168914794922" stroke-width="51.75880813598633" fill="none" stroke="rgb(246, 210, 146)" stroke-opacity="0.942331" stroke-linecap="round" stroke-linejoin="round"/>
    <path d="M 2793.598876953125 1931.8341064453125 C 3247.94189453125 1934.6357421875 3230.449951171875 2094.344482421875 2924.027587890625 2084.878173828125 C 2952.802734375 2107.083251953125 3030.8955078125 2061.250732421875 3102.7900390625 2069.23046875" stroke-width="57.36505126953125" fill="none" stroke="rgb(93, 137, 164)" stroke-opacity="1.0" stroke-linecap="round" stroke-linejoin="round"/>
    <path d="M 2577.703857421875 1144.9083251953125 C 2949.603515625 1090.6907958984375 2907.36083984375 1212.6900634765625 2680.4970703125 1166.992919921875 C 2443.961669921875 1222.8646240234375 2499.92529296875 1115.8741455078125 2525.8857421875 1032.6434326171875 C 2572.39306640625 1159.46533203125 2554.17236328125 1196.302001953125 2364.129638671875 1099.2303466796875" stroke-width="45.19316101074219" fill="none" stroke="rgb(148, 149, 128)" stroke-opacity="0.9451375" stroke-linecap="round" stroke-linejoin="round"/>
    <path d="M 1122.236328125 1824.0201416015625 C 1234.6357421875 1907.5626220703125 1063.69287109375 1863.6402587890625 1171.2227783203125 2078.543212890625 C 1255.7974853515625 2076.80029296875 1094.6942138671875 1964.64697265625 1180.293212890625 1820.5694580078125 C 1172.3887939453125 1855.7391357421875 1181.1641845703125 1799.3359375 1175.983154296875 1832.714599609375" stroke-width="34.1724967956543" fill="none" stroke="rgb(28, 78, 92)" stroke-opacity="0.5476159" stroke-linecap="round" stroke-linejoin="round"/>
    <path d="M 2574.623779296875 1095.838134765625 C 2881.013916015625 1093.2645263671875 2889.535888671875 1041.738525390625 2705.18896484375 868.8421630859375 C 2949.027099609375 1082.1405029296875 3058.84716796875 1120.6544189453125 2792.734619140625 1103.4891357421875" stroke-width="51.91424560546875" fill="none" stroke="rgb(168, 167, 139)" stroke-opacity="0.83509725" stroke-linecap="round" stroke-linejoin="round"/>
    <path d="M 2168.2861328125 870.9359741210938 C 1912.20166015625 943.861572265625 1987.1767578125 977.370849609375 2231.475830078125 884.7485961914062 C 2325.763916015625 928.7725830078125 2194.827880859375 922.9894409179688 2050.840576171875 963.206787109375 C 2062.95947265625 1046.673095703125 2092.8564453125 943.2404174804688 2285.376953125 957.5012817382812" stroke-width="37.079532623291016" fill="none" stroke="rgb(191, 186, 155)" stroke-opacity="0.8134322" stroke-linecap="round" stroke-linejoin="round"/>
    <path d="M 2067.33349609375 131.7056884765625 C 2215.408447265625 367.1982116699219 2320.241455078125 325.46868896484375 2306.8017578125 163.2676544189453 C 1997.146484375 93.86528778076172 2097.69970703125 325.08612060546875 2542.40869140625 267.1253662109375" stroke-width="63.13209915161133" fill="none" stroke="rgb(235, 194, 89)" stroke-opacity="0.46240595" stroke-linecap="round" stroke-linejoin="round"/>
    <path d="M 37.58354187011719 698.332763671875 C 165.49989318847656 427.4664001464844 80.38816833496094 407.6167297363281 55.24350357055664 544.6941528320312 C 27.269817352294922 422.4295654296875 16.77440071105957 381.5286865234375 22.059621810913086 723.782470703125" stroke-width="44.986000061035156" fill="none" stroke="rgb(187, 157, 109)" stroke-opacity="0.7928476" stroke-linecap="round" stroke-linejoin="round"/>
    <path d="M 810.3799438476562 875.7557373046875 C 948.4362182617188 859.2078247070312 662.3045043945312 769.1185302734375 822.811279296875 966.5759887695312" stroke-width="37.830238342285156" fill="none" stroke="rgb(52, 101, 93)" stroke-opacity="0.4849981" stroke-linecap="round" stroke-linejoin="round"/>
    <path d="M 2472.073974609375 1092.64599609375 C 2118.91845703125 926.9268798828125 2102.607666015625 1038.977783203125 2410.727783203125 1086.8056640625 C 2147.4375 1154.210693359375 2140.0205078125 1121.7825927734375 2453.5966796875 1149.523681640625 C 2164.50146484375 1195.484375 2270.827392578125 1143.7166748046875 2183.851806640625 1318.008056640625" stroke-width="38.047584533691406" fill="none" stroke="rgb(164, 162, 138)" stroke-opacity="0.95420074" stroke-linecap="round" stroke-linejoin="round"/>
    <path d="M 1733.6885986328125 819.3829956054688 C 1430.33349609375 757.626708984375 1449.398193359375 861.1558227539062 1735.7735595703125 854.8696899414062 C 1759.8087158203125 959.70068359375 1602.8399658203125 824.6464233398438 1540.9639892578125 991.5474853515625 C 1498.989990234375 1059.1968994140625 1532.5426025390625 952.8605346679688 1449.746337890625 735.2893676757812" stroke-width="47.03361129760742" fill="none" stroke="rgb(169, 174, 152)" stroke-opacity="0.86609644" stroke-linecap="round" stroke-linejoin="round"/>
    <path d="M 1315.1693115234375 1380.7332763671875 C 1578.398193359375 1467.134765625 1524.9654541015625 1433.3355712890625 1554.5849609375 1486.373046875 C 1826.3536376953125 1371.7021484375 1685.7115478515625 1496.962890625 1329.2913818359375 1328.42919921875" stroke-width="51.15407943725586" fill="none" stroke="rgb(105, 113, 115)" stroke-opacity="1.0" stroke-linecap="round" stroke-linejoin="round"/>
    <path d="M 1065.457763671875 1436.1727294921875 C 1135.18896484375 1447.4315185546875 1079.7391357421875 1490.0977783203125 1032.2569580078125 1416.424072265625 C 970.1182861328125 1397.3956298828125 1040.4866943359375 1316.216796875 896.91015625 1294.609619140625 C 872.1141967773438 1309.3123779296875 863.9146118164062 1276.8863525390625 1063.0675048828125 1133.18212890625" stroke-width="29.058717727661133" fill="none" stroke="rgb(114, 150, 118)" stroke-opacity="0.37866408" stroke-linecap="round" stroke-linejoin="round"/>
    <path d="M 855.7093505859375 22.105758666992188 C 1318.699462890625 -9.318642616271973 1259.43408203125 34.525962829589844 860.1585693359375 66.2345962524414 C 977.995361328125 169.22909545898438 1259.5965576171875 -49.17947006225586 1361.851806640625 143.30215454101562 C 1014.5274658203125 135.90684509277344 977.0939331054688 140.5623321533203 1320.548095703125 191.67581176757812" stroke-width="43.575721740722656" fill="none" stroke="rgb(230, 171, 79)" stroke-opacity="0.5885041" stroke-linecap="round" stroke-linejoin="round"/>
    <path d="M 384.7413635253906 1361.08056640625 C 688.9759521484375 1269.5340576171875 665.5460815429688 1264.7548828125 311.1016540527344 1229.1046142578125" stroke-width="43.0813102722168" fill="none" stroke="rgb(16, 41, 72)" stroke-opacity="0.7993545" stroke-linecap="round" stroke-linejoin="round"/>
    <path d="M 877.3055419921875 1073.556884765625 C 952.1228637695312 993.876953125 1024.4259033203125 1010.4330444335938 1024.88037109375 1118.3671875 C 1124.002685546875 1157.8153076171875 950.9373168945312 1193.739013671875 954.6915893554688 1043.20556640625 C 1008.649169921875 1075.1583251953125 939.8505249023438 1082.76953125 1136.8642578125 1154.7462158203125" stroke-width="33.968441009521484" fill="none" stroke="rgb(39, 55, 93)" stroke-opacity="0.9914038" stroke-linecap="round" stroke-linejoin="round"/>
    <path d="M 2013.01123046875 572.8460083007812 C 2171.861083984375 560.40478515625 2181.9296875 524.7803344726562 2214.74072265625 596.2510986328125 C 2090.93896484375 574.0797119140625 2087.835693359375 612.2244873046875 2264.6689453125 704.5638427734375" stroke-width="33.56431198120117" fill="none" stroke="rgb(206, 210, 42)" stroke-opacity="0.19182672" stroke-linecap="round" stroke-linejoin="round"/>
    <path d="M 2842.321533203125 320.99102783203125 C 2724.857666015625 565.6536865234375 2836.9765625 503.8219299316406 3005.83154296875 479.4118957519531 C 3066.23046875 385.6723327636719 3059.14013671875 365.8680725097656 2778.390625 276.9023132324219 C 2907.435302734375 438.00018310546875 3137.88720703125 391.5691223144531 2842.104248046875 459.4129333496094" stroke-width="50.26935958862305" fill="none" stroke="rgb(246, 211, 152)" stroke-opacity="0.97623587" stroke-linecap="round" stroke-linejoin="round"/>
    <path d="M 333.77069091796875 2091.9658203125 C 791.3170166015625 2115.49267578125 766.5084838867188 2052.262451171875 387.6252746582031 2056.5185546875" stroke-width="40.281639099121094" fill="none" stroke="rgb(30, 51, 95)" stroke-opacity="1.0" stroke-linecap="round" stroke-linejoin="round"/>
    <path d="M 2518.492919921875 324.075927734375 C 2543.825439453125 275.62640380859375 2466.84375 334.51068115234375 2427.265625 325.65472412109375" stroke-width="5.4500203132629395" fill="none" stroke="rgb(222, 220, 123)" stroke-opacity="0.43426704" stroke-linecap="round" stroke-linejoin="round"/>
    <path d="M 920.71337890625 508.5248718261719 C 1234.6016845703125 551.4247436523438 1301.472900390625 480.5364685058594 1058.5657958984375 485.68829345703125" stroke-width="36.7392463684082" fill="none" stroke="rgb(39, 55, 91)" stroke-opacity="0.9903727" stroke-linecap="round" stroke-linejoin="round"/>
    <path d="M 1160.6004638671875 1402.686767578125 C 1155.31201171875 1401.57861328125 1229.2509765625 1405.507080078125 1162.5311279296875 1402.3221435546875 C 1074.3397216796875 1431.7481689453125 1134.2784423828125 1400.9425048828125 1077.3116455078125 1385.2962646484375 C 1136.8360595703125 1509.4210205078125 1040.9515380859375 1437.3031005859375 1046.1280517578125 1477.3436279296875" stroke-width="18.085731506347656" fill="none" stroke="rgb(0, 22, 0)" stroke-opacity="0.25122163" stroke-linecap="round" stroke-linejoin="round"/>
    <path d="M 1460.9923095703125 17.249589920043945 C 1222.3651123046875 42.1312141418457 1272.0830078125 4.858419895172119 1135.4722900390625 17.877941131591797" stroke-width="48.306968688964844" fill="none" stroke="rgb(246, 209, 151)" stroke-opacity="0.97871494" stroke-linecap="round" stroke-linejoin="round"/>
    <path d="M 1954.77978515625 61.16360092163086 C 2232.318115234375 -64.79437255859375 2287.716552734375 6.236690044403076 2005.6439208984375 99.77888488769531" stroke-width="54.87302017211914" fill="none" stroke="rgb(244, 202, 127)" stroke-opacity="0.7919631" stroke-linecap="round" stroke-linejoin="round"/>
    <path d="M 312.8193359375 1520.42724609375 C 168.6755828857422 1514.8759765625 110.7924575805664 1536.0596923828125 177.0183563232422 1422.3790283203125 C 148.6893768310547 1527.2657470703125 255.40501403808594 1411.09228515625 347.57269287109375 1544.5946044921875 C 126.09841918945312 1608.5338134765625 59.256900787353516 1505.6180419921875 60.23259353637695 1415.8345947265625" stroke-width="45.340457916259766" fill="none" stroke="rgb(6, 32, 76)" stroke-opacity="0.86822695" stroke-linecap="round" stroke-linejoin="round"/>
    <path d="M 1301.8743896484375 372.3482971191406 C 1095.1192626953125 375.4334411621094 1239.8883056640625 499.7159118652344 1084.037353515625 362.800048828125 C 1044.8016357421875 341.3414306640625 1004.7749633789062 384.7759704589844 1024.7049560546875 365.9077453613281 C 987.1973876953125 286.670654296875 933.2990112304688 297.1346740722656 956.2813720703125 298.27630615234375" stroke-width="39.83303451538086" fill="none" stroke="rgb(132, 154, 142)" stroke-opacity="0.7187179" stroke-linecap="round" stroke-linejoin="round"/>
    <path d="M 2161.454345703125 1503.010009765625 C 2483.04150390625 1323.335205078125 2409.320068359375 1316.7376708984375 1967.404541015625 1527.07861328125" stroke-width="55.53652572631836" fill="none" stroke="rgb(99, 105, 96)" stroke-opacity="0.7741016" stroke-linecap="round" stroke-linejoin="round"/>
    <path d="M 2534.254638671875 1332.9195556640625 C 2761.826904296875 1278.7611083984375 2714.536376953125 1321.4490966796875 2714.8994140625 1316.1116943359375 C 2780.196533203125 1235.90380859375 2855.24365234375 1210.214111328125 2590.257080078125 1310.1553955078125" stroke-width="41.43918228149414" fill="none" stroke="rgb(90, 126, 133)" stroke-opacity="0.9831655" stroke-linecap="round" stroke-linejoin="round"/>
    <path d="M 1767.4925537109375 1371.1800537109375 C 1458.557861328125 1402.3275146484375 1490.1610107421875 1295.44580078125 1662.5511474609375 1047.2020263671875 C 1711.4071044921875 1441.7298583984375 1700.0477294921875 1258.58056640625 1354.1158447265625 1167.7952880859375" stroke-width="50.87083053588867" fill="none" stroke="rgb(140, 142, 121)" stroke-opacity="0.91849667" stroke-linecap="round" stroke-linejoin="round"/>
    <path d="M 2186.836669921875 440.2197265625 C 2216.8798828125 493.9672546386719 2368.228515625 609.0353393554688 2514.787841796875 472.31170654296875 C 2250.4755859375 484.1787414550781 2303.566650390625 511.7413635253906 2305.8876953125 336.6721496582031" stroke-width="53.31883239746094" fill="none" stroke="rgb(223, 172, 45)" stroke-opacity="0.35012525" stroke-linecap="round" stroke-linejoin="round"/>
    <path d="M 2277.529296875 1777.58203125 C 2272.50732421875 1778.1580810546875 2202.069091796875 1738.7357177734375 2260.20263671875 1774.59130859375 C 2430.66064453125 1821.7674560546875 2346.08544921875 1777.9503173828125 2186.139892578125 1750.1783447265625 C 2414.527587890625 1880.8017578125 2344.747802734375 1906.52001953125 2161.558837890625 1812.8662109375" stroke-width="31.93050765991211" fill="none" stroke="rgb(45, 78, 117)" stroke-opacity="0.93528116" stroke-linecap="round" stroke-linejoin="round"/>
    <path d="M 2200.7509765625 1107.862060546875 C 1998.166748046875 1139.98193359375 2007.7840576171875 1062.1175537109375 2308.62255859375 1079.5247802734375 C 2173.201171875 1166.8768310546875 2172.4365234375 1151.52392578125 1976.267822265625 1146.1888427734375" stroke-width="34.7278938293457" fill="none" stroke="rgb(161, 160, 138)" stroke-opacity="1.0" stroke-linecap="round" stroke-linejoin="round"/>
    <path d="M 506.1084899902344 297.4577331542969 C 854.9583740234375 166.08743286132812 783.6162109375 94.69367218017578 513.6586303710938 246.1025848388672 C 760.8522338867188 21.160411834716797 581.1727905273438 45.21134948730469 449.0874328613281 269.0735778808594 C 448.0899353027344 148.081787109375 440.7632141113281 135.37916564941406 320.22357177734375 453.6038818359375" stroke-width="50.48871612548828" fill="none" stroke="rgb(246, 210, 152)" stroke-opacity="0.9525079" stroke-linecap="round" stroke-linejoin="round"/>
    <path d="M 1998.4761962890625 1044.0384521484375 C 2211.98486328125 1030.9979248046875 2253.1103515625 1014.8633422851562 2093.8251953125 1036.484375 C 2250.6064453125 905.003173828125 2369.119873046875 1067.008056640625 2027.8089599609375 1076.4122314453125" stroke-width="34.86909103393555" fill="none" stroke="rgb(171, 170, 147)" stroke-opacity="1.0" stroke-linecap="round" stroke-linejoin="round"/>
    <path d="M 1163.9246826171875 988.17578125 C 1151.402099609375 783.4639282226562 1281.4725341796875 819.8410034179688 906.0372314453125 824.50634765625" stroke-width="50.365787506103516" fill="none" stroke="rgb(34, 55, 92)" stroke-opacity="0.9573933" stroke-linecap="round" stroke-linejoin="round"/>
    <path d="M 1829.119140625 203.0880889892578 C 2167.62646484375 258.21234130859375 2056.303466796875 133.5496826171875 1787.335205078125 172.64952087402344 C 1861.974365234375 75.69461059570312 1812.84326171875 -6.587590217590332 2010.8818359375 135.9886016845703 C 1678.926025390625 43.32511520385742 1618.18603515625 293.7339172363281 2060.767822265625 261.4183044433594" stroke-width="48.25875473022461" fill="none" stroke="rgb(245, 207, 140)" stroke-opacity="0.88396835" stroke-linecap="round" stroke-linejoin="round"/>
    <path d="M 122.53223419189453 1910.331787109375 C -80.18473815917969 1729.8114013671875 -36.792667388916016 1752.2650146484375 161.71531677246094 1702.3201904296875" stroke-width="45.88523483276367" fill="none" stroke="rgb(98, 128, 120)" stroke-opacity="0.47693348" stroke-linecap="round" stroke-linejoin="round"/>
    <path d="M 1099.072265625 445.772705078125 C 1330.6923828125 432.290771484375 1295.6025390625 618.69775390625 982.7737426757812 600.406005859375 C 775.8223876953125 734.1145629882812 811.5239868164062 521.3082885742188 1187.34814453125 554.9338989257812" stroke-width="46.26630401611328" fill="none" stroke="rgb(35, 54, 93)" stroke-opacity="0.95591635" stroke-linecap="round" stroke-linejoin="round"/>
    <path d="M 1871.2696533203125 917.470947265625 C 1731.8951416015625 900.0980834960938 1765.830078125 905.4096069335938 1766.7554931640625 759.6478271484375 C 1873.5755615234375 901.1914672851562 1771.298583984375 891.0506591796875 2025.809326171875 894.5719604492188" stroke-width="48.148780822753906" fill="none" stroke="rgb(172, 176, 160)" stroke-opacity="1.0" stroke-linecap="round" stroke-linejoin="round"/>
    <path d="M 2208.787109375 1670.964111328125 C 2370.306396484375 1629.6839599609375 2368.266845703125 1704.768310546875 2336.1171875 1842.6512451171875" stroke-width="38.84321212768555" fill="none" stroke="rgb(44, 94, 83)" stroke-opacity="0.39727536" stroke-linecap="round" stroke-linejoin="round"/>
    <path d="M 2777.005126953125 785.1931762695312 C 2710.228515625 838.28955078125 2700.443359375 796.0711669921875 2674.55126953125 802.20458984375 C 2689.9345703125 804.0433349609375 2726.79345703125 855.5887451171875 2813.579833984375 920.4003295898438" stroke-width="8.54428768157959" fill="none" stroke="rgb(192, 174, 97)" stroke-opacity="0.3424684" stroke-linecap="round" stroke-linejoin="round"/>
    <path d="M 1104.828857421875 1162.902099609375 C 1020.0153198242188 1169.1732177734375 1017.4570922851562 1167.15478515625 956.0245971679688 1274.928466796875" stroke-width="44.83577346801758" fill="none" stroke="rgb(18, 40, 80)" stroke-opacity="0.8921406" stroke-linecap="round" stroke-linejoin="round"/>
    <path d="M 736.9000244140625 613.5432739257812 C 734.6398315429688 601.300537109375 742.3782348632812 638.1014404296875 726.1657104492188 639.6988525390625 C 748.1954956054688 644.26123046875 723.5540771484375 666.3572998046875 738.6171264648438 582.23095703125 C 711.5660400390625 536.7243041992188 672.7411499023438 550.85400390625 984.2723999023438 802.725830078125" stroke-width="61.01868438720703" fill="none" stroke="rgb(59, 73, 104)" stroke-opacity="1.0" stroke-linecap="round" stroke-linejoin="round"/>
    <path d="M 3081.975830078125 1369.8125 C 2699.84521484375 1508.76025390625 2747.095947265625 1443.2347412109375 2887.94384765625 1603.0958251953125 C 2957.724609375 1541.7501220703125 2984.50244140625 1528.790283203125 3039.410888671875 1488.4393310546875" stroke-width="43.887447357177734" fill="none" stroke="rgb(11, 69, 112)" stroke-opacity="0.75287294" stroke-linecap="round" stroke-linejoin="round"/>
    <path d="M 438.6357421875 827.759033203125 C 411.604736328125 995.4718017578125 471.98828125 917.1065063476562 222.8394012451172 943.7274169921875" stroke-width="48.061954498291016" fill="none" stroke="rgb(139, 172, 176)" stroke-opacity="0.945772" stroke-linecap="round" stroke-linejoin="round"/>
    <path d="M 674.4471435546875 1701.263671875 C 498.5529479980469 1688.7225341796875 546.163818359375 1742.08984375 656.1423950195312 1746.89990234375 C 725.7769165039062 1773.5384521484375 706.728515625 1820.628662109375 642.7844848632812 1788.74072265625" stroke-width="43.452117919921875" fill="none" stroke="rgb(78, 146, 139)" stroke-opacity="0.542308" stroke-linecap="round" stroke-linejoin="round"/>
    <path d="M 1994.21337890625 809.6732177734375 C 2023.239501953125 759.50537109375 2045.0618896484375 786.4876708984375 2006.4078369140625 770.036865234375 C 1993.2410888671875 737.4093017578125 2013.8214111328125 746.2645874023438 2021.2034912109375 755.7445678710938 C 2011.0272216796875 756.4535522460938 1934.309326171875 761.9309692382812 1946.7587890625 709.46240234375" stroke-width="5.439530849456787" fill="none" stroke="rgb(236, 200, 138)" stroke-opacity="0.36205024" stroke-linecap="round" stroke-linejoin="round"/>
    <path d="M 2052.018310546875 457.2103271484375 C 2034.5736083984375 483.4903259277344 1991.3145751953125 460.4253845214844 2051.90625 420.76776123046875" stroke-width="7.924103736877441" fill="none" stroke="rgb(188, 225, 57)" stroke-opacity="0.18362324" stroke-linecap="round" stroke-linejoin="round"/>
    <path d="M 1939.7459716796875 460.27752685546875 C 2099.89697265625 505.12457275390625 2032.9527587890625 530.0438842773438 1994.58447265625 544.88671875 C 1922.61181640625 532.785888671875 1983.6243896484375 492.6854553222656 1780.3922119140625 432.5851745605469" stroke-width="38.150516510009766" fill="none" stroke="rgb(190, 222, 39)" stroke-opacity="0.16900703" stroke-linecap="round" stroke-linejoin="round"/>
    <path d="M 376.00067138671875 1118.736572265625 C 424.48486328125 971.1610107421875 588.079345703125 1121.7603759765625 541.0147705078125 979.9179077148438 C 724.5905151367188 1021.188232421875 735.267578125 941.3622436523438 854.4627075195312 1026.310791015625" stroke-width="34.807804107666016" fill="none" stroke="rgb(80, 101, 124)" stroke-opacity="1.0" stroke-linecap="round" stroke-linejoin="round"/>
    <path d="M 697.1458129882812 2121.398681640625 C 609.501953125 2053.602783203125 656.4681396484375 2089.38330078125 738.3873901367188 2011.93798828125 C 631.4273071289062 1998.795166015625 657.5490112304688 2045.24609375 440.38934326171875 2021.8319091796875 C 698.155029296875 1965.34814453125 710.7201538085938 2036.1131591796875 595.275634765625 1924.9371337890625" stroke-width="28.003456115722656" fill="none" stroke="rgb(29, 56, 100)" stroke-opacity="0.9895444" stroke-linecap="round" stroke-linejoin="round"/>
    <path d="M 1109.65185546875 1395.8116455078125 C 1051.337646484375 1346.4530029296875 1135.6015625 1332.9459228515625 1282.080810546875 1272.9903564453125 C 1296.7215576171875 1392.727783203125 1179.361328125 1357.6898193359375 1101.412841796875 1198.5198974609375" stroke-width="46.16439437866211" fill="none" stroke="rgb(91, 134, 0)" stroke-opacity="0.13401093" stroke-linecap="round" stroke-linejoin="round"/>
    <path d="M 665.484619140625 267.2491455078125 C 704.6036376953125 394.3658752441406 741.3825073242188 293.40863037109375 798.4732055664062 187.64108276367188 C 808.3115844726562 366.7835693359375 755.5179443359375 287.2659606933594 765.2006225585938 292.1226806640625" stroke-width="38.33822250366211" fill="none" stroke="rgb(205, 160, 91)" stroke-opacity="0.60663265" stroke-linecap="round" stroke-linejoin="round"/>
    <path d="M 2669.961181640625 1800.7535400390625 C 2316.26123046875 1728.53271484375 2254.822265625 1810.501708984375 2613.92333984375 1821.75341796875 C 2330.379638671875 1903.8017578125 2404.17236328125 1755.6949462890625 2378.823486328125 1911.8475341796875 C 2247.5986328125 1884.9150390625 2235.69384765625 1859.3519287109375 2346.436279296875 1974.180419921875" stroke-width="40.19894790649414" fill="none" stroke="rgb(63, 101, 134)" stroke-opacity="0.97754616" stroke-linecap="round" stroke-linejoin="round"/>
    <path d="M 2123.11865234375 1135.99267578125 C 1971.809814453125 1112.7205810546875 2040.9346923828125 1081.66162109375 1933.8409423828125 996.5109252929688 C 1958.2318115234375 1284.7862548828125 1965.3609619140625 1249.6263427734375 1848.1798095703125 996.575439453125" stroke-width="35.880859375" fill="none" stroke="rgb(157, 158, 137)" stroke-opacity="1.0" stroke-linecap="round" stroke-linejoin="round"/>
    <path d="M 479.902099609375 1321.1712646484375 C 209.36380004882812 1186.1519775390625 199.3439483642578 1229.95947265625 418.6260070800781 1325.1441650390625 C 464.564697265625 979.9290771484375 298.0417175292969 958.2071533203125 346.15130615234375 1150.415283203125" stroke-width="34.3216438293457" fill="none" stroke="rgb(30, 55, 78)" stroke-opacity="0.62985337" stroke-linecap="round" stroke-linejoin="round"/>
    <path d="M 1279.008056640625 2085.4609375 C 968.6469116210938 1809.59326171875 1073.6676025390625 1826.5382080078125 1143.839599609375 1945.930908203125 C 1211.977783203125 1887.4263916015625 1195.1600341796875 2000.837890625 1355.9442138671875 2088.280029296875" stroke-width="39.977630615234375" fill="none" stroke="rgb(8, 60, 101)" stroke-opacity="0.6769178" stroke-linecap="round" stroke-linejoin="round"/>
    <path d="M 9.511245727539062 1270.41064453125 C 23.293190002441406 1167.9022216796875 206.9646759033203 1143.6634521484375 101.87962341308594 1274.2457275390625 C 162.35977172851562 1284.4984130859375 182.7743377685547 1227.1641845703125 190.7263946533203 1211.6806640625" stroke-width="39.21732711791992" fill="none" stroke="rgb(0, 57, 56)" stroke-opacity="0.39734575" stroke-linecap="round" stroke-linejoin="round"/>
    <path d="M 1782.1995849609375 536.5469970703125 C 1977.590087890625 611.816650390625 1970.5364990234375 532.068359375 2088.1181640625 688.5897216796875 C 1846.41845703125 610.5571899414062 1760.7889404296875 562.0326538085938 1949.0009765625 725.6490478515625" stroke-width="42.538063049316406" fill="none" stroke="rgb(193, 193, 9)" stroke-opacity="0.16717845" stroke-linecap="round" stroke-linejoin="round"/>
    <path d="M 306.97412109375 988.1758422851562 C 546.6118774414062 955.6810913085938 604.9464721679688 1020.2794799804688 336.4526062011719 1021.1781005859375" stroke-width="39.83363723754883" fill="none" stroke="rgb(34, 66, 103)" stroke-opacity="0.8818878" stroke-linecap="round" stroke-linejoin="round"/>
    <path d="M 206.20169067382812 973.2811889648438 C 3.384565830230713 927.133056640625 -54.16411590576172 767.9756469726562 90.87064361572266 739.2910766601562 C 49.01656723022461 968.5839233398438 -50.52605056762695 738.6329345703125 198.9463348388672 716.2679443359375" stroke-width="34.05160903930664" fill="none" stroke="rgb(35, 75, 78)" stroke-opacity="0.531662" stroke-linecap="round" stroke-linejoin="round"/>
    <path d="M 1611.8497314453125 1090.545166015625 C 1383.216064453125 1171.8905029296875 1250.863037109375 1078.1954345703125 1329.7449951171875 1020.7471923828125 C 1607.842041015625 1029.13427734375 1627.3831787109375 1110.730712890625 1350.8701171875 1064.44091796875" stroke-width="46.05366516113281" fill="none" stroke="rgb(154, 155, 134)" stroke-opacity="0.9678273" stroke-linecap="round" stroke-linejoin="round"/>
    <path d="M 899.3641357421875 977.1215209960938 C 865.3340454101562 937.2987670898438 816.549072265625 1213.132568359375 873.8097534179688 1318.9874267578125 C 926.4763793945312 966.177978515625 998.3500366210938 1011.0452270507812 917.880126953125 1282.38232421875" stroke-width="41.979705810546875" fill="none" stroke="rgb(28, 51, 95)" stroke-opacity="0.92667747" stroke-linecap="round" stroke-linejoin="round"/>
    <path d="M 2706.55810546875 1201.0819091796875 C 2411.79638671875 1231.83642578125 2348.223876953125 1406.6148681640625 2212.710693359375 1321.765625 C 2590.681396484375 1227.88427734375 2520.29052734375 1175.633544921875 2223.9091796875 1276.1065673828125 C 2234.763671875 1195.618408203125 2395.916015625 1162.3740234375 2582.98681640625 1216.72900390625" stroke-width="44.6977424621582" fill="none" stroke="rgb(160, 159, 137)" stroke-opacity="0.9999616" stroke-linecap="round" stroke-linejoin="round"/>
    <path d="M 1620.4837646484375 27.877002716064453 C 1389.88232421875 20.90955924987793 1334.8431396484375 67.01262664794922 1346.967041015625 261.52655029296875 C 1503.859375 -64.63610076904297 1528.20361328125 60.6963996887207 1397.9287109375 270.3184509277344 C 1555.2803955078125 171.0765838623047 1550.9158935546875 78.72713470458984 1782.546875 33.85691452026367" stroke-width="53.61724853515625" fill="none" stroke="rgb(242, 207, 149)" stroke-opacity="0.96589935" stroke-linecap="round" stroke-linejoin="round"/>
    <path d="M 2803.052001953125 1588.7703857421875 C 2974.296630859375 1715.6036376953125 3068.990234375 1555.4603271484375 3116.72607421875 1624.861572265625" stroke-width="41.25023651123047" fill="none" stroke="rgb(58, 154, 169)" stroke-opacity="0.5292936" stroke-linecap="round" stroke-linejoin="round"/>
    <path d="M 737.2599487304688 1993.0963134765625 C 684.2821044921875 1960.3306884765625 536.911865234375 2014.789794921875 571.6531982421875 1948.99658203125 C 549.368408203125 1919.1871337890625 517.6765747070312 1910.89697265625 520.0654907226562 2010.7813720703125" stroke-width="25.434581756591797" fill="none" stroke="rgb(40, 57, 95)" stroke-opacity="0.9858513" stroke-linecap="round" stroke-linejoin="round"/>
    <path d="M 3093.0546875 1783.92138671875 C 2843.95849609375 1783.3382568359375 2736.98046875 1882.5062255859375 2953.096923828125 1822.6002197265625 C 2776.716064453125 1843.7767333984375 2709.39697265625 1898.738525390625 2952.3740234375 1863.6524658203125 C 3163.031982421875 1776.4814453125 2960.0576171875 1975.22705078125 3095.473388671875 1902.693359375" stroke-width="34.66642379760742" fill="none" stroke="rgb(41, 83, 128)" stroke-opacity="0.9850141" stroke-linecap="round" stroke-linejoin="round"/>
    <path d="M 1480.7586669921875 1241.7911376953125 C 1169.21533203125 1215.8134765625 1217.08740234375 1012.1509399414062 1217.754150390625 1223.711669921875" stroke-width="44.291072845458984" fill="none" stroke="rgb(94, 110, 117)" stroke-opacity="0.9622647" stroke-linecap="round" stroke-linejoin="round"/>
    <path d="M 750.1593627929688 1070.4871826171875 C 670.1975708007812 1070.554443359375 755.6029052734375 1088.86279296875 853.9260864257812 1124.6453857421875 C 993.9730834960938 1108.6976318359375 967.718505859375 1039.405029296875 752.5297241210938 1109.10693359375 C 778.0739135742188 1229.1815185546875 838.9058837890625 1194.11376953125 1134.6649169921875 1158.677001953125" stroke-width="37.370418548583984" fill="none" stroke="rgb(56, 85, 106)" stroke-opacity="0.65159625" stroke-linecap="round" stroke-linejoin="round"/>
    <path d="M 2322.914794921875 1644.9339599609375 C 2675.66552734375 1618.15966796875 2652.33837890625 1468.505615234375 2656.2509765625 1731.830322265625" stroke-width="55.988922119140625" fill="none" stroke="rgb(0, 66, 99)" stroke-opacity="0.60701066" stroke-linecap="round" stroke-linejoin="round"/>
    <path d="M 1718.044189453125 779.59521484375 C 1669.3707275390625 681.3302612304688 1639.571044921875 768.6182861328125 1787.40966796875 694.4539794921875 C 1739.039794921875 792.579345703125 1651.9422607421875 743.6719360351562 1677.9046630859375 745.1340942382812" stroke-width="33.94271469116211" fill="none" stroke="rgb(93, 120, 102)" stroke-opacity="0.5429342" stroke-linecap="round" stroke-linejoin="round"/>
    <path d="M 73.85246276855469 1011.1878662109375 C 181.45526123046875 1076.30908203125 135.62318420410156 1111.6544189453125 359.0401611328125 1049.275146484375 C 69.65901947021484 1021.1326293945312 41.793670654296875 1101.882080078125 238.20982360839844 1205.2745361328125" stroke-width="31.422504425048828" fill="none" stroke="rgb(140, 153, 124)" stroke-opacity="0.6705063" stroke-linecap="round" stroke-linejoin="round"/>
    <path d="M 2207.134765625 1732.8966064453125 C 2234.275634765625 1741.0936279296875 2146.005126953125 1709.8182373046875 2172.932373046875 1763.9468994140625 C 2167.397705078125 1725.95068359375 2096.101318359375 1749.0643310546875 2202.805908203125 1672.7113037109375 C 2092.291259765625 1681.9310302734375 1988.6185302734375 1688.8489990234375 1787.02587890625 1627.6298828125" stroke-width="18.848417282104492" fill="none" stroke="rgb(158, 181, 172)" stroke-opacity="0.8621798" stroke-linecap="round" stroke-linejoin="round"/>
    <path d="M 2767.671630859375 478.493408203125 C 2546.026611328125 395.1316833496094 2556.419921875 212.7144012451172 2650.072265625 1.3826508522033691 C 2655.37451171875 427.9820556640625 2618.389892578125 399.3571472167969 2829.122314453125 155.14974975585938" stroke-width="58.173316955566406" fill="none" stroke="rgb(245, 208, 143)" stroke-opacity="0.91404474" stroke-linecap="round" stroke-linejoin="round"/>
    <path d="M 188.50743103027344 504.0361328125 C 542.3056030273438 621.0699462890625 525.5999145507812 488.07379150390625 280.8442077636719 494.2667236328125 C 281.0228576660156 318.6502990722656 281.1495666503906 255.6580810546875 257.9075927734375 270.1784973144531 C 367.4117126464844 453.4058837890625 391.23614501953125 290.848388671875 165.78419494628906 107.07794952392578" stroke-width="44.529457092285156" fill="none" stroke="rgb(220, 195, 153)" stroke-opacity="1.0" stroke-linecap="round" stroke-linejoin="round"/>
    <path d="M 2832.667724609375 1648.016357421875 C 2718.956787109375 1717.661376953125 2772.310302734375 1748.41357421875 2744.669189453125 1643.9005126953125" stroke-width="51.20720291137695" fill="none" stroke="rgb(46, 73, 113)" stroke-opacity="1.0" stroke-linecap="round" stroke-linejoin="round"/>
    <path d="M 791.9382934570312 356.15338134765625 C 751.3491821289062 444.5516662597656 692.4600830078125 472.7001953125 548.2434692382812 439.8781433105469 C 674.1672973632812 336.53009033203125 664.66845703125 352.1957702636719 828.1353759765625 38.56532669067383" stroke-width="47.36986541748047" fill="none" stroke="rgb(233, 216, 164)" stroke-opacity="0.6905285" stroke-linecap="round" stroke-linejoin="round"/>
    <path d="M 2524.248779296875 1888.202880859375 C 2392.60009765625 1938.1678466796875 2332.991455078125 1978.2879638671875 2487.305908203125 1908.1624755859375" stroke-width="34.978118896484375" fill="none" stroke="rgb(75, 113, 132)" stroke-opacity="0.90499204" stroke-linecap="round" stroke-linejoin="round"/>
    <path d="M 2697.917236328125 1642.8817138671875 C 2706.746337890625 1808.2298583984375 2813.04296875 1810.005859375 2743.453857421875 1843.0909423828125 C 2773.8828125 1782.266357421875 2742.344970703125 1773.573486328125 2755.83935546875 1802.0413818359375 C 2810.61572265625 1863.836669921875 2870.334716796875 1872.3275146484375 2708.28662109375 1862.4859619140625" stroke-width="47.4056510925293" fill="none" stroke="rgb(24, 65, 103)" stroke-opacity="0.69681406" stroke-linecap="round" stroke-linejoin="round"/>
    <path d="M 2324.86376953125 1874.8934326171875 C 2478.177978515625 1800.512451171875 2397.924560546875 1839.574462890625 2251.080810546875 1772.3968505859375" stroke-width="26.38245391845703" fill="none" stroke="rgb(39, 60, 98)" stroke-opacity="0.9065913" stroke-linecap="round" stroke-linejoin="round"/>
    <path d="M 1688.6695556640625 1773.9527587890625 C 1943.699951171875 1952.98095703125 1861.4901123046875 1861.8218994140625 1657.163818359375 1680.009033203125 C 1649.15576171875 1866.2099609375 1546.9097900390625 1806.239013671875 1818.431884765625 1925.4888916015625 C 1614.1883544921875 1757.5181884765625 1562.15234375 1662.0810546875 1797.67724609375 1809.38330078125" stroke-width="37.620216369628906" fill="none" stroke="rgb(64, 95, 123)" stroke-opacity="1.0" stroke-linecap="round" stroke-linejoin="round"/>
    <path d="M 241.10707092285156 1431.677978515625 C 450.7269287109375 1598.067626953125 336.1453857421875 1511.6593017578125 524.1820678710938 1540.10888671875" stroke-width="36.597286224365234" fill="none" stroke="rgb(54, 68, 80)" stroke-opacity="0.7873584" stroke-linecap="round" stroke-linejoin="round"/>
    <path d="M 1088.3394775390625 350.1094665527344 C 1170.9954833984375 397.5123291015625 1155.9449462890625 333.4010009765625 1266.47021484375 270.09759521484375 C 1382.5673828125 245.5696258544922 1187.788330078125 185.91824340820312 1147.5643310546875 342.8219299316406" stroke-width="37.694881439208984" fill="none" stroke="rgb(112, 147, 136)" stroke-opacity="0.6775923" stroke-linecap="round" stroke-linejoin="round"/>
    <path d="M 2400.106201171875 1279.0628662109375 C 2456.6982421875 1502.87060546875 2376.38427734375 1461.844482421875 2519.276123046875 1430.0592041015625" stroke-width="40.86695098876953" fill="none" stroke="rgb(151, 151, 131)" stroke-opacity="1.0" stroke-linecap="round" stroke-linejoin="round"/>
    <path d="M 739.3604125976562 2035.1580810546875 C 669.0743408203125 2129.092041015625 767.7655639648438 2136.029052734375 809.6663818359375 2071.0068359375 C 1017.408935546875 2001.275634765625 1064.7740478515625 2108.4716796875 810.833740234375 2089.64697265625" stroke-width="40.019412994384766" fill="none" stroke="rgb(87, 109, 128)" stroke-opacity="1.0" stroke-linecap="round" stroke-linejoin="round"/>
    <path d="M 1053.4285888671875 1764.9783935546875 C 968.1364135742188 1943.6639404296875 1207.2078857421875 1695.4456787109375 1118.4827880859375 1739.6591796875" stroke-width="49.18462371826172" fill="none" stroke="rgb(124, 170, 171)" stroke-opacity="0.84203774" stroke-linecap="round" stroke-linejoin="round"/>
    <path d="M 2390.6259765625 1889.4915771484375 C 2563.66259765625 1897.49560546875 2571.37890625 1843.3321533203125 2609.94287109375 1830.22216796875" stroke-width="41.353179931640625" fill="none" stroke="rgb(61, 101, 131)" stroke-opacity="0.9424577" stroke-linecap="round" stroke-linejoin="round"/>
    <path d="M 233.1146697998047 1187.210205078125 C 182.30587768554688 1274.5528564453125 298.4745178222656 1262.16064453125 200.31748962402344 1254.8853759765625" stroke-width="23.6242733001709" fill="none" stroke="rgb(0, 45, 49)" stroke-opacity="0.472377" stroke-linecap="round" stroke-linejoin="round"/>
    <path d="M 239.7821807861328 769.73779296875 C 308.4691467285156 863.9892578125 421.5682373046875 940.2875366210938 389.17803955078125 805.65234375" stroke-width="44.732078552246094" fill="none" stroke="rgb(183, 207, 197)" stroke-opacity="1.0" stroke-linecap="round" stroke-linejoin="round"/>
    <path d="M 2243.09716796875 1008.935302734375 C 2366.071533203125 943.566162109375 2241.82421875 943.1160888671875 2276.506103515625 724.3709106445312 C 2379.522705078125 829.3074951171875 2270.146728515625 919.8272094726562 2416.467041015625 1018.3743286132812 C 2322.065185546875 794.3112182617188 2390.3759765625 821.9345703125 2561.5400390625 1032.995361328125" stroke-width="51.932350158691406" fill="none" stroke="rgb(203, 195, 155)" stroke-opacity="0.663283" stroke-linecap="round" stroke-linejoin="round"/>
    <path d="M 1908.787109375 1277.1226806640625 C 1600.532470703125 1211.1810302734375 1621.367431640625 1117.0531005859375 1937.490966796875 1246.2086181640625" stroke-width="45.491981506347656" fill="none" stroke="rgb(147, 149, 129)" stroke-opacity="0.9922977" stroke-linecap="round" stroke-linejoin="round"/>
    <path d="M 27.468212127685547 450.8731689453125 C 250.1184844970703 40.939422607421875 77.35948181152344 11.56006908416748 12.667475700378418 387.1015625" stroke-width="59.57258987426758" fill="none" stroke="rgb(234, 202, 152)" stroke-opacity="1.0" stroke-linecap="round" stroke-linejoin="round"/>
    <path d="M 1018.5518188476562 1566.0614013671875 C 990.4207763671875 1733.5885009765625 752.1533203125 1731.968505859375 900.9841918945312 1539.6849365234375 C 891.1451416015625 1637.1053466796875 919.7197265625 1719.749267578125 1075.0281982421875 1579.8406982421875" stroke-width="43.895999908447266" fill="none" stroke="rgb(50, 123, 128)" stroke-opacity="0.58458567" stroke-linecap="round" stroke-linejoin="round"/>
    <path d="M 1308.3966064453125 1368.1241455078125 C 1242.0780029296875 934.5110473632812 1236.4664306640625 938.6278686523438 1310.8472900390625 1182.6715087890625" stroke-width="47.793182373046875" fill="none" stroke="rgb(60, 100, 128)" stroke-opacity="0.8450554" stroke-linecap="round" stroke-linejoin="round"/>
    <path d="M 1144.7032470703125 1188.2652587890625 C 1223.0509033203125 1081.792236328125 1023.1837768554688 1137.439453125 1021.8309326171875 1026.6961669921875 C 1186.712646484375 1124.179931640625 1272.6876220703125 1143.298828125 1088.217529296875 979.5853881835938 C 976.730712890625 1055.9730224609375 1084.201171875 1171.135498046875 865.2464599609375 1154.89501953125" stroke-width="35.15361785888672" fill="none" stroke="rgb(42, 65, 102)" stroke-opacity="0.98578304" stroke-linecap="round" stroke-linejoin="round"/>
    <path d="M 1994.3682861328125 1134.00634765625 C 1938.1546630859375 1305.55078125 1970.398193359375 1343.4666748046875 2140.488037109375 1237.6031494140625 C 1939.4871826171875 1236.6763916015625 1928.747802734375 1343.0135498046875 2003.44873046875 1418.3868408203125 C 2299.58642578125 1283.5023193359375 2389.281494140625 1319.3712158203125 2062.814208984375 1418.7591552734375" stroke-width="37.63080596923828" fill="none" stroke="rgb(150, 151, 132)" stroke-opacity="1.0" stroke-linecap="round" stroke-linejoin="round"/>
    <path d="M 833.8116455078125 354.1639404296875 C 826.1193237304688 291.65167236328125 864.1995849609375 251.88116455078125 805.365966796875 284.2786560058594" stroke-width="6.733169078826904" fill="none" stroke="rgb(233, 245, 163)" stroke-opacity="0.33535695" stroke-linecap="round" stroke-linejoin="round"/>
    <path d="M 134.52621459960938 460.3399963378906 C 386.80023193359375 683.8472900390625 336.4113464355469 673.728515625 150.6654510498047 628.2813720703125 C 279.1533203125 478.3945007324219 119.59520721435547 505.29638671875 103.54418182373047 658.41015625 C 292.46978759765625 723.2169189453125 270.94891357421875 723.9402465820312 383.608642578125 572.0489501953125" stroke-width="48.25724792480469" fill="none" stroke="rgb(194, 176, 143)" stroke-opacity="1.0" stroke-linecap="round" stroke-linejoin="round"/>
    <path d="M 1495.0181884765625 392.52191162109375 C 1646.98583984375 420.68792724609375 1549.9605712890625 477.1677551269531 1488.03466796875 459.5745849609375 C 1431.9720458984375 313.05169677734375 1476.1177978515625 339.0338439941406 1674.9854736328125 413.8479919433594 C 1558.9896240234375 420.8559265136719 1579.03076171875 449.2463684082031 1593.6473388671875 510.3290100097656" stroke-width="37.65205001831055" fill="none" stroke="rgb(172, 154, 108)" stroke-opacity="0.6764897" stroke-linecap="round" stroke-linejoin="round"/>
    <path d="M 1495.72509765625 1931.1710205078125 C 1617.543212890625 2076.338134765625 1730.94287109375 2092.751708984375 1931.5382080078125 2082.1484375 C 1785.79345703125 2055.1611328125 1828.9368896484375 2053.364501953125 1857.1181640625 2012.965087890625 C 1882.048583984375 2022.673095703125 1778.054931640625 2009.0938720703125 1797.808837890625 2011.4732666015625" stroke-width="52.53147888183594" fill="none" stroke="rgb(70, 87, 111)" stroke-opacity="1.0" stroke-linecap="round" stroke-linejoin="round"/>
    <path d="M 2021.64599609375 1806.430419921875 C 2197.360107421875 2016.525634765625 2154.58056640625 2068.4091796875 1989.5645751953125 2064.72607421875 C 2135.374755859375 1837.68115234375 1986.9599609375 1945.44921875 1747.0048828125 1662.7977294921875" stroke-width="56.03860855102539" fill="none" stroke="rgb(35, 51, 65)" stroke-opacity="0.6937904" stroke-linecap="round" stroke-linejoin="round"/>
    <path d="M 2481.3564453125 2127.4326171875 C 2481.800048828125 2122.96533203125 2410.42626953125 2148.014404296875 2555.5771484375 2123.796630859375 C 2558.378173828125 2023.1629638671875 2510.357177734375 2085.396728515625 2316.928955078125 2058.527587890625 C 2357.240478515625 1991.60693359375 2457.681640625 2063.43701171875 2615.517822265625 2025.8607177734375" stroke-width="35.26480484008789" fill="none" stroke="rgb(33, 74, 114)" stroke-opacity="0.84722185" stroke-linecap="round" stroke-linejoin="round"/>
    <path d="M 1328.3546142578125 2023.379638671875 C 1487.2628173828125 2113.46630859375 1440.472412109375 2113.3349609375 1102.4964599609375 2065.2080078125" stroke-width="44.64305114746094" fill="none" stroke="rgb(0, 33, 70)" stroke-opacity="0.65409714" stroke-linecap="round" stroke-linejoin="round"/>
    <path d="M 846.6074829101562 237.14675903320312 C 1009.19482421875 166.60076904296875 913.3644409179688 186.35955810546875 1088.6630859375 177.47134399414062 C 915.6856079101562 109.61128234863281 807.6892700195312 82.89141845703125 813.400634765625 230.81845092773438 C 929.4566650390625 106.58290100097656 1006.074462890625 126.41340637207031 1276.9110107421875 99.80027770996094" stroke-width="47.09439468383789" fill="none" stroke="rgb(235, 198, 146)" stroke-opacity="1.0" stroke-linecap="round" stroke-linejoin="round"/>
    <path d="M 1674.4591064453125 360.49749755859375 C 1379.763671875 286.0508728027344 1365.2672119140625 169.65138244628906 1700.8929443359375 315.7656555175781" stroke-width="49.40399932861328" fill="none" stroke="rgb(234, 194, 125)" stroke-opacity="0.76514053" stroke-linecap="round" stroke-linejoin="round"/>
    <path d="M 985.2816162109375 1105.2564697265625 C 874.1171264648438 1010.7262573242188 913.0489501953125 1016.3123168945312 924.6771240234375 1139.8604736328125 C 850.469970703125 979.7474975585938 830.8018798828125 1044.0283203125 810.6083984375 1069.107177734375" stroke-width="21.32014274597168" fill="none" stroke="rgb(25, 40, 77)" stroke-opacity="0.48396826" stroke-linecap="round" stroke-linejoin="round"/>
    <path d="M 946.8165893554688 1907.0072021484375 C 799.3340454101562 1945.8634033203125 860.03125 1872.049072265625 879.8367309570312 1879.3143310546875 C 898.7338256835938 1837.944580078125 954.0856323242188 1845.699951171875 732.5828247070312 1855.96240234375" stroke-width="34.42231750488281" fill="none" stroke="rgb(118, 169, 165)" stroke-opacity="0.724123" stroke-linecap="round" stroke-linejoin="round"/>
    <path d="M 242.11231994628906 1317.6365966796875 C 485.1041564941406 1448.938720703125 465.5453186035156 1519.238037109375 541.5576171875 1352.99169921875" stroke-width="42.429229736328125" fill="none" stroke="rgb(138, 139, 107)" stroke-opacity="0.76777536" stroke-linecap="round" stroke-linejoin="round"/>
    <path d="M 2344.02783203125 776.9091186523438 C 2620.233642578125 822.0692749023438 2636.491943359375 813.1318969726562 2662.926025390625 764.6404418945312 C 2675.1484375 708.4674072265625 2728.478515625 828.6713256835938 2926.66455078125 988.5817260742188" stroke-width="50.97126770019531" fill="none" stroke="rgb(226, 218, 180)" stroke-opacity="0.7655868" stroke-linecap="round" stroke-linejoin="round"/>
    <path d="M 1394.6502685546875 943.33544921875 C 1621.6162109375 1081.059326171875 1509.2127685546875 1045.88623046875 1770.842529296875 971.7825927734375" stroke-width="38.70572280883789" fill="none" stroke="rgb(167, 167, 144)" stroke-opacity="0.9158525" stroke-linecap="round" stroke-linejoin="round"/>
    <path d="M 482.75762939453125 1081.844482421875 C 319.4356994628906 1102.784423828125 535.6228637695312 1089.8978271484375 366.69903564453125 1142.0633544921875 C 618.499267578125 1174.049072265625 615.6326293945312 1153.8031005859375 550.1030883789062 1201.4310302734375 C 729.0286865234375 1063.1614990234375 809.1261596679688 1150.4815673828125 558.1140747070312 1212.3868408203125" stroke-width="38.752071380615234" fill="none" stroke="rgb(37, 64, 96)" stroke-opacity="0.8345766" stroke-linecap="round" stroke-linejoin="round"/>
    <path d="M 2280.082275390625 -5.563999652862549 C 2096.609619140625 136.17401123046875 2138.416259765625 82.34351348876953 2342.462890625 114.18209838867188" stroke-width="45.17498016357422" fill="none" stroke="rgb(242, 193, 104)" stroke-opacity="0.6713131" stroke-linecap="round" stroke-linejoin="round"/>
    <path d="M 1265.2103271484375 1564.2625732421875 C 1396.6981201171875 1572.2841796875 1328.0057373046875 1699.082275390625 1438.7890625 1633.845458984375 C 1439.94140625 1517.0802001953125 1335.0765380859375 1468.6561279296875 1334.84716796875 1401.2005615234375" stroke-width="38.67829132080078" fill="none" stroke="rgb(174, 190, 181)" stroke-opacity="1.0" stroke-linecap="round" stroke-linejoin="round"/>
    <path d="M 1616.1834716796875 1139.4169921875 C 1844.8787841796875 1358.5499267578125 1932.1517333984375 1471.912353515625 1779.1917724609375 1490.8309326171875 C 1776.583251953125 1226.1268310546875 1820.4954833984375 1367.1231689453125 1566.4703369140625 1308.7718505859375" stroke-width="50.64358901977539" fill="none" stroke="rgb(143, 145, 126)" stroke-opacity="1.0" stroke-linecap="round" stroke-linejoin="round"/>
    <path d="M 1063.2459716796875 2037.9105224609375 C 1003.5070190429688 1978.0018310546875 1004.0258178710938 2073.680419921875 1055.9998779296875 2066.62255859375" stroke-width="36.61506271362305" fill="none" stroke="rgb(58, 88, 117)" stroke-opacity="0.990973" stroke-linecap="round" stroke-linejoin="round"/>
    <path d="M 598.2975463867188 1320.718994140625 C 573.9005737304688 1423.2197265625 445.2151184082031 1490.654052734375 774.5210571289062 1369.204833984375 C 585.1392211914062 1311.2474365234375 597.759033203125 1484.4881591796875 404.6161804199219 1480.277587890625" stroke-width="43.3599739074707" fill="none" stroke="rgb(91, 107, 116)" stroke-opacity="1.0" stroke-linecap="round" stroke-linejoin="round"/>
    <path d="M 1258.555419921875 781.1917724609375 C 1007.9738159179688 780.5406494140625 910.9380493164062 728.816162109375 900.4827880859375 678.7377319335938 C 1338.740234375 794.29736328125 1438.7799072265625 692.2716064453125 1089.620849609375 673.66943359375 C 1484.436767578125 619.9457397460938 1448.6697998046875 518.9573364257812 949.0906982421875 668.2058715820312" stroke-width="48.897377014160156" fill="none" stroke="rgb(40, 66, 105)" stroke-opacity="1.0" stroke-linecap="round" stroke-linejoin="round"/>
    <path d="M 714.8540649414062 1443.6324462890625 C 544.3192749023438 1600.2806396484375 470.9248962402344 1505.2279052734375 451.3239440917969 1497.946044921875 C 549.3881225585938 1514.4447021484375 507.7361145019531 1465.0880126953125 641.5938110351562 1433.1082763671875 C 600.3547973632812 1557.0130615234375 462.07598876953125 1503.5751953125 602.8123779296875 1477.6229248046875" stroke-width="33.28042984008789" fill="none" stroke="rgb(128, 136, 121)" stroke-opacity="1.0" stroke-linecap="round" stroke-linejoin="round"/>
    <path d="M 2726.830810546875 103.83660125732422 C 2948.824462890625 -47.39344787597656 2996.59423828125 3.711878538131714 2743.635498046875 158.44515991210938 C 2774.9169921875 -70.08740234375 2637.0458984375 -39.46965026855469 2713.0595703125 238.29664611816406" stroke-width="50.432395935058594" fill="none" stroke="rgb(246, 212, 149)" stroke-opacity="0.96803904" stroke-linecap="round" stroke-linejoin="round"/>
    <path d="M 2217.65869140625 1891.60986328125 C 1919.4444580078125 1761.912841796875 1992.9873046875 1783.6739501953125 2166.589599609375 1741.9652099609375" stroke-width="42.430877685546875" fill="none" stroke="rgb(0, 18, 67)" stroke-opacity="0.3300189" stroke-linecap="round" stroke-linejoin="round"/>
    <path d="M 2630.230224609375 2048.126708984375 C 2850.664306640625 1977.443359375 2831.179931640625 1848.79541015625 2587.825439453125 2005.254150390625 C 2327.985595703125 2041.3062744140625 2453.619384765625 2003.400634765625 2532.9853515625 2007.4803466796875" stroke-width="41.615570068359375" fill="none" stroke="rgb(11, 92, 148)" stroke-opacity="0.8481146" stroke-linecap="round" stroke-linejoin="round"/>
    <path d="M 1386.966796875 704.6958618164062 C 1499.86474609375 1035.898193359375 1484.6656494140625 969.8568725585938 1203.7420654296875 990.638427734375 C 1415.4088134765625 750.98876953125 1497.6016845703125 826.711181640625 1309.166259765625 953.61865234375" stroke-width="53.26291275024414" fill="none" stroke="rgb(149, 152, 110)" stroke-opacity="0.499714" stroke-linecap="round" stroke-linejoin="round"/>
    <path d="M 1083.152099609375 267.70538330078125 C 1142.119873046875 329.3343811035156 1062.30908203125 314.9412841796875 1005.1356201171875 351.27362060546875 C 984.136474609375 287.0957946777344 897.6279296875 262.8660888671875 842.1610107421875 327.9358215332031" stroke-width="25.221012115478516" fill="none" stroke="rgb(245, 249, 222)" stroke-opacity="0.96752214" stroke-linecap="round" stroke-linejoin="round"/>
    <path d="M 1860.614501953125 1197.87255859375 C 1775.2178955078125 1092.295166015625 1771.4365234375 947.4199829101562 1833.2586669921875 958.3828125 C 1828.0528564453125 1121.1175537109375 1859.3431396484375 1076.42919921875 1940.5482177734375 1303.2596435546875" stroke-width="42.15633010864258" fill="none" stroke="rgb(158, 158, 138)" stroke-opacity="1.0" stroke-linecap="round" stroke-linejoin="round"/>
    <path d="M 1992.349365234375 1934.4022216796875 C 1772.61328125 1770.015625 1863.39404296875 1817.983154296875 1970.7442626953125 2118.1669921875" stroke-width="53.328369140625" fill="none" stroke="rgb(28, 40, 27)" stroke-opacity="0.50174224" stroke-linecap="round" stroke-linejoin="round"/>
    <path d="M 2600.69482421875 29.092315673828125 C 2398.5146484375 88.7995834350586 2417.68603515625 165.5874786376953 2229.89208984375 38.3050422668457 C 2567.247314453125 -29.858253479003906 2622.754150390625 61.73280334472656 2306.00634765625 56.719573974609375" stroke-width="39.24291229248047" fill="none" stroke="rgb(245, 211, 147)" stroke-opacity="0.91855556" stroke-linecap="round" stroke-linejoin="round"/>
    <path d="M 2377.141845703125 68.1781234741211 C 2375.840087890625 293.6872253417969 2232.5966796875 238.98837280273438 2578.015625 81.54509735107422 C 2511.318603515625 302.63702392578125 2294.363525390625 179.4838409423828 2339.688720703125 228.09011840820312" stroke-width="57.114898681640625" fill="none" stroke="rgb(246, 214, 154)" stroke-opacity="1.0" stroke-linecap="round" stroke-linejoin="round"/>
    <path d="M 472.3298034667969 1121.86865234375 C 667.8652954101562 1118.349609375 542.730712890625 1070.789794921875 627.1041259765625 1086.6400146484375 C 605.4986572265625 952.1923828125 529.1946411132812 890.61865234375 513.9129638671875 1095.3343505859375" stroke-width="44.50477600097656" fill="none" stroke="rgb(141, 178, 181)" stroke-opacity="1.0" stroke-linecap="round" stroke-linejoin="round"/>
    <path d="M 2997.255859375 -1.9778584241867065 C 2977.843994140625 47.94905090332031 3079.72216796875 88.68988800048828 2962.186767578125 300.96710205078125" stroke-width="51.503021240234375" fill="none" stroke="rgb(246, 214, 154)" stroke-opacity="0.98191255" stroke-linecap="round" stroke-linejoin="round"/>
    <path d="M 1655.4586181640625 1236.3421630859375 C 1387.287109375 1115.978515625 1467.9898681640625 1036.9791259765625 1510.766845703125 1346.3128662109375 C 1289.0107421875 1296.568603515625 1216.67626953125 1192.59521484375 1479.168212890625 1290.489990234375" stroke-width="48.523555755615234" fill="none" stroke="rgb(127, 133, 124)" stroke-opacity="1.0" stroke-linecap="round" stroke-linejoin="round"/>
    <path d="M 2360.421142578125 1843.986572265625 C 2221.9033203125 1831.821533203125 2270.50537109375 1823.393798828125 2220.783447265625 1809.96875 C 2126.585693359375 1797.6142578125 2080.296142578125 1782.0780029296875 2126.961181640625 1793.6566162109375 C 2101.3896484375 1794.864990234375 2074.25048828125 1759.456298828125 2081.071533203125 1768.4586181640625" stroke-width="26.866012573242188" fill="none" stroke="rgb(31, 67, 106)" stroke-opacity="0.7329976" stroke-linecap="round" stroke-linejoin="round"/>
    <path d="M 372.15673828125 1448.9271240234375 C 221.8101348876953 1443.549072265625 393.27569580078125 1421.2021484375 432.8584289550781 1521.86767578125 C 200.63027954101562 1410.8702392578125 314.4816589355469 1541.543701171875 503.6732482910156 1387.6771240234375" stroke-width="30.751419067382812" fill="none" stroke="rgb(147, 145, 116)" stroke-opacity="0.9284024" stroke-linecap="round" stroke-linejoin="round"/>
    <path d="M 2457.34765625 1111.553466796875 C 2546.723388671875 943.511474609375 2495.343017578125 1078.3487548828125 2413.8759765625 922.3129272460938" stroke-width="40.568115234375" fill="none" stroke="rgb(175, 172, 144)" stroke-opacity="0.8387518" stroke-linecap="round" stroke-linejoin="round"/>
    <path d="M 357.1560974121094 423.4200744628906 C 552.1592407226562 350.45733642578125 537.4025268554688 158.34942626953125 391.996337890625 373.7435302734375" stroke-width="44.24797439575195" fill="none" stroke="rgb(245, 222, 170)" stroke-opacity="0.86348337" stroke-linecap="round" stroke-linejoin="round"/>
    <path d="M 368.1527404785156 278.41485595703125 C 313.1947326660156 127.86237335205078 227.20364379882812 161.6076202392578 207.96566772460938 365.1876525878906" stroke-width="50.615753173828125" fill="none" stroke="rgb(207, 190, 149)" stroke-opacity="0.8251275" stroke-linecap="round" stroke-linejoin="round"/>
    <path d="M 187.9381866455078 1445.015869140625 C 246.85086059570312 1397.7548828125 308.5164489746094 1403.745849609375 390.0929260253906 1421.108154296875 C 493.45550537109375 1367.7137451171875 474.1809387207031 1324.0328369140625 702.4989013671875 1350.03759765625 C 601.30712890625 1274.6082763671875 512.0930786132812 1307.6575927734375 344.75604248046875 1264.494140625" stroke-width="37.877323150634766" fill="none" stroke="rgb(35, 60, 87)" stroke-opacity="0.74991435" stroke-linecap="round" stroke-linejoin="round"/>
    <path d="M 1447.639404296875 1794.3619384765625 C 1332.4893798828125 1632.547119140625 1490.0718994140625 1677.318115234375 1482.335205078125 1844.1510009765625" stroke-width="41.876014709472656" fill="none" stroke="rgb(38, 91, 119)" stroke-opacity="0.78976715" stroke-linecap="round" stroke-linejoin="round"/>
    <path d="M 2942.438720703125 1977.5433349609375 C 2703.62890625 1993.869873046875 2796.2861328125 2036.0684814453125 2571.401611328125 2059.247802734375 C 2429.17041015625 2056.258056640625 2384.207275390625 2082.756591796875 2740.031005859375 1976.01513671875" stroke-width="41.159141540527344" fill="none" stroke="rgb(40, 62, 104)" stroke-opacity="0.9948283" stroke-linecap="round" stroke-linejoin="round"/>
    <path d="M 3075.904296875 1707.9796142578125 C 2818.083984375 1730.35205078125 2889.8876953125 1763.354736328125 3084.454833984375 1737.9306640625" stroke-width="31.26607894897461" fill="none" stroke="rgb(2, 24, 75)" stroke-opacity="0.85745865" stroke-linecap="round" stroke-linejoin="round"/>
    <path d="M 639.0132446289062 1621.1630859375 C 828.362060546875 1769.867431640625 592.1602783203125 1770.87255859375 804.5032958984375 1966.466064453125" stroke-width="48.643760681152344" fill="none" stroke="rgb(113, 175, 176)" stroke-opacity="0.71989125" stroke-linecap="round" stroke-linejoin="round"/>
    <path d="M 3103.812255859375 1806.2352294921875 C 2869.494140625 1807.4632568359375 2799.95068359375 1884.7672119140625 3099.974365234375 1828.3052978515625" stroke-width="31.242876052856445" fill="none" stroke="rgb(35, 48, 94)" stroke-opacity="1.0" stroke-linecap="round" stroke-linejoin="round"/>
    <path d="M 541.7972412109375 32.16438293457031 C 170.33612060546875 -9.27663516998291 162.8326873779297 93.48079681396484 593.4064331054688 81.13494110107422" stroke-width="55.682594299316406" fill="none" stroke="rgb(246, 211, 152)" stroke-opacity="0.9737188" stroke-linecap="round" stroke-linejoin="round"/>
    <path d="M 1459.6806640625 1871.59033203125 C 1667.8125 1828.3670654296875 1467.639404296875 1870.560546875 1516.196044921875 1796.7733154296875 C 1698.5740966796875 1893.0928955078125 1696.7747802734375 1801.578125 1458.9810791015625 1603.8067626953125" stroke-width="46.95701599121094" fill="none" stroke="rgb(87, 117, 133)" stroke-opacity="1.0" stroke-linecap="round" stroke-linejoin="round"/>
    <path d="M 663.8114624023438 1182.6722412109375 C 940.9486083984375 1301.4390869140625 966.9633178710938 1257.6749267578125 892.1615600585938 1324.6607666015625 C 949.229736328125 1398.2607421875 916.8031005859375 1353.891357421875 931.1888427734375 1373.9410400390625 C 903.0147094726562 1338.4207763671875 931.8709106445312 1373.93115234375 927.805908203125 1369.384033203125" stroke-width="49.12031936645508" fill="none" stroke="rgb(34, 53, 83)" stroke-opacity="0.67977345" stroke-linecap="round" stroke-linejoin="round"/>
    <path d="M 851.1261596679688 1356.2037353515625 C 757.7127075195312 1323.5819091796875 707.836669921875 1317.9044189453125 502.2222595214844 1191.3778076171875 C 732.1463623046875 1238.3052978515625 751.794921875 1288.044189453125 895.2405395507812 1313.9854736328125 C 823.4305419921875 1434.3941650390625 695.0521850585938 1423.229248046875 728.1356201171875 1425.252197265625" stroke-width="48.8189582824707" fill="none" stroke="rgb(41, 71, 109)" stroke-opacity="1.0" stroke-linecap="round" stroke-linejoin="round"/>
    <path d="M 95.64171600341797 1406.4674072265625 C 159.00558471679688 1606.9442138671875 66.93924713134766 1514.38720703125 148.75076293945312 1427.822998046875" stroke-width="41.44288635253906" fill="none" stroke="rgb(32, 53, 92)" stroke-opacity="0.9613628" stroke-linecap="round" stroke-linejoin="round"/>
    <path d="M 2228.2880859375 1099.603271484375 C 2296.9052734375 1166.52001953125 2217.984375 1187.916748046875 2016.320556640625 1181.75 C 2007.6748046875 1267.5968017578125 1938.1168212890625 1198.5572509765625 2210.61572265625 1207.4547119140625 C 2230.591064453125 1218.8565673828125 2221.5927734375 1335.97216796875 2009.9920654296875 1376.9329833984375" stroke-width="34.604312896728516" fill="none" stroke="rgb(153, 154, 133)" stroke-opacity="1.0" stroke-linecap="round" stroke-linejoin="round"/>
    <path d="M 467.0324401855469 1175.9422607421875 C 209.8166046142578 1187.3896484375 364.7729797363281 1106.3665771484375 252.2937774658203 1103.4676513671875 C 359.683349609375 1185.8944091796875 247.43162536621094 1216.8944091796875 165.154541015625 1123.114501953125 C 337.66949462890625 1179.2867431640625 322.5300598144531 1192.0145263671875 239.88438415527344 1034.44677734375" stroke-width="25.59147834777832" fill="none" stroke="rgb(38, 63, 98)" stroke-opacity="0.9805773" stroke-linecap="round" stroke-linejoin="round"/>
    <path d="M 2461.85107421875 1475.0687255859375 C 2184.408447265625 1555.64013671875 2290.123779296875 1303.3260498046875 2406.936279296875 1473.484619140625 C 2362.984375 1294.1123046875 2230.26708984375 1324.4127197265625 2579.60888671875 1441.4088134765625 C 2564.03271484375 1324.795166015625 2265.66162109375 1390.0118408203125 2591.298828125 1261.3367919921875" stroke-width="40.21980285644531" fill="none" stroke="rgb(136, 141, 123)" stroke-opacity="0.9499542" stroke-linecap="round" stroke-linejoin="round"/>
    <path d="M 2776.762451171875 1020.4537963867188 C 2402.2138671875 984.8945922851562 2447.590087890625 899.97900390625 2770.915283203125 970.0697631835938 C 2565.52587890625 843.3204345703125 2512.734619140625 908.0234375 2432.841064453125 836.4430541992188" stroke-width="54.258541107177734" fill="none" stroke="rgb(197, 192, 160)" stroke-opacity="0.85735315" stroke-linecap="round" stroke-linejoin="round"/>
    <path d="M 203.46022033691406 762.9447021484375 C 12.80248737335205 797.5098266601562 -34.8712158203125 897.400390625 161.309326171875 782.265625" stroke-width="25.129426956176758" fill="none" stroke="rgb(42, 63, 98)" stroke-opacity="0.9000987" stroke-linecap="round" stroke-linejoin="round"/>
    <path d="M 3099.588134765625 913.1304321289062 C 2889.360107421875 980.6541137695312 2884.763427734375 890.2647705078125 2772.89794921875 735.4339599609375 C 2885.60009765625 692.4982299804688 2971.792724609375 690.002197265625 3117.00634765625 790.550537109375 C 3025.235107421875 914.152587890625 2911.415771484375 851.0693969726562 2722.36572265625 723.4459838867188" stroke-width="55.09376907348633" fill="none" stroke="rgb(172, 154, 67)" stroke-opacity="0.32634684" stroke-linecap="round" stroke-linejoin="round"/>
    <path d="M 2746.039794921875 666.598388671875 C 2528.353759765625 240.7086639404297 2407.7060546875 280.7174072265625 2689.333984375 678.2693481445312" stroke-width="60.4925651550293" fill="none" stroke="rgb(224, 195, 142)" stroke-opacity="0.91575" stroke-linecap="round" stroke-linejoin="round"/>
    <path d="M 2765.36767578125 1547.957763671875 C 2603.67236328125 1306.5125732421875 2756.530029296875 1317.4642333984375 2457.639404296875 1506.1827392578125" stroke-width="49.678443908691406" fill="none" stroke="rgb(159, 168, 152)" stroke-opacity="0.994289" stroke-linecap="round" stroke-linejoin="round"/>
    <path d="M 1623.2056884765625 1553.6396484375 C 2056.81005859375 1705.719482421875 1959.091552734375 1565.5931396484375 1569.7034912109375 1504.564208984375 C 1886.7645263671875 1681.5177001953125 1929.572509765625 1524.123046875 1638.9627685546875 1477.8671875" stroke-width="37.2752685546875" fill="none" stroke="rgb(89, 99, 106)" stroke-opacity="1.0" stroke-linecap="round" stroke-linejoin="round"/>
    <path d="M 1140.9593505859375 1980.7774658203125 C 942.5846557617188 1863.68896484375 976.8884887695312 1828.1090087890625 1027.5306396484375 1887.9959716796875 C 943.2822875976562 1863.087646484375 880.19384765625 1894.1011962890625 953.619384765625 1872.729248046875 C 1019.1542358398438 1879.3336181640625 924.4336547851562 1936.4200439453125 1179.7413330078125 2020.7078857421875" stroke-width="35.95354080200195" fill="none" stroke="rgb(17, 37, 78)" stroke-opacity="0.8529952" stroke-linecap="round" stroke-linejoin="round"/>
    <path d="M 2264.09765625 560.514404296875 C 2324.750732421875 553.7636108398438 2389.44140625 659.1617431640625 2548.25634765625 517.3768310546875" stroke-width="57.12881851196289" fill="none" stroke="rgb(227, 198, 150)" stroke-opacity="0.99120796" stroke-linecap="round" stroke-linejoin="round"/>
    <path d="M 705.79541015625 2031.068115234375 C 490.4884338378906 2084.45751953125 442.62060546875 1997.8154296875 553.1010131835938 1976.64404296875 C 749.0252685546875 1969.1041259765625 780.3123168945312 2008.0875244140625 671.6288452148438 1938.21240234375 C 530.9332885742188 1892.7177734375 579.9514770507812 1873.6387939453125 726.666748046875 1934.9061279296875" stroke-width="24.03693389892578" fill="none" stroke="rgb(25, 58, 93)" stroke-opacity="0.70220065" stroke-linecap="round" stroke-linejoin="round"/>
    <path d="M 3096.47900390625 539.4862060546875 C 2822.6181640625 547.4612426757812 2739.670166015625 542.4314575195312 2791.0751953125 646.1524047851562 C 2784.4248046875 628.0690307617188 2805.53125 582.871337890625 3149.410888671875 602.6079711914062 C 3016.813232421875 682.8616943359375 2803.057373046875 628.1015014648438 2637.72265625 714.6554565429688" stroke-width="54.497554779052734" fill="none" stroke="rgb(205, 179, 135)" stroke-opacity="0.9840882" stroke-linecap="round" stroke-linejoin="round"/>
    <path d="M 861.6732177734375 1590.191650390625 C 969.4207153320312 1663.23974609375 993.974609375 1591.712158203125 977.7083129882812 1578.9425048828125 C 987.6218872070312 1537.0189208984375 926.9788818359375 1534.2340087890625 1096.017333984375 1559.44482421875" stroke-width="32.70573425292969" fill="none" stroke="rgb(154, 179, 172)" stroke-opacity="0.9032849" stroke-linecap="round" stroke-linejoin="round"/>
    <path d="M 1194.70361328125 1540.4986572265625 C 1112.5908203125 1584.6055908203125 1061.7021484375 1543.4964599609375 1108.572265625 1493.52197265625 C 914.3592529296875 1467.3541259765625 1034.657470703125 1483.1817626953125 1231.47705078125 1597.904541015625" stroke-width="30.925029754638672" fill="none" stroke="rgb(118, 157, 154)" stroke-opacity="0.8018548" stroke-linecap="round" stroke-linejoin="round"/>
    <path d="M 1658.623779296875 580.2587280273438 C 1882.483642578125 546.61328125 1786.731689453125 673.1990356445312 1711.2940673828125 601.2901000976562 C 1636.4462890625 686.3475952148438 1681.5506591796875 700.9014282226562 1717.628173828125 634.5037231445312" stroke-width="38.117401123046875" fill="none" stroke="rgb(84, 114, 97)" stroke-opacity="0.5327261" stroke-linecap="round" stroke-linejoin="round"/>
    <path d="M 3103.877685546875 1248.4984130859375 C 2945.026611328125 1206.140869140625 3053.9453125 1141.005126953125 3150.861572265625 1237.2271728515625 C 3144.966552734375 1352.7138671875 3029.969482421875 1255.470947265625 2985.936279296875 1260.400634765625 C 3115.090576171875 1245.8829345703125 3034.375 1123.9940185546875 3030.36279296875 1180.71044921875" stroke-width="45.777259826660156" fill="none" stroke="rgb(78, 124, 141)" stroke-opacity="0.77026874" stroke-linecap="round" stroke-linejoin="round"/>
    <path d="M 248.18618774414062 2111.19384765625 C 482.6143493652344 2010.80419921875 499.6858825683594 1946.855224609375 544.36376953125 1958.9300537109375 C 671.47998046875 1946.3804931640625 710.9990844726562 1941.7470703125 663.59033203125 2023.10302734375 C 738.56005859375 2018.4853515625 658.270751953125 2148.51318359375 726.2041625976562 2050.1904296875" stroke-width="34.34029006958008" fill="none" stroke="rgb(31, 52, 93)" stroke-opacity="1.0" stroke-linecap="round" stroke-linejoin="round"/>
    <path d="M 1330.0230712890625 712.21240234375 C 1268.575927734375 603.6162719726562 1330.013427734375 678.0621337890625 1361.543701171875 662.9509887695312" stroke-width="43.476924896240234" fill="none" stroke="rgb(38, 57, 84)" stroke-opacity="0.82656753" stroke-linecap="round" stroke-linejoin="round"/>
    <path d="M 763.56689453125 483.03546142578125 C 838.375732421875 537.4879150390625 854.8076782226562 552.0897827148438 818.4552001953125 465.3282165527344 C 822.8778076171875 378.62164306640625 907.0222778320312 508.6837158203125 1073.7781982421875 471.37481689453125 C 844.597900390625 362.56268310546875 827.2426147460938 468.0763244628906 860.0344848632812 378.7604064941406" stroke-width="44.49510955810547" fill="none" stroke="rgb(122, 146, 151)" stroke-opacity="1.0" stroke-linecap="round" stroke-linejoin="round"/>
    <path d="M 2131.149169921875 1467.6060791015625 C 1811.6905517578125 1459.871826171875 1777.5738525390625 1168.996826171875 1935.0484619140625 1361.0482177734375 C 2135.223876953125 1297.4244384765625 2149.745361328125 1303.00537109375 2181.18017578125 1220.413818359375" stroke-width="47.811492919921875" fill="none" stroke="rgb(148, 151, 134)" stroke-opacity="0.9771472" stroke-linecap="round" stroke-linejoin="round"/>
    <path d="M 2316.01513671875 985.8030395507812 C 2494.534423828125 1058.0955810546875 2476.365966796875 1050.5474853515625 2753.864990234375 1040.33935546875" stroke-width="46.27031326293945" fill="none" stroke="rgb(173, 171, 146)" stroke-opacity="0.9436017" stroke-linecap="round" stroke-linejoin="round"/>
    <path d="M 1909.794921875 939.7225341796875 C 1862.77490234375 904.5438842773438 1964.4022216796875 966.5010986328125 2048.885498046875 895.764404296875 C 1909.916748046875 844.334716796875 1958.7593994140625 862.9304809570312 2285.222900390625 849.4696044921875 C 2159.951416015625 750.5859375 1967.8958740234375 877.4793701171875 1804.8349609375 763.4237670898438" stroke-width="42.824195861816406" fill="none" stroke="rgb(227, 218, 178)" stroke-opacity="0.6855403" stroke-linecap="round" stroke-linejoin="round"/>
    <path d="M 883.6844482421875 1853.2557373046875 C 1050.231689453125 1965.67919921875 1001.3390502929688 1816.691650390625 833.1932373046875 1799.583251953125 C 750.3338623046875 1863.7298583984375 734.857666015625 1900.0050048828125 862.7578125 1879.0029296875 C 840.0751953125 1907.482666015625 781.9915161132812 1965.1905517578125 909.1192016601562 1952.7120361328125" stroke-width="39.0829963684082" fill="none" stroke="rgb(151, 194, 191)" stroke-opacity="0.8594893" stroke-linecap="round" stroke-linejoin="round"/>
    <path d="M 373.7483215332031 1082.5726318359375 C 310.04931640625 1224.918212890625 274.8591613769531 1218.2662353515625 217.62628173828125 1236.6951904296875 C 269.1382751464844 1191.2618408203125 234.0652313232422 1181.3900146484375 510.7578125 1215.0203857421875" stroke-width="28.308420181274414" fill="none" stroke="rgb(51, 73, 106)" stroke-opacity="1.0" stroke-linecap="round" stroke-linejoin="round"/>
    <path d="M 1345.012451171875 1840.820068359375 C 1670.4774169921875 2093.629638671875 1478.4681396484375 2104.072265625 1320.1826171875 1829.61376953125 C 1470.688232421875 1954.421142578125 1323.5419921875 2035.6591796875 1233.5833740234375 1709.9072265625 C 1506.795166015625 1857.072265625 1366.6044921875 1968.7174072265625 1569.0771484375 1874.0621337890625" stroke-width="46.5947265625" fill="none" stroke="rgb(50, 72, 106)" stroke-opacity="1.0" stroke-linecap="round" stroke-linejoin="round"/>
    <path d="M 1532.0452880859375 859.9619750976562 C 1561.063720703125 908.8564453125 1524.955322265625 837.4777221679688 1546.6195068359375 764.901123046875 C 1439.2265625 676.8204345703125 1408.2220458984375 686.8228149414062 1574.015380859375 708.4963989257812 C 1449.7283935546875 541.8826293945312 1509.773681640625 617.77880859375 1420.548583984375 512.2799072265625" stroke-width="33.08525848388672" fill="none" stroke="rgb(76, 109, 91)" stroke-opacity="0.48560303" stroke-linecap="round" stroke-linejoin="round"/>
    <path d="M 2062.978271484375 174.90609741210938 C 2145.032470703125 333.5003356933594 2022.8475341796875 454.23065185546875 2114.73681640625 521.8827514648438 C 2160.527099609375 324.04754638671875 2144.772216796875 296.5939025878906 2257.8583984375 444.81207275390625" stroke-width="53.81960678100586" fill="none" stroke="rgb(224, 226, 133)" stroke-opacity="0.32651576" stroke-linecap="round" stroke-linejoin="round"/>
    <path d="M 1447.1866455078125 435.3789978027344 C 1336.47021484375 223.55763244628906 1351.2196044921875 428.51544189453125 1439.0035400390625 463.0119934082031 C 1516.233642578125 472.8161315917969 1553.8651123046875 487.55914306640625 1633.269775390625 454.2031555175781 C 1723.88720703125 542.8731079101562 1647.41943359375 535.9848022460938 1360.852294921875 463.03985595703125" stroke-width="35.139434814453125" fill="none" stroke="rgb(138, 157, 135)" stroke-opacity="0.6684308" stroke-linecap="round" stroke-linejoin="round"/>
    <path d="M 882.2745971679688 1026.5516357421875 C 1093.8704833984375 922.1754150390625 968.4153442382812 990.0311279296875 1184.846435546875 1071.5858154296875 C 1174.7052001953125 922.468994140625 966.3277587890625 954.1920776367188 1131.92919921875 927.8474731445312 C 1251.8997802734375 920.4398803710938 1190.566162109375 969.8638916015625 1182.536865234375 1221.076171875" stroke-width="33.49125289916992" fill="none" stroke="rgb(29, 54, 89)" stroke-opacity="0.79209465" stroke-linecap="round" stroke-linejoin="round"/>
    <path d="M 476.0036315917969 808.0989990234375 C 608.859619140625 1048.0537109375 586.5903930664062 936.5098876953125 571.9074096679688 893.7410278320312" stroke-width="40.28559112548828" fill="none" stroke="rgb(120, 160, 159)" stroke-opacity="0.81010306" stroke-linecap="round" stroke-linejoin="round"/>
    <path d="M 1089.994384765625 1180.526123046875 C 1432.133056640625 1322.2581787109375 1266.4130859375 1345.9052734375 1223.164306640625 1099.619140625" stroke-width="40.25593185424805" fill="none" stroke="rgb(29, 47, 86)" stroke-opacity="0.86921895" stroke-linecap="round" stroke-linejoin="round"/>
    <path d="M 3076.05615234375 1661.9554443359375 C 2946.355224609375 1694.10400390625 2944.37255859375 1710.917236328125 2912.594482421875 1715.696533203125 C 3085.07373046875 1688.963623046875 3123.2255859375 1645.9415283203125 3091.153564453125 1738.32470703125 C 3116.796142578125 1577.7518310546875 3060.717041015625 1653.066650390625 2979.190673828125 1675.257080078125" stroke-width="23.930145263671875" fill="none" stroke="rgb(16, 92, 145)" stroke-opacity="0.86470044" stroke-linecap="round" stroke-linejoin="round"/>
    <path d="M 2829.9609375 1192.888916015625 C 2419.855712890625 1297.9224853515625 2410.677001953125 1408.5478515625 2694.694091796875 1341.4605712890625" stroke-width="39.513648986816406" fill="none" stroke="rgb(123, 135, 126)" stroke-opacity="1.0" stroke-linecap="round" stroke-linejoin="round"/>
  </g>
</svg>
