<?xml version="1.0" ?>
<svg xmlns="http://www.w3.org/2000/svg" version="1.1" width="800" height="538">
  <defs/>
  <g>
    <path d="M 85.58769226074219 58.2005500793457 C 98.6612777709961 51.170066833496094 89.3987808227539 55.8953971862793 72.9480209350586 64.5841064453125 C 52.423988342285156 81.8223876953125 42.01908874511719 65.5237045288086 43.264129638671875 91.15580749511719 C 36.98854446411133 69.53466033935547 43.23361587524414 81.068115234375 52.983360290527344 72.53032684326172 C 70.12166595458984 87.13165283203125 32.723201751708984 83.85348510742188 85.58769226074219 58.2005500793457" stroke-width="2.0" fill="rgb(0, 58, 130)" opacity="0.6887838"/>
    <path d="M 188.73419189453125 527.80517578125 C 184.6658477783203 511.052490234375 181.6399383544922 492.51715087890625 168.52047729492188 473.72454833984375 C 166.7998046875 472.9908447265625 146.53756713867188 492.38446044921875 96.4269790649414 508.3778991699219 C 104.50687408447266 538.78564453125 140.0907440185547 551.2628173828125 54.328575134277344 551.2486572265625 C 34.111637115478516 480.1130065917969 54.564849853515625 502.9678649902344 188.73419189453125 527.80517578125" stroke-width="2.0" fill="rgb(35, 70, 91)" opacity="0.7660541"/>
    <path d="M 329.2401123046875 336.0741882324219 C 297.0205078125 252.54661560058594 315.6526794433594 285.4173278808594 364.1585998535156 298.98614501953125 C 402.90997314453125 304.07318115234375 403.54949951171875 309.8960266113281 457.06378173828125 309.8780517578125 C 482.7225036621094 352.8644714355469 494.213623046875 368.8779602050781 465.28753662109375 379.93017578125 C 350.497314453125 363.4302062988281 319.816162109375 358.59259033203125 329.2401123046875 336.0741882324219" stroke-width="2.0" fill="rgb(178, 171, 151)" opacity="0.8245252"/>
    <path d="M 771.3428344726562 282.7602233886719 C 716.5725708007812 359.6533508300781 694.69482421875 296.1820983886719 645.7696533203125 308.0748596191406 C 546.5368041992188 315.0504455566406 559.9385986328125 231.3834228515625 558.887451171875 210.66624450683594 C 519.6550903320312 207.1470947265625 505.39794921875 232.00022888183594 510.3467102050781 173.373779296875 C 634.0840454101562 173.8079071044922 710.2405395507812 145.99803161621094 771.3428344726562 282.7602233886719" stroke-width="2.0" fill="rgb(218, 189, 115)" opacity="0.2752589"/>
    <path d="M 424.0996398925781 266.5955810546875 C 437.7605285644531 255.6622772216797 452.001708984375 245.89125061035156 434.25701904296875 253.8113250732422 C 449.7273864746094 247.2822723388672 454.2325744628906 247.4770965576172 448.4726867675781 245.8634490966797 C 461.4805603027344 235.21478271484375 453.14599609375 232.24037170410156 461.44482421875 239.77154541015625 C 460.193115234375 225.39649963378906 471.4610595703125 230.64361572265625 424.0996398925781 266.5955810546875" stroke-width="2.0" fill="rgb(192, 239, 244)" opacity="0.51128364"/>
    <path d="M 613.0149536132812 153.58460998535156 C 598.2506103515625 143.27967834472656 605.074951171875 151.92738342285156 595.3985595703125 151.17286682128906 C 607.6061401367188 147.66819763183594 596.517822265625 152.34744262695312 601.5242309570312 149.5617218017578 C 593.5443115234375 157.7797393798828 592.9144287109375 143.2705841064453 613.0149536132812 153.58460998535156" stroke-width="2.0" fill="rgb(101, 192, 81)" opacity="0.3973026"/>
    <path d="M 481.0521545410156 114.86840057373047 C 481.08294677734375 125.0477523803711 481.2031555175781 134.09559631347656 479.01629638671875 130.8582763671875 C 488.6785888671875 131.35890197753906 476.403564453125 134.0015411376953 482.7704772949219 123.41221618652344 C 478.5445861816406 128.3897705078125 482.18963623046875 156.47889709472656 480.0459899902344 181.6918487548828 C 481.78436279296875 175.4934844970703 480.4736328125 185.4348602294922 460.8748474121094 162.07208251953125 C 488.48736572265625 182.9877166748047 478.5716552734375 197.6806640625 481.0521545410156 114.86840057373047" stroke-width="2.0" fill="rgb(83, 78, 4)" opacity="0.5395154"/>
    <path d="M 153.77272033691406 106.21437072753906 C 77.68194580078125 162.71917724609375 113.06649780273438 179.51171875 34.607398986816406 114.33020782470703 C 2.3907277584075928 128.82679748535156 -21.508628845214844 203.33216857910156 -14.294865608215332 232.61146545410156 C 100.45198059082031 204.27102661132812 66.82815551757812 196.23899841308594 97.00125122070312 159.5770721435547 C 146.5514678955078 108.62208557128906 139.94668579101562 110.07893371582031 99.0275650024414 152.1422576904297 C 114.0411148071289 144.444580078125 148.96115112304688 111.5710678100586 153.77272033691406 106.21437072753906" stroke-width="2.0" fill="rgb(149, 144, 122)" opacity="0.7526167"/>
    <path d="M 551.1814575195312 205.64144897460938 C 582.8541259765625 195.69471740722656 576.1905517578125 197.3407745361328 591.3295288085938 202.8279571533203 C 574.9554443359375 194.85971069335938 573.365966796875 200.9507293701172 572.7901611328125 198.34181213378906 C 571.5206298828125 200.0277862548828 582.969970703125 195.69393920898438 594.0878295898438 192.47525024414062 C 602.8171997070312 191.1298370361328 627.583251953125 178.3405303955078 626.426513671875 192.80625915527344 C 625.3531494140625 181.4318389892578 624.1139526367188 183.48431396484375 551.1814575195312 205.64144897460938" stroke-width="2.0" fill="rgb(63, 225, 161)" opacity="0.1726247"/>
    <path d="M 505.7613525390625 123.34984588623047 C 503.677734375 135.75340270996094 509.7242431640625 122.91693115234375 507.2703552246094 125.92736053466797 C 515.69384765625 122.57820129394531 496.70928955078125 130.88316345214844 505.9696350097656 128.04180908203125 C 501.3338317871094 140.37025451660156 506.88958740234375 131.5752716064453 505.7613525390625 123.34984588623047" stroke-width="2.0" fill="rgb(190, 80, 190)" opacity="0.65244967"/>
    <path d="M 380.8525390625 228.54055786132812 C 359.5389709472656 189.68984985351562 389.79705810546875 157.0105743408203 390.3484191894531 105.57156372070312 C 456.9814147949219 126.53783416748047 423.06988525390625 109.33549499511719 445.1278076171875 131.5112762451172 C 460.73297119140625 156.42835998535156 468.8517761230469 154.0854949951172 478.0118713378906 183.4046630859375 C 500.8445129394531 183.71983337402344 512.1983642578125 186.3441619873047 506.01715087890625 187.5150909423828 C 510.760009765625 232.072998046875 526.88623046875 242.7770233154297 380.8525390625 228.54055786132812" stroke-width="2.0" fill="rgb(121, 117, 77)" opacity="0.26797947"/>
    <path d="M 68.83142852783203 368.2835693359375 C 25.900226593017578 389.5268859863281 43.81560516357422 470.3609924316406 126.19335174560547 415.52099609375 C 156.92066955566406 395.94281005859375 89.89999389648438 468.5032653808594 132.1318817138672 446.5407409667969 C 124.22203826904297 385.37872314453125 155.60890197753906 448.86114501953125 80.14983367919922 433.6200256347656 C 102.35163116455078 432.7547912597656 101.65381622314453 425.7240905761719 96.9167709350586 429.9253845214844 C 163.50306701660156 403.1725769042969 152.13482666015625 376.9934997558594 68.83142852783203 368.2835693359375" stroke-width="2.0" fill="rgb(205, 197, 141)" opacity="0.3539423"/>
    <path d="M 148.38343811035156 486.2629699707031 C 77.53612518310547 504.3678283691406 91.2735366821289 537.1227416992188 100.95421600341797 565.9591674804688 C 186.96148681640625 572.3251953125 195.4949951171875 570.0169067382812 191.8374786376953 496.60748291015625 C 139.91700744628906 486.2375183105469 150.59849548339844 496.27008056640625 144.51756286621094 544.1427612304688 C 148.2727813720703 540.0473022460938 138.24951171875 549.743408203125 164.71612548828125 544.269287109375 C 131.9666748046875 564.3279418945312 151.27491760253906 518.42919921875 148.38343811035156 486.2629699707031" stroke-width="2.0" fill="rgb(51, 82, 108)" opacity="1.0"/>
    <path d="M 48.8281135559082 417.41668701171875 C 56.4885139465332 432.8974609375 88.7179946899414 441.66229248046875 93.28946685791016 431.5680236816406 C 68.8459243774414 431.7550964355469 102.38052368164062 428.4942932128906 142.68959045410156 442.45477294921875 C 99.19151306152344 461.4777526855469 95.80453491210938 450.0687561035156 -12.898938179016113 439.24713134765625 C -19.76605224609375 380.02105712890625 -0.815413236618042 373.53900146484375 44.191837310791016 393.2147216796875 C 51.90715408325195 436.7590637207031 50.434078216552734 430.7508544921875 48.8281135559082 417.41668701171875" stroke-width="2.0" fill="rgb(84, 87, 14)" opacity="0.24783552"/>
    <path d="M 216.29063415527344 97.63168334960938 C 173.67984008789062 98.47245025634766 221.14218139648438 80.50419616699219 309.3944091796875 160.71176147460938 C 315.8221130371094 212.45156860351562 161.20559692382812 205.5341796875 182.951171875 144.3489532470703 C 223.33717346191406 76.07460021972656 238.94012451171875 105.99541473388672 216.29063415527344 97.63168334960938" stroke-width="2.0" fill="rgb(26, 63, 101)" opacity="0.8971653"/>
    <path d="M 275.1546325683594 467.4201354980469 C 338.6128234863281 511.0279846191406 350.18475341796875 513.6771240234375 364.1268005371094 524.2373046875 C 314.4066467285156 525.91015625 361.2503967285156 521.0454711914062 345.3938903808594 552.2948608398438 C 286.7962951660156 586.9183349609375 305.0647277832031 535.7897338867188 253.14208984375 453.8197021484375 C 270.90850830078125 560.5851440429688 264.6894836425781 513.1031494140625 275.1546325683594 467.4201354980469" stroke-width="2.0" fill="rgb(74, 104, 124)" opacity="0.59008276"/>
    <path d="M 208.8821563720703 264.4825439453125 C 159.27716064453125 272.0802917480469 189.53794860839844 210.3821563720703 202.21519470214844 252.3712615966797 C 261.842041015625 305.22784423828125 259.987060546875 308.6605529785156 270.45184326171875 282.8766784667969 C 229.10842895507812 220.00672912597656 193.71075439453125 236.670654296875 208.8821563720703 264.4825439453125" stroke-width="2.0" fill="rgb(0, 26, 80)" opacity="1.0"/>
    <path d="M 783.0150146484375 297.81036376953125 C 819.6272583007812 270.728515625 818.9511108398438 280.1695556640625 811.5224609375 349.8739013671875 C 748.5646362304688 328.90496826171875 793.5169677734375 302.0581970214844 710.0613403320312 379.7668762207031 C 720.3546142578125 389.1663818359375 753.3381958007812 367.1624450683594 805.4187622070312 343.6382141113281 C 824.3741455078125 353.3624267578125 755.514404296875 342.33636474609375 783.0150146484375 297.81036376953125" stroke-width="2.0" fill="rgb(0, 44, 109)" opacity="0.7494231"/>
    <path d="M 51.38116455078125 77.70655822753906 C 55.041194915771484 -7.70460844039917 73.05168914794922 -25.400754928588867 154.4918975830078 -12.462088584899902 C 169.52357482910156 -6.764491081237793 189.6382598876953 24.009037017822266 142.9464111328125 85.28207397460938 C 135.0941925048828 82.13226318359375 137.05592346191406 74.43230438232422 56.60313415527344 80.06356811523438 C 100.91677856445312 123.53746795654297 115.15496063232422 134.04605102539062 162.648681640625 129.9871063232422 C 153.4167022705078 57.16218185424805 108.83150482177734 84.05066680908203 51.38116455078125 77.70655822753906" stroke-width="2.0" fill="rgb(200, 156, 66)" opacity="0.33847082"/>
    <path d="M 774.0175170898438 372.08929443359375 C 722.4505004882812 421.4750671386719 722.6736450195312 405.3670959472656 747.9545288085938 404.20953369140625 C 711.162109375 403.6835632324219 729.0873413085938 447.43218994140625 638.3505859375 426.71478271484375 C 719.7567138671875 419.9634704589844 740.1897583007812 371.2041320800781 774.0175170898438 372.08929443359375" stroke-width="2.0" fill="rgb(0, 58, 104)" opacity="0.7008102"/>
    <path d="M 212.0940399169922 355.5494384765625 C 244.64808654785156 293.3498229980469 255.43460083007812 373.5247802734375 205.32772827148438 303.9161071777344 C 301.0292663574219 281.526611328125 310.3552551269531 339.872314453125 304.555419921875 314.7652893066406 C 297.5064697265625 307.68731689453125 306.7754821777344 332.6450500488281 337.16552734375 326.14697265625 C 302.2751159667969 295.9310607910156 280.733154296875 302.68072509765625 330.199951171875 335.610595703125 C 319.9087219238281 483.1777038574219 316.7688903808594 434.2509765625 212.0940399169922 355.5494384765625" stroke-width="2.0" fill="rgb(205, 205, 161)" opacity="0.3229084"/>
    <path d="M 714.3865356445312 352.2131652832031 C 740.6709594726562 340.7689514160156 745.5972290039062 369.9098205566406 732.4924926757812 341.01300048828125 C 757.695556640625 331.6695251464844 762.5003662109375 329.3446350097656 732.0076293945312 378.9905090332031 C 687.6346435546875 380.824462890625 703.4464721679688 383.5281677246094 714.3865356445312 352.2131652832031" stroke-width="2.0" fill="rgb(48, 83, 121)" opacity="0.6803981"/>
    <path d="M -5.5275702476501465 382.8442687988281 C -15.675885200500488 282.4585876464844 12.335000991821289 328.8572082519531 57.16996765136719 303.1573181152344 C 25.96211814880371 265.1651916503906 60.793067932128906 270.15911865234375 162.83900451660156 333.6595764160156 C 138.25836181640625 363.7104797363281 93.64767456054688 312.5628967285156 104.58160400390625 372.5012512207031 C 106.55614471435547 377.8083190917969 28.023841857910156 385.01171875 -5.5275702476501465 382.8442687988281" stroke-width="2.0" fill="rgb(104, 117, 98)" opacity="0.4895041"/>
    <path d="M 648.0820922851562 408.2126770019531 C 633.058837890625 389.97125244140625 651.6464233398438 379.87493896484375 681.90576171875 341.53387451171875 C 669.9756469726562 351.1585693359375 622.3987426757812 396.61810302734375 546.0577392578125 410.0950927734375 C 556.9649658203125 311.2357177734375 642.3758544921875 302.6507873535156 719.2765502929688 302.3722229003906 C 628.4617309570312 395.1257019042969 649.4671630859375 397.2209777832031 613.8648681640625 395.2102355957031 C 647.1109008789062 404.419189453125 603.6634521484375 421.5653381347656 648.0820922851562 408.2126770019531" stroke-width="2.0" fill="rgb(106, 105, 91)" opacity="0.6518872"/>
    <path d="M 90.69891357421875 169.5000762939453 C 103.48627471923828 223.14051818847656 105.48556518554688 242.4437713623047 3.4235081672668457 227.08224487304688 C 55.88713455200195 193.8238983154297 59.89912033081055 211.58087158203125 51.38678741455078 205.40170288085938 C 24.2557430267334 210.4780731201172 42.39223861694336 214.91116333007812 90.69891357421875 169.5000762939453" stroke-width="2.0" fill="rgb(237, 229, 207)" opacity="0.9582969"/>
    <path d="M 131.0409393310547 173.86648559570312 C 117.90251159667969 183.04257202148438 130.16659545898438 173.32554626464844 120.70147705078125 181.30641174316406 C 111.9338607788086 188.82469177246094 94.44113159179688 195.9478302001953 110.97325134277344 188.11785888671875 C 105.06700134277344 190.9552764892578 103.0718765258789 184.38836669921875 101.21869659423828 195.854736328125 C 103.5643310546875 183.27859497070312 105.82965087890625 185.1376953125 102.13081359863281 187.84278869628906 C 109.0610580444336 193.96022033691406 122.31340789794922 178.50473022460938 131.0409393310547 173.86648559570312" stroke-width="2.0" fill="rgb(56, 185, 101)" opacity="0.35671502"/>
    <path d="M 253.46961975097656 296.04998779296875 C 278.4300537109375 190.281005859375 332.7552490234375 194.44366455078125 321.3065490722656 214.217041015625 C 315.3040771484375 297.6954650878906 341.7077331542969 265.64996337890625 339.69915771484375 283.1103820800781 C 322.8282470703125 322.2060241699219 395.430908203125 343.927978515625 253.46961975097656 296.04998779296875" stroke-width="2.0" fill="rgb(61, 94, 124)" opacity="1.0"/>
    <path d="M 331.0035095214844 125.25777435302734 C 349.38214111328125 190.41831970214844 396.7922058105469 174.3821258544922 377.0015869140625 109.52666473388672 C 440.1586608886719 143.36618041992188 490.79718017578125 142.7735595703125 431.248291015625 149.82037353515625 C 387.5872802734375 165.3180389404297 421.37188720703125 143.48326110839844 331.0035095214844 125.25777435302734" stroke-width="2.0" fill="rgb(204, 210, 208)" opacity="1.0"/>
    <path d="M 81.87348937988281 506.48809814453125 C 64.58718872070312 441.8175964355469 62.000457763671875 460.3914489746094 84.43067932128906 454.48480224609375 C 102.40972137451172 480.0301513671875 106.23881530761719 433.11328125 159.43295288085938 431.9818420410156 C 153.18223571777344 484.5236511230469 170.23733520507812 485.87274169921875 81.87348937988281 506.48809814453125" stroke-width="2.0" fill="rgb(104, 130, 145)" opacity="0.835886"/>
    <path d="M 798.0859985351562 238.12875366210938 C 829.1390380859375 262.6681823730469 788.4482421875 314.4315185546875 744.341064453125 327.1876220703125 C 715.1779174804688 342.87738037109375 739.5046997070312 338.164794921875 745.89794921875 371.3004150390625 C 811.27587890625 343.0559997558594 828.853271484375 334.39044189453125 807.1451416015625 293.3858337402344 C 771.8320922851562 331.2281188964844 754.2426147460938 305.9999084472656 792.1468505859375 340.9122009277344 C 730.2882690429688 305.26507568359375 735.2376098632812 340.6360168457031 798.0859985351562 238.12875366210938" stroke-width="2.0" fill="rgb(57, 87, 80)" opacity="0.29372102"/>
    <path d="M 658.0361328125 454.1941223144531 C 729.519775390625 436.0294494628906 717.679931640625 395.4343566894531 740.59521484375 367.16363525390625 C 733.7672119140625 353.2709045410156 684.542724609375 366.1787109375 687.77294921875 356.34033203125 C 727.6857299804688 324.6210632324219 740.8331909179688 393.0303649902344 701.580078125 359.1986389160156 C 668.1340942382812 379.5173034667969 663.573486328125 386.0590515136719 656.90869140625 377.3908996582031 C 641.0140380859375 382.17083740234375 622.3093872070312 423.7221374511719 658.0361328125 454.1941223144531" stroke-width="2.0" fill="rgb(62, 105, 89)" opacity="0.2638312"/>
    <path d="M 336.1222229003906 299.0145263671875 C 343.15545654296875 183.7998809814453 338.28125 192.52587890625 498.30487060546875 237.38714599609375 C 481.46929931640625 322.3771057128906 449.4013977050781 330.16925048828125 454.3745422363281 320.5789794921875 C 424.6029968261719 319.30242919921875 391.19464111328125 328.5840148925781 336.1222229003906 299.0145263671875" stroke-width="2.0" fill="rgb(238, 225, 198)" opacity="0.78419924"/>
    <path d="M 664.118896484375 171.22509765625 C 532.418701171875 172.67333984375 571.1693115234375 197.03492736816406 551.602783203125 57.46207046508789 C 574.9760131835938 25.21380615234375 665.474853515625 46.16686248779297 662.7295532226562 74.86625671386719 C 619.5073852539062 75.65225982666016 648.8970947265625 84.74768829345703 664.118896484375 171.22509765625" stroke-width="2.0" fill="rgb(241, 219, 161)" opacity="0.43259034"/>
    <path d="M 424.3383483886719 43.71352767944336 C 407.6233825683594 37.06772994995117 404.0589294433594 37.180912017822266 412.060791015625 39.62787628173828 C 405.3018798828125 37.25563430786133 411.0439758300781 38.48198318481445 413.45904541015625 39.82864761352539 C 406.3228454589844 37.176448822021484 380.4309387207031 28.22614288330078 384.93743896484375 29.819416046142578 C 355.8659362792969 20.231918334960938 358.579833984375 20.00932502746582 357.2083740234375 16.494892120361328 C 358.5245361328125 22.653535842895508 364.6123046875 22.047754287719727 424.3383483886719 43.71352767944336" stroke-width="2.0" fill="rgb(87, 163, 72)" opacity="0.55730903"/>
    <path d="M 122.54875946044922 129.010009765625 C 60.50130844116211 102.58308410644531 56.74333190917969 60.602176666259766 50.78561782836914 94.43193054199219 C 84.84976196289062 113.93084716796875 99.77687072753906 115.74664306640625 63.725868225097656 102.99234008789062 C 43.970558166503906 106.96382904052734 32.29302978515625 118.51278686523438 51.06764221191406 128.36048889160156 C 85.98538970947266 155.0949249267578 90.60623168945312 174.76271057128906 122.54875946044922 129.010009765625" stroke-width="2.0" fill="rgb(171, 152, 107)" opacity="0.49337146"/>
    <path d="M 325.8794860839844 141.1044921875 C 233.3046112060547 142.950439453125 239.2273712158203 108.62294006347656 264.1056213378906 88.90321350097656 C 310.44964599609375 87.3666763305664 277.36126708984375 42.24270248413086 314.8945617675781 79.13224029541016 C 318.9772033691406 76.67452239990234 311.8238220214844 58.26399612426758 314.3749084472656 84.12418365478516 C 359.22991943359375 59.3757438659668 307.9097900390625 37.5013427734375 325.8794860839844 141.1044921875" stroke-width="2.0" fill="rgb(109, 125, 127)" opacity="0.4494718"/>
    <path d="M 351.4789123535156 344.2537536621094 C 483.6927185058594 331.1729431152344 466.82049560546875 326.7852783203125 521.9630737304688 412.5283508300781 C 488.6260986328125 414.8553161621094 467.7483825683594 415.6089782714844 370.8294677734375 378.9066467285156 C 409.2807922363281 436.2825012207031 424.0646667480469 412.2653503417969 430.1331787109375 425.21099853515625 C 491.5059509277344 483.3638916015625 446.7195739746094 426.0574035644531 412.47821044921875 524.5065307617188 C 298.23638916015625 507.6001281738281 280.2721252441406 462.9928283691406 351.4789123535156 344.2537536621094" stroke-width="2.0" fill="rgb(92, 109, 114)" opacity="0.5679456"/>
    <path d="M 678.2876586914062 120.37693786621094 C 696.8336181640625 127.19319152832031 711.0838012695312 123.90570068359375 713.6574096679688 124.17887115478516 C 708.6609497070312 125.49507904052734 705.7776489257812 116.7416000366211 679.937255859375 121.13566589355469 C 702.7883911132812 127.71031188964844 698.7236938476562 127.77901458740234 709.922119140625 124.6984634399414 C 693.0462036132812 123.69458770751953 672.9527587890625 123.54509735107422 676.64599609375 124.68074035644531 C 675.1898803710938 117.623046875 672.5078735351562 129.82310485839844 678.2876586914062 120.37693786621094" stroke-width="2.0" fill="rgb(101, 156, 195)" opacity="0.47889054"/>
    <path d="M 692.9998779296875 -1.6944186687469482 C 654.2893676757812 39.06441116333008 696.702392578125 75.84307098388672 611.0879516601562 51.43248748779297 C 566.3521118164062 29.383255004882812 583.5936889648438 -24.750288009643555 654.342041015625 -11.48857593536377 C 645.8804321289062 -3.8366401195526123 651.6829223632812 -22.20132827758789 692.9998779296875 -1.6944186687469482" stroke-width="2.0" fill="rgb(245, 218, 154)" opacity="0.5532501"/>
    <path d="M 644.2987060546875 455.6942138671875 C 607.3985595703125 470.30810546875 661.7481079101562 487.7369079589844 610.22509765625 438.0342102050781 C 708.722900390625 436.6003723144531 710.4238891601562 429.0281982421875 658.0822143554688 466.375732421875 C 634.7688598632812 491.6763916015625 678.779052734375 480.3684997558594 718.2890625 480.82012939453125 C 755.3053588867188 490.90155029296875 791.731201171875 444.3167724609375 800.7671508789062 502.9869689941406 C 646.4833984375 486.87158203125 693.9408569335938 570.1697998046875 644.2987060546875 455.6942138671875" stroke-width="2.0" fill="rgb(0, 50, 87)" opacity="0.7441945"/>
    <path d="M 344.7802734375 284.45086669921875 C 359.5393981933594 202.25575256347656 367.5328063964844 173.24388122558594 341.8666076660156 186.26527404785156 C 304.12615966796875 197.9669952392578 324.7608642578125 162.9136962890625 322.66217041015625 250.74081420898438 C 313.43280029296875 303.23870849609375 350.5753479003906 313.3924255371094 344.7802734375 284.45086669921875" stroke-width="2.0" fill="rgb(234, 223, 193)" opacity="0.6516693"/>
    <path d="M 477.6900634765625 411.31658935546875 C 503.0685119628906 469.39593505859375 467.93450927734375 472.2822265625 436.3687744140625 416.8137512207031 C 451.771240234375 385.87457275390625 432.9184265136719 428.1523742675781 378.90679931640625 361.3376159667969 C 404.3608703613281 352.2754821777344 436.62969970703125 352.0950927734375 477.6900634765625 411.31658935546875" stroke-width="2.0" fill="rgb(32, 46, 36)" opacity="0.25617117"/>
    <path d="M 80.64859008789062 234.5498046875 C 95.67825317382812 227.18914794921875 82.71186065673828 235.37347412109375 86.23924255371094 264.8481140136719 C 140.95330810546875 268.1844787597656 164.15158081054688 275.82049560546875 192.68679809570312 290.17340087890625 C 145.5747833251953 220.72314453125 140.7686309814453 220.69435119628906 143.721923828125 191.40988159179688 C 81.50171661376953 216.8470001220703 101.34315490722656 206.64544677734375 80.64859008789062 234.5498046875" stroke-width="2.0" fill="rgb(111, 136, 123)" opacity="0.41722155"/>
    <path d="M 407.3052062988281 317.25701904296875 C 400.8459167480469 318.0954895019531 392.11004638671875 332.0705261230469 343.4206848144531 322.8191223144531 C 340.0445251464844 311.1395568847656 398.0835266113281 406.2875671386719 325.63604736328125 331.675048828125 C 291.3332824707031 286.73974609375 354.5122985839844 347.5423889160156 407.3052062988281 317.25701904296875" stroke-width="2.0" fill="rgb(16, 50, 92)" opacity="0.7255716"/>
    <path d="M 183.20358276367188 81.66702270507812 C 197.7788543701172 85.62435150146484 195.32891845703125 63.256317138671875 261.30078125 50.277835845947266 C 205.49478149414062 70.89771270751953 216.64430236816406 63.147518157958984 198.8253936767578 77.79471588134766 C 146.47171020507812 109.4925537109375 112.27079010009766 142.90753173828125 168.08798217773438 92.55496215820312 C 188.3397674560547 77.77992248535156 200.34921264648438 84.5838623046875 183.20358276367188 81.66702270507812" stroke-width="2.0" fill="rgb(6, 20, 49)" opacity="0.9184293"/>
    <path d="M 376.1935119628906 540.0718383789062 C 379.55706787109375 548.1861572265625 368.8048400878906 554.0531616210938 367.1982116699219 556.3600463867188 C 337.8329772949219 529.6466064453125 326.78369140625 544.0858154296875 311.4314270019531 529.8544921875 C 302.6808166503906 487.8697814941406 312.98040771484375 505.896240234375 376.1935119628906 540.0718383789062" stroke-width="2.0" fill="rgb(8, 44, 79)" opacity="0.6606153"/>
    <path d="M 199.30824279785156 144.08392333984375 C 189.00360107421875 260.2301330566406 154.52777099609375 204.25726318359375 86.78433990478516 213.9454345703125 C 108.89048767089844 197.35125732421875 83.91765594482422 172.1625213623047 88.86727905273438 167.35000610351562 C 127.04756927490234 121.50672149658203 119.36740112304688 111.83790588378906 199.30824279785156 144.08392333984375" stroke-width="2.0" fill="rgb(155, 122, 0)" opacity="0.12568475"/>
    <path d="M 250.342041015625 433.6875305175781 C 218.0881805419922 419.9365234375 242.28982543945312 467.689697265625 270.0218200683594 533.5761108398438 C 344.6274719238281 513.9736328125 335.54010009765625 529.7587280273438 316.9662170410156 483.1423034667969 C 281.3630065917969 407.1207580566406 319.6955871582031 417.6507568359375 270.8101806640625 409.1473388671875 C 294.21453857421875 450.6739807128906 275.3324279785156 439.4438781738281 250.342041015625 433.6875305175781" stroke-width="2.0" fill="rgb(0, 27, 31)" opacity="0.25085768"/>
    <path d="M 396.19464111328125 -8.714201927185059 C 410.3293151855469 128.56822204589844 427.3929138183594 112.19461059570312 442.08441162109375 102.94184875488281 C 385.9728698730469 119.83558654785156 425.1242980957031 127.76085662841797 321.5126647949219 144.5905303955078 C 321.6509094238281 70.73102569580078 296.41278076171875 86.67220306396484 290.42425537109375 -16.193744659423828 C 314.20452880859375 -25.85549545288086 317.6893310546875 -15.283254623413086 396.19464111328125 -8.714201927185059" stroke-width="2.0" fill="rgb(183, 159, 91)" opacity="0.32954773"/>
    <path d="M 514.8009643554688 10.717090606689453 C 521.0347290039062 12.689339637756348 497.83544921875 8.999931335449219 518.8292236328125 11.910842895507812 C 510.1151123046875 11.99445629119873 518.68115234375 2.3887343406677246 509.87835693359375 -11.466495513916016 C 515.746337890625 -4.322412967681885 510.63079833984375 -4.991654872894287 500.786376953125 -13.047986030578613 C 508.25140380859375 -19.323335647583008 513.2431030273438 -15.448874473571777 514.8009643554688 10.717090606689453" stroke-width="2.0" fill="rgb(140, 155, 124)" opacity="0.75731546"/>
    <path d="M 85.07943725585938 331.8800354003906 C 164.26365661621094 304.71405029296875 198.37672424316406 262.2638854980469 212.50686645507812 364.658203125 C 89.22850799560547 355.7855224609375 94.23542785644531 316.6432800292969 193.6333770751953 290.2807312011719 C 113.15912628173828 252.48434448242188 83.79960632324219 254.25384521484375 85.07943725585938 331.8800354003906" stroke-width="2.0" fill="rgb(137, 160, 165)" opacity="0.7681777"/>
    <path d="M 449.4172668457031 438.8268127441406 C 586.4688720703125 493.932373046875 586.6092529296875 502.1919860839844 450.36798095703125 468.6374206542969 C 478.2945861816406 431.0086364746094 511.2802734375 439.99835205078125 567.4769897460938 487.18426513671875 C 599.5728149414062 468.30078125 560.5540161132812 455.7322692871094 449.4172668457031 438.8268127441406" stroke-width="2.0" fill="rgb(3, 64, 136)" opacity="0.98579603"/>
    <path d="M 769.9007568359375 16.818639755249023 C 777.8989868164062 31.450084686279297 787.5764770507812 36.97963333129883 779.0936279296875 -10.98617172241211 C 826.3659057617188 -17.645519256591797 828.080078125 35.986507415771484 778.5098876953125 37.38608932495117 C 816.0857543945312 34.586917877197266 784.9452514648438 40.47592544555664 769.9007568359375 16.818639755249023" stroke-width="2.0" fill="rgb(174, 136, 48)" opacity="0.3084942"/>
    <path d="M 789.91162109375 216.44613647460938 C 823.141357421875 197.96603393554688 826.4528198242188 186.20834350585938 799.2373657226562 28.246723175048828 C 668.4729614257812 40.00659942626953 726.1289672851562 52.05247116088867 777.6200561523438 197.24636840820312 C 675.5308837890625 163.15553283691406 659.113525390625 176.82058715820312 682.1431884765625 115.4058609008789 C 731.8302612304688 57.22924041748047 713.27001953125 57.53371810913086 789.91162109375 216.44613647460938" stroke-width="2.0" fill="rgb(230, 191, 122)" opacity="0.5144781"/>
    <path d="M 482.1669616699219 192.4912109375 C 464.1133728027344 272.8236083984375 454.76849365234375 313.82568359375 486.0205383300781 300.53033447265625 C 580.3952026367188 306.1156921386719 582.4673461914062 331.73480224609375 662.861083984375 300.249267578125 C 639.0712890625 224.2150115966797 608.7090454101562 209.8101348876953 482.1669616699219 192.4912109375" stroke-width="2.0" fill="rgb(243, 233, 211)" opacity="1.0"/>
    <path d="M 100.2331771850586 433.2710266113281 C 126.43694305419922 433.4625549316406 103.5754165649414 435.6597595214844 101.18741607666016 431.12493896484375 C 103.18477630615234 430.50469970703125 89.02436828613281 416.174072265625 92.94792938232422 423.0845642089844 C 90.58551788330078 416.1484375 95.90196228027344 431.2755126953125 109.8719711303711 421.89532470703125 C 96.33612060546875 430.3443603515625 104.30928039550781 418.2165832519531 100.2331771850586 433.2710266113281" stroke-width="2.0" fill="rgb(5, 24, 42)" opacity="0.78013855"/>
    <path d="M 127.4007568359375 291.65753173828125 C 94.71241760253906 283.96923828125 107.23188781738281 275.7568359375 119.05338287353516 261.47906494140625 C 72.87813568115234 288.385986328125 67.95436096191406 285.2698059082031 26.477197647094727 261.1846923828125 C 62.92562484741211 316.1197814941406 80.37619018554688 306.19775390625 67.89327239990234 315.6846008300781 C 159.95823669433594 346.19097900390625 167.7538299560547 375.1896667480469 122.94979095458984 299.8675231933594 C 71.88348388671875 312.59600830078125 122.05247497558594 328.9249572753906 127.4007568359375 291.65753173828125" stroke-width="2.0" fill="rgb(3, 58, 137)" opacity="0.58308893"/>
    <path d="M 171.05274963378906 203.33775329589844 C 159.51654052734375 211.05812072753906 165.40440368652344 235.58837890625 197.93377685546875 182.15255737304688 C 257.77716064453125 185.65301513671875 252.39674377441406 148.42926025390625 293.2947692871094 228.8009033203125 C 239.0165252685547 347.64141845703125 249.0245361328125 217.90109252929688 198.9281768798828 283.2431335449219 C 105.99623107910156 251.36044311523438 136.54412841796875 238.8564910888672 171.05274963378906 203.33775329589844" stroke-width="2.0" fill="rgb(162, 174, 165)" opacity="0.5838465"/>
    <path d="M 691.5067138671875 470.59478759765625 C 808.5178833007812 511.3355407714844 824.017578125 527.9682006835938 822.0950317382812 460.0711364746094 C 782.1336059570312 421.1725769042969 743.9957275390625 459.0907287597656 726.8663330078125 433.1576843261719 C 742.988037109375 428.9361877441406 743.0872192382812 426.4349060058594 727.0084228515625 432.78082275390625 C 737.5269165039062 431.17547607421875 753.9524536132812 422.9278564453125 814.7412109375 392.8414001464844 C 816.5562133789062 447.94866943359375 809.7850341796875 429.6603088378906 691.5067138671875 470.59478759765625" stroke-width="2.0" fill="rgb(28, 72, 101)" opacity="0.75241804"/>
    <path d="M 624.57373046875 170.2327117919922 C 726.3087158203125 199.0847625732422 679.1341552734375 144.92257690429688 735.0245361328125 83.75945281982422 C 764.0242919921875 39.458091735839844 744.8675537109375 57.41780090332031 578.728759765625 49.776248931884766 C 571.5588989257812 -39.05988311767578 602.446533203125 108.75535583496094 812.639892578125 27.72425651550293 C 802.1275634765625 -53.547786712646484 638.5573120117188 -57.51893997192383 624.57373046875 170.2327117919922" stroke-width="2.0" fill="rgb(246, 227, 189)" opacity="0.88626194"/>
    <path d="M 109.1187515258789 288.4414978027344 C 139.19871520996094 286.3367614746094 135.60028076171875 253.70736694335938 95.69392395019531 240.65118408203125 C 107.5413589477539 266.24017333984375 97.17906188964844 267.8164978027344 111.09284973144531 271.8143615722656 C 84.1492691040039 264.66302490234375 64.1837158203125 239.27691650390625 88.24808502197266 234.1577911376953 C 100.25849914550781 247.94134521484375 88.79814147949219 214.95228576660156 88.69127655029297 226.50376892089844 C 84.45845794677734 211.9237823486328 90.23053741455078 215.0246124267578 109.1187515258789 288.4414978027344" stroke-width="2.0" fill="rgb(54, 88, 138)" opacity="0.88030714"/>
    <path d="M 16.667770385742188 442.7329406738281 C -33.34344482421875 435.69903564453125 -18.550582885742188 451.1861877441406 -14.107074737548828 508.2980651855469 C 0.0002335868775844574 509.4335021972656 15.766695022583008 465.974853515625 28.434024810791016 464.7589111328125 C 17.75510025024414 470.710693359375 28.963186264038086 457.4761047363281 -18.862817764282227 525.8485717773438 C 19.479887008666992 535.604248046875 99.19171142578125 524.0798950195312 111.89859008789062 514.4901123046875 C 105.14895629882812 434.0496520996094 94.35724639892578 455.34393310546875 16.667770385742188 442.7329406738281" stroke-width="2.0" fill="rgb(64, 51, 0)" opacity="0.22189488"/>
    <path d="M 772.5068969726562 259.0620422363281 C 720.6077880859375 198.22813415527344 711.8262939453125 185.4929962158203 767.9237060546875 254.73495483398438 C 740.5472412109375 264.5971374511719 665.7031860351562 237.22598266601562 639.9222412109375 176.7389373779297 C 674.4765625 134.81944274902344 679.9898681640625 183.19566345214844 757.1964111328125 174.26068115234375 C 831.1453247070312 179.232666015625 829.4830932617188 238.97561645507812 772.5068969726562 259.0620422363281" stroke-width="2.0" fill="rgb(244, 233, 208)" opacity="0.8086557"/>
    <path d="M 35.91324234008789 463.54144287109375 C -2.236349582672119 496.1972351074219 21.997060775756836 498.7176818847656 -1.0556631088256836 546.2376098632812 C 1.68036687374115 548.3888549804688 19.030052185058594 559.782470703125 102.03593444824219 544.4571533203125 C 117.51020812988281 467.12713623046875 123.67981719970703 479.5029602050781 35.91324234008789 463.54144287109375" stroke-width="2.0" fill="rgb(52, 80, 106)" opacity="0.9017266"/>
    <path d="M 150.76947021484375 547.6995239257812 C 193.822998046875 517.51611328125 156.46914672851562 498.8316345214844 193.33021545410156 517.772216796875 C 172.69155883789062 527.89208984375 162.70367431640625 531.155029296875 196.28602600097656 529.867431640625 C 242.08518981933594 507.7510681152344 220.85377502441406 493.87335205078125 236.7952423095703 508.7237548828125 C 248.01097106933594 514.712646484375 240.7639923095703 510.9430847167969 242.78590393066406 543.4693603515625 C 207.7755126953125 575.5001220703125 197.3067626953125 582.212890625 150.76947021484375 547.6995239257812" stroke-width="2.0" fill="rgb(17, 48, 81)" opacity="0.7653995"/>
    <path d="M 172.84463500976562 19.536466598510742 C 158.9077911376953 74.72252655029297 154.17771911621094 70.00526428222656 148.00299072265625 44.60185241699219 C 150.6857147216797 57.833160400390625 164.1134033203125 62.583621978759766 143.4728240966797 84.12864685058594 C 163.0904083251953 109.72047424316406 155.41368103027344 106.35234069824219 205.06509399414062 68.96864318847656 C 202.87677001953125 66.58155822753906 182.04742431640625 82.40259552001953 172.84463500976562 19.536466598510742" stroke-width="2.0" fill="rgb(211, 163, 60)" opacity="0.25196165"/>
    <path d="M 324.0970153808594 146.4723663330078 C 307.8559265136719 75.41365051269531 251.45977783203125 99.16132354736328 239.25369262695312 220.18084716796875 C 348.9082946777344 250.63267517089844 327.8878173828125 158.8140869140625 331.6287841796875 194.78382873535156 C 378.0800476074219 153.82925415039062 376.04315185546875 213.62936401367188 340.72955322265625 158.4311981201172 C 399.6867980957031 159.70538330078125 360.96002197265625 172.27734375 376.4864807128906 175.0504608154297 C 392.4474792480469 200.30419921875 387.4063415527344 149.02285766601562 324.0970153808594 146.4723663330078" stroke-width="2.0" fill="rgb(46, 81, 113)" opacity="0.924907"/>
    <path d="M 224.60031127929688 499.6248474121094 C 223.78778076171875 537.6317749023438 268.7759094238281 545.5438842773438 280.164306640625 505.76611328125 C 241.76658630371094 512.6907348632812 268.220703125 533.239013671875 220.09158325195312 496.3368835449219 C 200.95248413085938 480.1466979980469 221.1681671142578 497.96966552734375 200.83343505859375 498.4396667480469 C 214.19686889648438 472.9955749511719 178.4335174560547 488.29547119140625 201.50099182128906 467.3353271484375 C 158.5572967529297 445.7369384765625 189.9168243408203 473.0618896484375 224.60031127929688 499.6248474121094" stroke-width="2.0" fill="rgb(0, 1, 44)" opacity="0.5836528"/>
    <path d="M 194.0228729248047 500.49871826171875 C 188.28350830078125 499.6847839355469 197.90615844726562 505.658203125 187.70291137695312 512.123779296875 C 202.65255737304688 541.7423706054688 128.2227325439453 519.0328979492188 250.56845092773438 539.823486328125 C 267.2543029785156 354.2759704589844 360.7182922363281 365.476806640625 150.76695251464844 370.8028564453125 C 101.67693328857422 466.9897155761719 153.05606079101562 470.0198974609375 194.0228729248047 500.49871826171875" stroke-width="2.0" fill="rgb(192, 201, 179)" opacity="0.57529026"/>
    <path d="M 230.3745574951172 134.90338134765625 C 236.50682067871094 56.811492919921875 289.394287109375 28.553327560424805 197.4720458984375 79.8248519897461 C 157.01583862304688 95.25980377197266 176.24444580078125 92.1966781616211 138.29173278808594 120.27360534667969 C 167.37359619140625 136.35467529296875 139.91729736328125 107.95673370361328 111.84111785888672 142.07949829101562 C 127.7831039428711 165.1239471435547 181.05575561523438 143.47998046875 230.3745574951172 134.90338134765625" stroke-width="2.0" fill="rgb(243, 239, 217)" opacity="0.73748285"/>
    <path d="M 210.4801483154297 350.3846435546875 C 157.0126495361328 400.7577209472656 124.90406799316406 404.2276306152344 99.0021743774414 376.7053527832031 C 111.3351058959961 331.11669921875 96.49583435058594 335.30474853515625 83.01544952392578 300.2148132324219 C 180.32992553710938 304.3023986816406 180.08499145507812 266.630615234375 210.4801483154297 350.3846435546875" stroke-width="2.0" fill="rgb(32, 53, 56)" opacity="0.40738034"/>
    <path d="M -13.907690048217773 228.9464569091797 C -21.146556854248047 322.8752746582031 -3.1643552780151367 336.36083984375 9.295937538146973 313.3150939941406 C 7.475258827209473 311.9389343261719 30.070363998413086 312.7582702636719 54.676025390625 307.34716796875 C 92.96224975585938 329.54510498046875 115.27962493896484 299.13763427734375 143.30279541015625 255.9176483154297 C 127.14147186279297 291.0076904296875 103.49539947509766 268.5417785644531 116.10078430175781 265.0472106933594 C 147.97994995117188 246.92782592773438 92.15526580810547 225.89393615722656 -13.907690048217773 228.9464569091797" stroke-width="2.0" fill="rgb(56, 75, 54)" opacity="0.36171502"/>
    <path d="M 722.8746337890625 347.5721435546875 C 779.69189453125 347.6014709472656 730.468017578125 319.1882629394531 777.5199584960938 318.8693542480469 C 766.1875610351562 276.46795654296875 812.5717163085938 292.71466064453125 796.802734375 294.6388854980469 C 797.8638305664062 317.6955261230469 798.7501220703125 327.222412109375 795.5777587890625 277.51043701171875 C 828.0983276367188 291.7538146972656 802.9403076171875 317.1803283691406 810.6691284179688 347.1863708496094 C 752.7830810546875 374.8494873046875 781.4655151367188 400.20550537109375 722.8746337890625 347.5721435546875" stroke-width="2.0" fill="rgb(17, 71, 86)" opacity="0.25570568"/>
    <path d="M 468.6434020996094 391.3657531738281 C 501.01068115234375 409.30853271484375 538.222900390625 419.7418212890625 463.3848876953125 409.2195129394531 C 409.6221008300781 394.0639953613281 395.3683776855469 396.06915283203125 424.1623229980469 416.4464416503906 C 423.1433410644531 433.1767272949219 362.0279846191406 392.5162048339844 468.6434020996094 391.3657531738281" stroke-width="2.0" fill="rgb(0, 39, 84)" opacity="0.7430463"/>
    <path d="M 496.8360290527344 300.71484375 C 594.9752807617188 315.0127868652344 611.5856323242188 308.8105773925781 555.9779663085938 327.56390380859375 C 550.5768432617188 350.9363098144531 588.7625122070312 299.4884033203125 579.2113647460938 380.611572265625 C 534.8573608398438 341.7515869140625 475.1147766113281 344.34161376953125 461.9294128417969 368.622802734375 C 455.34527587890625 308.91259765625 476.68621826171875 298.6339416503906 496.8360290527344 300.71484375" stroke-width="2.0" fill="rgb(172, 153, 104)" opacity="0.42560962"/>
    <path d="M 569.75244140625 344.2337341308594 C 554.0888671875 445.9359436035156 521.558349609375 433.1307067871094 477.39697265625 385.3013610839844 C 406.24969482421875 406.6350402832031 402.59808349609375 403.2821960449219 411.6860656738281 349.3939514160156 C 507.0096740722656 334.2506408691406 517.289794921875 300.9530334472656 569.75244140625 344.2337341308594" stroke-width="2.0" fill="rgb(130, 117, 93)" opacity="0.26943427"/>
    <path d="M 105.41075897216797 396.2857360839844 C 108.98645782470703 396.729736328125 113.77349853515625 395.6359558105469 111.651123046875 401.1332702636719 C 118.4359130859375 381.8814697265625 35.935489654541016 430.40289306640625 16.170560836791992 370.6473693847656 C 12.831785202026367 332.86669921875 79.9452896118164 366.65057373046875 123.52793884277344 395.58514404296875 C 135.43377685546875 407.1554870605469 118.49787139892578 380.9852294921875 92.82884216308594 398.311767578125 C 38.22983932495117 404.6272888183594 47.67320251464844 404.5365295410156 105.41075897216797 396.2857360839844" stroke-width="2.0" fill="rgb(68, 91, 115)" opacity="0.994151"/>
    <path d="M 481.4404602050781 289.6890563964844 C 505.5801696777344 285.0953674316406 509.0931396484375 279.91033935546875 482.37762451171875 255.8296356201172 C 489.911376953125 281.69757080078125 488.23870849609375 310.6347351074219 468.6390380859375 288.0498352050781 C 501.2442626953125 259.51751708984375 483.9123840332031 264.4880676269531 473.23577880859375 263.1504211425781 C 510.1424865722656 263.1873474121094 497.2461853027344 248.70388793945312 481.4404602050781 289.6890563964844" stroke-width="2.0" fill="rgb(167, 184, 97)" opacity="0.0"/>
    <path d="M 638.1697998046875 361.7796630859375 C 601.5704956054688 282.26617431640625 595.3173828125 323.9786071777344 515.3008422851562 337.6040344238281 C 488.95343017578125 317.9318542480469 531.5408325195312 386.9494934082031 568.3386840820312 388.298583984375 C 598.1950073242188 379.1956481933594 604.8204956054688 377.5078125 638.1697998046875 361.7796630859375" stroke-width="2.0" fill="rgb(123, 123, 117)" opacity="0.6822364"/>
    <path d="M 600.9204711914062 -26.36332130432129 C 587.0464477539062 78.01318359375 463.4964904785156 92.95059204101562 583.2206420898438 -13.775453567504883 C 528.6788940429688 -41.503562927246094 520.007568359375 -19.40382194519043 404.652587890625 59.917327880859375 C 435.4574890136719 165.87217712402344 407.1351623535156 110.16153717041016 520.5576782226562 59.55633544921875 C 562.8597412109375 87.57797241210938 476.6897277832031 65.56155395507812 600.9204711914062 -26.36332130432129" stroke-width="2.0" fill="rgb(238, 193, 81)" opacity="0.30837953"/>
    <path d="M -32.3361701965332 84.12322235107422 C 2.0252461433410645 144.55479431152344 -3.7598459720611572 138.37144470214844 -27.56018829345703 139.78411865234375 C -38.511444091796875 155.7869415283203 -41.983604431152344 159.59317016601562 33.418121337890625 162.1512908935547 C 51.5184326171875 120.62071228027344 39.53416442871094 94.12592315673828 59.5145149230957 111.80635070800781 C 76.76455688476562 113.0694351196289 55.698760986328125 116.48108673095703 59.50339126586914 61.65274429321289 C 60.60255813598633 60.401912689208984 6.800590515136719 39.05635452270508 -32.3361701965332 84.12322235107422" stroke-width="2.0" fill="rgb(198, 181, 144)" opacity="0.7414132"/>
    <path d="M 401.74273681640625 335.00335693359375 C 444.9961242675781 369.5647277832031 516.6680908203125 376.21600341796875 504.9081115722656 330.4457702636719 C 449.330078125 322.2182312011719 460.295654296875 324.6519470214844 436.0367126464844 324.13421630859375 C 427.7972106933594 325.38238525390625 438.86907958984375 323.0419921875 474.65838623046875 324.8918762207031 C 466.3673400878906 344.2662048339844 434.180908203125 328.6846618652344 401.74273681640625 335.00335693359375" stroke-width="2.0" fill="rgb(146, 144, 134)" opacity="0.7050183"/>
    <path d="M 707.7230224609375 315.773681640625 C 756.5606689453125 254.7783203125 756.818359375 244.3019561767578 784.437744140625 227.1666717529297 C 780.868408203125 229.4850311279297 767.4522705078125 237.363525390625 757.5603637695312 248.6261749267578 C 782.6353759765625 219.08047485351562 840.4498291015625 186.6780242919922 787.5236206054688 221.99578857421875 C 752.53271484375 252.22911071777344 782.4329833984375 231.72586059570312 758.9220581054688 228.27777099609375 C 780.6654663085938 235.42666625976562 768.3971557617188 227.7722625732422 707.7230224609375 315.773681640625" stroke-width="2.0" fill="rgb(24, 32, 39)" opacity="0.68899864"/>
    <path d="M 588.636962890625 502.3502502441406 C 584.7247924804688 528.8037719726562 641.8848876953125 480.59564208984375 690.24072265625 513.1334838867188 C 672.6859741210938 522.5888061523438 595.1168823242188 530.3707885742188 588.8253784179688 514.9013671875 C 588.7828369140625 459.1472473144531 585.5164184570312 538.0416870117188 569.7515869140625 439.6174621582031 C 679.0825805664062 460.2597961425781 681.1511840820312 460.26806640625 588.636962890625 502.3502502441406" stroke-width="2.0" fill="rgb(32, 65, 92)" opacity="0.79007053"/>
    <path d="M 391.6839294433594 171.71408081054688 C 418.4244079589844 162.31747436523438 423.079345703125 155.6531524658203 419.3069152832031 149.34609985351562 C 382.36480712890625 151.71063232421875 371.5086975097656 116.28036499023438 341.48382568359375 178.9072723388672 C 370.8482666015625 236.53639221191406 404.3381652832031 212.1404571533203 424.01995849609375 156.2503662109375 C 432.77899169921875 221.0475616455078 474.3148498535156 202.331298828125 436.2223815917969 181.5158233642578 C 432.5330505371094 218.22103881835938 449.877197265625 185.00811767578125 391.6839294433594 171.71408081054688" stroke-width="2.0" fill="rgb(194, 200, 196)" opacity="0.7787952"/>
    <path d="M 494.4407958984375 208.3644561767578 C 454.8122253417969 143.60008239746094 462.5744934082031 161.12530517578125 557.7135009765625 168.2300262451172 C 539.519287109375 166.40606689453125 545.5139770507812 166.88861083984375 477.5933837890625 159.89259338378906 C 465.0887451171875 166.5888671875 479.20611572265625 178.63430786132812 427.7904052734375 106.7413558959961 C 595.6536865234375 23.537784576416016 533.9866943359375 29.997413635253906 568.38037109375 171.76109313964844 C 498.3727722167969 175.46888732910156 532.8394165039062 167.171142578125 494.4407958984375 208.3644561767578" stroke-width="2.0" fill="rgb(245, 232, 199)" opacity="0.6012592"/>
    <path d="M 441.36669921875 248.941162109375 C 445.3137512207031 245.53216552734375 446.9453430175781 243.92257690429688 437.0993347167969 241.83204650878906 C 436.4648132324219 241.78929138183594 452.542236328125 243.83021545410156 438.3979187011719 250.37461853027344 C 454.372314453125 241.15077209472656 451.89288330078125 240.87576293945312 441.36669921875 248.941162109375" stroke-width="2.0" fill="rgb(155, 138, 142)" opacity="0.56222147"/>
    <path d="M 438.8542785644531 479.92120361328125 C 379.42449951171875 557.5328979492188 386.8692626953125 564.4248046875 574.5263671875 537.828369140625 C 501.955322265625 508.7194519042969 516.1964721679688 514.3927001953125 531.6876220703125 520.6001586914062 C 553.8702392578125 512.3468017578125 589.9859619140625 507.7008361816406 601.3614501953125 491.2288513183594 C 560.5242919921875 437.0622253417969 439.6423645019531 430.38726806640625 438.8542785644531 479.92120361328125" stroke-width="2.0" fill="rgb(105, 96, 75)" opacity="0.49006888"/>
    <path d="M 62.57802200317383 67.76325225830078 C 40.235939025878906 41.80556106567383 -7.7230305671691895 64.34220123291016 -12.976888656616211 64.46697998046875 C -21.35499382019043 -13.234755516052246 -8.604126930236816 -23.414897918701172 80.39867401123047 -25.90105438232422 C 67.71662139892578 18.10423469543457 48.16243362426758 5.79359245300293 62.57802200317383 67.76325225830078" stroke-width="2.0" fill="rgb(152, 110, 21)" opacity="0.34782645"/>
    <path d="M 700.3739013671875 180.6897735595703 C 698.3060913085938 176.7554931640625 687.3443603515625 187.79100036621094 689.70703125 184.51617431640625 C 698.4344482421875 180.19229125976562 677.8285522460938 191.47203063964844 698.20654296875 179.4620819091797 C 679.858642578125 167.92047119140625 671.5572509765625 162.7421112060547 676.2481079101562 165.53250122070312 C 667.036376953125 159.11839294433594 657.2429809570312 153.7327880859375 700.3739013671875 180.6897735595703" stroke-width="2.0" fill="rgb(61, 151, 163)" opacity="0.49735996"/>
    <path d="M 389.2581787109375 -56.343650817871094 C 406.46368408203125 51.76567840576172 395.6224670410156 71.51062774658203 423.8152160644531 47.25680923461914 C 477.3250427246094 -3.387251853942871 454.514892578125 -22.198835372924805 451.18670654296875 -5.65168571472168 C 454.31689453125 -13.819814682006836 467.29327392578125 -26.45783233642578 465.7538757324219 -19.52111053466797 C 452.8969421386719 -18.749652862548828 476.37841796875 -7.073010444641113 429.1343688964844 42.59153747558594 C 518.3253784179688 -20.11672592163086 553.3189086914062 -33.53954315185547 389.2581787109375 -56.343650817871094" stroke-width="2.0" fill="rgb(233, 174, 40)" opacity="0.27303594"/>
    <path d="M 358.3613586425781 207.66024780273438 C 316.5865478515625 242.7821502685547 375.28680419921875 221.4860382080078 347.9483337402344 267.7813720703125 C 367.67803955078125 338.2065124511719 334.3464050292969 334.6058349609375 316.7045593261719 255.10324096679688 C 321.83050537109375 173.47996520996094 362.8545837402344 282.4771423339844 358.3613586425781 207.66024780273438" stroke-width="2.0" fill="rgb(244, 233, 210)" opacity="0.9146189"/>
    <path d="M 355.4144592285156 571.9614868164062 C 346.1118469238281 447.68206787109375 437.60845947265625 371.38336181640625 570.9052734375 388.7389221191406 C 593.7583618164062 406.1287536621094 532.8360595703125 423.7056579589844 427.0906066894531 403.72845458984375 C 479.9205322265625 444.8079528808594 520.6195068359375 442.06011962890625 355.4144592285156 571.9614868164062" stroke-width="2.0" fill="rgb(34, 54, 69)" opacity="0.36341062"/>
    <path d="M 112.787841796875 413.5028076171875 C 116.48523712158203 414.9362487792969 108.63227844238281 410.7153625488281 109.6527099609375 419.7320251464844 C 112.87676239013672 408.84698486328125 100.02745056152344 421.62481689453125 90.13555908203125 424.5334777832031 C 80.8394775390625 430.0851745605469 75.92447662353516 431.5269775390625 112.787841796875 413.5028076171875" stroke-width="2.0" fill="rgb(153, 171, 60)" opacity="0.7472308"/>
    <path d="M 655.445068359375 57.84535598754883 C 644.8491821289062 63.51545715332031 653.2533569335938 58.71685791015625 638.9824829101562 66.71491241455078 C 635.5119018554688 69.92813110351562 621.1275024414062 75.76776885986328 614.4491577148438 85.28121948242188 C 618.3968505859375 88.29562377929688 600.6043090820312 86.27880859375 655.445068359375 57.84535598754883" stroke-width="2.0" fill="rgb(155, 171, 204)" opacity="0.6480692"/>
    <path d="M 214.118408203125 64.18321990966797 C 245.46832275390625 59.492156982421875 235.57339477539062 47.36342239379883 253.94796752929688 54.220664978027344 C 307.8801574707031 47.65620040893555 302.5076904296875 77.77323913574219 291.26483154296875 2.567521810531616 C 242.04873657226562 59.26067352294922 239.8468017578125 61.2327766418457 293.03466796875 0.7405769228935242 C 172.9786376953125 -18.889341354370117 152.0428466796875 -14.214238166809082 163.8341522216797 -22.445240020751953 C 176.80926513671875 37.52241134643555 178.82908630371094 84.880615234375 214.118408203125 64.18321990966797" stroke-width="2.0" fill="rgb(218, 161, 44)" opacity="0.29733065"/>
    <path d="M 593.9608764648438 247.17572021484375 C 620.09765625 255.8609161376953 605.3670654296875 251.89268493652344 594.4528198242188 245.86831665039062 C 604.3614501953125 251.15415954589844 612.5364990234375 253.2346649169922 617.3843994140625 256.08526611328125 C 619.9395141601562 256.42431640625 629.364990234375 263.4039306640625 631.4754028320312 263.0327453613281 C 618.3867797851562 270.9995422363281 632.0432739257812 264.5986633300781 632.9733276367188 258.02008056640625 C 627.5250244140625 269.9132080078125 639.27197265625 261.0963439941406 593.9608764648438 247.17572021484375" stroke-width="2.0" fill="rgb(188, 108, 186)" opacity="0.5373626"/>
    <path d="M 738.9177856445312 254.4405975341797 C 730.6088256835938 258.52374267578125 736.52685546875 255.1414794921875 719.9963989257812 263.34466552734375 C 718.7902221679688 262.42669677734375 711.6484375 268.830810546875 696.9051513671875 272.4849548339844 C 685.8290405273438 273.2522277832031 662.0514526367188 272.1243896484375 689.5595092773438 272.74041748046875 C 702.570556640625 272.5777893066406 696.2212524414062 273.8368225097656 738.9177856445312 254.4405975341797" stroke-width="2.0" fill="rgb(254, 77, 190)" opacity="0.4083779"/>
    <path d="M 186.46624755859375 296.7162780761719 C 243.86514282226562 330.29974365234375 245.9016876220703 376.306396484375 151.75270080566406 356.1591491699219 C 128.03933715820312 256.343505859375 191.5097198486328 273.5822448730469 230.15541076660156 340.46466064453125 C 245.7627716064453 334.27130126953125 281.842529296875 289.9446105957031 265.25494384765625 267.8401794433594 C 250.52365112304688 273.4450988769531 260.5034484863281 297.4474792480469 268.6610412597656 285.90191650390625 C 210.03604125976562 232.5012664794922 233.4476776123047 249.80445861816406 186.46624755859375 296.7162780761719" stroke-width="2.0" fill="rgb(54, 87, 117)" opacity="0.8074602"/>
    <path d="M 728.8522338867188 380.418212890625 C 574.3074340820312 440.423583984375 595.8421630859375 402.6322937011719 713.7300415039062 428.617431640625 C 608.1694946289062 443.82269287109375 656.512451171875 404.9701232910156 595.6414794921875 419.4757385253906 C 470.0749816894531 430.8415832519531 513.1807250976562 423.3458251953125 634.5776977539062 403.1820068359375 C 629.1574096679688 424.2973937988281 596.9490966796875 391.13507080078125 728.8522338867188 380.418212890625" stroke-width="2.0" fill="rgb(0, 50, 90)" opacity="0.4317638"/>
  </g>
</svg>
