<?xml version="1.0" ?>
<svg xmlns="http://www.w3.org/2000/svg" version="1.1" width="3100" height="2110">
  <defs/>
  <g>
    <path d="M 411.431884765625 286.4791259765625 C 370.0631103515625 281.46380615234375 248.82130432128906 281.8131103515625 268.0024108886719 127.37268829345703 C 155.8778839111328 215.57339477539062 114.1796646118164 247.0684356689453 145.80491638183594 279.32659912109375 C 137.1338653564453 434.3359069824219 160.31259155273438 363.7478332519531 185.07984924316406 305.1924743652344 C 191.20127868652344 417.1393127441406 175.60116577148438 426.17333984375 411.431884765625 286.4791259765625" stroke-width="2.0" fill="rgb(134, 133, 84)" opacity="0.45919156"/>
    <path d="M 732.9473266601562 2025.5098876953125 C 779.2141723632812 1970.8360595703125 716.1815185546875 1951.1683349609375 634.5921020507812 1897.9769287109375 C 630.7975463867188 1882.961181640625 536.44775390625 1907.861083984375 468.2558898925781 1919.1778564453125 C 446.6212463378906 2078.16943359375 528.1547241210938 2138.0029296875 256.80767822265625 2127.127685546875 C 225.55149841308594 1890.6708984375 332.8160400390625 1932.361572265625 732.9473266601562 2025.5098876953125" stroke-width="2.0" fill="rgb(20, 40, 78)" opacity="0.87410915"/>
    <path d="M 1493.7955322265625 1285.16796875 C 1462.73583984375 1110.533203125 1528.2906494140625 1147.935791015625 1569.530029296875 1134.4315185546875 C 1603.223876953125 1135.954833984375 1601.313720703125 1139.4468994140625 1750.9024658203125 1119.782470703125 C 1783.1702880859375 1224.1068115234375 1723.2030029296875 1293.468017578125 1696.9285888671875 1380.5106201171875 C 1513.0096435546875 1337.9202880859375 1479.5216064453125 1341.61181640625 1493.7955322265625 1285.16796875" stroke-width="2.0" fill="rgb(148, 150, 131)" opacity="0.99604464"/>
    <path d="M 2652.941650390625 885.7753295898438 C 2426.284912109375 1003.2909545898438 2263.326171875 962.3244018554688 2154.2021484375 917.856201171875 C 2125.85205078125 1003.96484375 2297.080078125 1003.2454833984375 2261.603271484375 951.1851806640625 C 2133.53955078125 942.6324462890625 2071.9599609375 953.888671875 2005.1507568359375 826.954345703125 C 2405.701171875 768.7909545898438 2499.697509765625 686.9199829101562 2652.941650390625 885.7753295898438" stroke-width="2.0" fill="rgb(177, 156, 63)" opacity="0.3139996"/>
    <path d="M 1604.843505859375 1023.5460205078125 C 1701.049072265625 1063.6905517578125 1671.1820068359375 1000.2822265625 1763.6417236328125 1075.5052490234375 C 1826.362548828125 1023.86962890625 1744.7933349609375 952.9490356445312 1743.9588623046875 980.0504760742188 C 1741.4681396484375 924.9524536132812 1674.96728515625 852.188720703125 1776.49658203125 795.796875 C 1927.7864990234375 828.4764404296875 1966.8717041015625 1002.0257568359375 1604.843505859375 1023.5460205078125" stroke-width="2.0" fill="rgb(163, 167, 150)" opacity="0.84400034"/>
    <path d="M 2404.817138671875 549.0244140625 C 2341.840087890625 594.3685913085938 2317.772705078125 634.428955078125 2288.231689453125 590.9703369140625 C 2396.66943359375 569.9154663085938 2360.25732421875 615.5440673828125 2222.42138671875 623.8877563476562 C 2192.99658203125 501.9566345214844 2204.13232421875 475.51007080078125 2404.817138671875 549.0244140625" stroke-width="2.0" fill="rgb(210, 172, 9)" opacity="0.2029771"/>
    <path d="M 1857.2232666015625 458.82135009765625 C 1852.8040771484375 491.97479248046875 1850.64306640625 520.4275512695312 1839.4814453125 587.7251586914062 C 1871.32470703125 533.9202270507812 1851.51318359375 565.7647705078125 1896.39990234375 502.1287841796875 C 1853.7457275390625 565.3776245117188 1784.1195068359375 639.1618041992188 1867.2305908203125 678.78369140625 C 1898.272216796875 744.5923461914062 1881.624755859375 754.2655639648438 1742.27197265625 613.2357788085938 C 1835.2938232421875 595.2107543945312 1828.09814453125 698.7919311523438 1857.2232666015625 458.82135009765625" stroke-width="2.0" fill="rgb(69, 83, 76)" opacity="0.5587347"/>
    <path d="M 483.22509765625 476.1015930175781 C 343.9482727050781 579.2618408203125 413.36993408203125 570.0488891601562 122.28121185302734 464.57330322265625 C 11.922178268432617 442.0638122558594 -40.44099807739258 709.9674072265625 -2.277688503265381 869.6495971679688 C 356.739013671875 787.706787109375 289.92791748046875 638.6030883789062 366.6742858886719 481.4818115234375 C 466.8025207519531 466.2042541503906 475.706787109375 502.14813232421875 345.2218933105469 587.7844848632812 C 316.3048095703125 598.7511596679688 507.5967712402344 540.9140014648438 483.22509765625 476.1015930175781" stroke-width="2.0" fill="rgb(149, 141, 119)" opacity="0.89209396"/>
    <path d="M 2050.50244140625 819.7365112304688 C 2163.30908203125 804.456298828125 2250.53564453125 779.8675537109375 2410.665283203125 758.3467407226562 C 2262.0810546875 646.6181030273438 2156.5380859375 815.81689453125 2032.368408203125 814.0033569335938 C 2097.69580078125 637.2549438476562 2154.561279296875 597.4915771484375 2370.423828125 633.5297241210938 C 2303.357666015625 770.7612915039062 2397.649658203125 733.3416748046875 2642.47314453125 816.9967651367188 C 2525.542236328125 556.9089965820312 2431.774658203125 657.1643676757812 2050.50244140625 819.7365112304688" stroke-width="2.0" fill="rgb(201, 173, 8)" opacity="0.18146995"/>
    <path d="M 1977.07373046875 478.61663818359375 C 1945.3095703125 508.3014831542969 1964.0169677734375 493.6712951660156 1970.8150634765625 482.9228515625 C 1991.0496826171875 476.3793029785156 1935.795654296875 540.77685546875 1943.1346435546875 543.6879272460938 C 1933.4383544921875 543.8289794921875 1966.8956298828125 512.7132568359375 1977.07373046875 478.61663818359375" stroke-width="2.0" fill="rgb(255, 114, 208)" opacity="0.5193984"/>
    <path d="M 1716.74072265625 861.2105102539062 C 1657.986083984375 734.2085571289062 1719.4794921875 674.6885375976562 1742.1290283203125 669.56689453125 C 1929.85009765625 692.6968994140625 1820.3265380859375 699.8380126953125 1811.8812255859375 617.1813354492188 C 1868.9014892578125 676.4999389648438 1881.1629638671875 675.61669921875 1875.1939697265625 717.6031494140625 C 1873.434814453125 717.1796875 1886.0989990234375 742.7836303710938 1885.2080078125 775.5234985351562 C 1981.86279296875 863.902099609375 2079.113037109375 873.5418701171875 1716.74072265625 861.2105102539062" stroke-width="2.0" fill="rgb(118, 124, 81)" opacity="0.37525693"/>
    <path d="M 450.9726257324219 1681.8592529296875 C 389.3281555175781 1672.9129638671875 351.72259521484375 1696.768310546875 377.4704284667969 1717.6275634765625 C 386.5771179199219 1691.9967041015625 350.9374084472656 1680.6068115234375 453.2893981933594 1679.8609619140625 C 529.825439453125 1701.4813232421875 535.4473266601562 1802.0482177734375 446.692138671875 1763.4483642578125 C 429.2722473144531 1722.331787109375 358.2154541015625 1735.5679931640625 291.53485107421875 1664.589111328125 C 343.1529541015625 1604.319580078125 372.1868591308594 1597.175537109375 450.9726257324219 1681.8592529296875" stroke-width="2.0" fill="rgb(92, 170, 162)" opacity="0.52562064"/>
    <path d="M 566.666748046875 1963.80322265625 C 353.2801208496094 1935.646484375 418.15521240234375 2060.08447265625 444.4488830566406 2202.387939453125 C 633.32275390625 2174.217041015625 707.3719482421875 2150.46923828125 687.3897705078125 2004.6151123046875 C 517.8326416015625 1959.975341796875 596.919677734375 1978.9305419921875 576.6659545898438 2086.108154296875 C 578.3262939453125 2128.265625 537.0975952148438 2155.31396484375 606.6136474609375 2122.357666015625 C 526.4307250976562 2195.759765625 610.179931640625 2088.3232421875 566.666748046875 1963.80322265625" stroke-width="2.0" fill="rgb(30, 55, 99)" opacity="1.0"/>
    <path d="M 239.25338745117188 1713.4342041015625 C 337.2504577636719 1748.3143310546875 322.9347839355469 1725.447265625 292.0404357910156 1655.1885986328125 C 317.0810241699219 1722.955078125 377.341552734375 1685.7718505859375 454.96820068359375 1774.8148193359375 C 409.2336730957031 1825.592041015625 379.1695251464844 1819.3612060546875 22.61087989807129 1733.2298583984375 C 53.97911071777344 1658.871337890625 145.78765869140625 1637.2689208984375 183.7011260986328 1664.1492919921875 C 225.99398803710938 1669.8819580078125 249.69989013671875 1724.3922119140625 239.25338745117188 1713.4342041015625" stroke-width="2.0" fill="rgb(14, 112, 94)" opacity="0.34701452"/>
    <path d="M 1080.92236328125 446.6954650878906 C 774.4124755859375 331.9324951171875 695.2538452148438 491.1416931152344 704.8287353515625 651.8306884765625 C 1048.6229248046875 713.4718017578125 698.4894409179688 751.0681762695312 712.8533935546875 654.448974609375 C 1119.3482666015625 743.9133911132812 1196.033447265625 734.375 1080.92236328125 446.6954650878906" stroke-width="2.0" fill="rgb(44, 60, 97)" opacity="1.0"/>
    <path d="M 1259.03515625 1880.5987548828125 C 1294.6229248046875 2126.759765625 1287.025146484375 1979.8607177734375 1328.8131103515625 2002.108642578125 C 1392.12451171875 2029.324462890625 1344.7767333984375 2086.173095703125 1276.79736328125 2139.408203125 C 1094.7835693359375 2260.3798828125 1031.856689453125 2297.935302734375 996.9832763671875 1920.941650390625 C 1109.798095703125 1899.02783203125 1138.0845947265625 1986.8193359375 1259.03515625 1880.5987548828125" stroke-width="2.0" fill="rgb(65, 95, 118)" opacity="0.8118794"/>
    <path d="M 708.6199951171875 1033.9853515625 C 737.0781860351562 1038.0341796875 735.0693359375 1030.0618896484375 1046.68994140625 1025.2169189453125 C 998.2325439453125 1136.9420166015625 952.89892578125 1096.85009765625 999.8963623046875 920.9608764648438 C 690.2115478515625 884.6769409179688 646.9732055664062 844.442138671875 708.6199951171875 1033.9853515625" stroke-width="2.0" fill="rgb(123, 142, 131)" opacity="0.6888299"/>
    <path d="M 3003.14697265625 1214.4786376953125 C 3121.742919921875 1139.6396484375 3129.04833984375 1169.822265625 3134.040283203125 1278.5772705078125 C 3060.605224609375 1397.0228271484375 2964.53076171875 1268.6829833984375 2888.695068359375 1443.8201904296875 C 2954.304931640625 1501.251708984375 2940.820556640625 1482.6971435546875 3099.330322265625 1415.0625 C 3150.09326171875 1340.62548828125 3079.361572265625 1376.6744384765625 3003.14697265625 1214.4786376953125" stroke-width="2.0" fill="rgb(0, 23, 71)" opacity="0.7918959"/>
    <path d="M 257.3628845214844 214.62513732910156 C 226.15382385253906 8.607007026672363 255.32334899902344 -54.87196731567383 579.4103393554688 -12.215716361999512 C 631.9862670898438 7.180969715118408 638.0980834960938 33.81550598144531 508.9637145996094 185.0310821533203 C 481.7323303222656 210.73716735839844 468.0452575683594 248.48353576660156 365.96624755859375 356.6273193359375 C 483.9282531738281 394.5751037597656 538.54296875 330.73406982421875 525.3649291992188 301.48431396484375 C 464.48211669921875 287.7437744140625 397.41522216796875 344.8414306640625 257.3628845214844 214.62513732910156" stroke-width="2.0" fill="rgb(232, 158, 38)" opacity="0.45647934"/>
    <path d="M 3059.236083984375 1491.5699462890625 C 2842.952880859375 1674.9041748046875 2853.752197265625 1653.2730712890625 2914.64404296875 1612.019775390625 C 2807.18359375 1691.44921875 2744.9599609375 1788.710693359375 2584.878662109375 1739.134521484375 C 2770.703857421875 1580.228271484375 2922.35791015625 1503.623291015625 3059.236083984375 1491.5699462890625" stroke-width="2.0" fill="rgb(6, 102, 153)" opacity="0.78421944"/>
    <path d="M 1057.58154296875 1284.527587890625 C 1153.558837890625 1272.4349365234375 1106.020751953125 1385.7183837890625 923.33447265625 1033.930908203125 C 1357.8507080078125 1015.1912841796875 1319.35498046875 1239.8909912109375 1280.997802734375 1308.78125 C 1009.986572265625 1130.542724609375 1000.643310546875 1194.31982421875 1066.5369873046875 1258.8450927734375 C 1122.3741455078125 1319.1219482421875 1085.635009765625 1276.4439697265625 1089.3455810546875 1283.6153564453125 C 1214.9832763671875 1280.530029296875 1225.760498046875 1280.1759033203125 1057.58154296875 1284.527587890625" stroke-width="2.0" fill="rgb(15, 34, 72)" opacity="0.8323594"/>
    <path d="M 2803.16015625 1416.7991943359375 C 2859.9248046875 1448.1846923828125 2902.164794921875 1424.383544921875 2874.126953125 1396.89013671875 C 2857.287109375 1367.21533203125 3018.401123046875 1417.6795654296875 2941.78759765625 1486.4134521484375 C 2763.221435546875 1557.109619140625 2759.101806640625 1584.0587158203125 2803.16015625 1416.7991943359375" stroke-width="2.0" fill="rgb(45, 54, 94)" opacity="0.9704534"/>
    <path d="M 25.955318450927734 1542.7373046875 C 22.1433162689209 1158.42041015625 97.10026550292969 1296.6552734375 97.93512725830078 1230.017578125 C 287.9557800292969 1191.5064697265625 428.0390930175781 1161.6966552734375 494.7498779296875 1250.75048828125 C 383.1224670410156 1369.470703125 388.4107666015625 1269.0924072265625 487.3013916015625 1387.5662841796875 C 443.3662414550781 1432.805419921875 279.19854736328125 1529.467529296875 25.955318450927734 1542.7373046875" stroke-width="2.0" fill="rgb(77, 101, 82)" opacity="0.55965084"/>
    <path d="M 2430.956298828125 1550.2877197265625 C 2643.787841796875 1398.529541015625 2766.416259765625 1365.8956298828125 2724.970703125 1244.2103271484375 C 2292.86572265625 1248.243408203125 2375.54296875 1327.8128662109375 2260.719482421875 1391.905029296875 C 2225.502685546875 1242.75732421875 2535.54248046875 1243.9456787109375 2154.578369140625 1458.923095703125 C 2224.037841796875 1740.48779296875 2196.085693359375 1496.5892333984375 2182.088134765625 1633.8956298828125 C 2569.5791015625 1489.510986328125 2594.707763671875 1557.8697509765625 2430.956298828125 1550.2877197265625" stroke-width="2.0" fill="rgb(94, 100, 72)" opacity="0.691281"/>
    <path d="M 350.140380859375 744.8715209960938 C 351.3173828125 813.7990112304688 268.2433776855469 853.797607421875 236.8877716064453 825.9445190429688 C 282.59527587890625 835.1148071289062 333.4140319824219 887.9553833007812 160.99864196777344 965.3917236328125 C 72.44633483886719 826.5924072265625 143.93426513671875 813.1364135742188 350.140380859375 744.8715209960938" stroke-width="2.0" fill="rgb(213, 232, 179)" opacity="0.42249787"/>
    <path d="M 504.0429382324219 684.1729125976562 C 452.9768371582031 714.09521484375 495.9991455078125 688.4107055664062 464.77606201171875 709.5386352539062 C 440.3210144042969 735.6145629882812 397.92529296875 755.2048950195312 446.5932312011719 746.3121337890625 C 398.89190673828125 756.1578369140625 390.83636474609375 714.060791015625 353.547607421875 751.3746948242188 C 374.3957824707031 729.7590942382812 380.36383056640625 733.744140625 421.1552734375 746.9650268554688 C 419.6430969238281 751.0658569335938 474.10650634765625 696.8037109375 504.0429382324219 684.1729125976562" stroke-width="2.0" fill="rgb(67, 196, 111)" opacity="0.33364668"/>
    <path d="M 1038.163330078125 1182.498291015625 C 1065.9971923828125 924.2815551757812 1161.3739013671875 964.2972412109375 1252.0838623046875 980.1629638671875 C 1419.8585205078125 985.067626953125 1474.454833984375 941.3235473632812 1570.6162109375 973.5009155273438 C 1549.97314453125 1146.2474365234375 1541.168701171875 1208.3402099609375 1038.163330078125 1182.498291015625" stroke-width="2.0" fill="rgb(27, 57, 101)" opacity="0.8768326"/>
    <path d="M 1334.5966796875 491.5846252441406 C 1376.800048828125 726.9921875 1467.5084228515625 692.5557861328125 1514.9560546875 545.2645263671875 C 1569.6390380859375 555.091064453125 1663.2164306640625 612.1179809570312 1593.93310546875 639.3230590820312 C 1591.3023681640625 529.2232666015625 1606.2843017578125 616.1412963867188 1334.5966796875 491.5846252441406" stroke-width="2.0" fill="rgb(151, 169, 149)" opacity="0.62025523"/>
    <path d="M 280.5152893066406 1938.7554931640625 C 250.8144989013672 1767.65966796875 273.5359802246094 1798.4605712890625 385.1443176269531 1808.2978515625 C 370.7306213378906 1825.1990966796875 440.99749755859375 1749.4820556640625 553.9432373046875 1746.43017578125 C 636.0028686523438 1821.7635498046875 579.0528564453125 1847.524169921875 280.5152893066406 1938.7554931640625" stroke-width="2.0" fill="rgb(65, 109, 138)" opacity="0.9518977"/>
    <path d="M 2994.946533203125 972.6218872070312 C 3164.70751953125 1114.3953857421875 3098.45458984375 1158.58154296875 3002.5703125 1300.3056640625 C 2775.3212890625 1332.54833984375 2838.424560546875 1395.1773681640625 2983.702392578125 1344.4669189453125 C 3146.540283203125 1433.4593505859375 3110.489013671875 1288.7850341796875 2999.903564453125 1236.4322509765625 C 3024.234375 1337.31982421875 3037.7265625 1325.067138671875 2956.29345703125 1306.8643798828125 C 2794.645751953125 1359.3812255859375 2687.366455078125 1284.4268798828125 2994.946533203125 972.6218872070312" stroke-width="2.0" fill="rgb(207, 230, 205)" opacity="0.6149859"/>
    <path d="M 2613.387451171875 1756.410400390625 C 2820.368896484375 1706.2154541015625 2805.83447265625 1666.4755859375 2861.46826171875 1440.8118896484375 C 2829.1748046875 1391.4127197265625 2736.765625 1418.125732421875 2709.93017578125 1414.8046875 C 2766.570556640625 1399.48681640625 2681.233154296875 1400.045166015625 2683.5576171875 1469.221435546875 C 2673.92333984375 1540.357666015625 2516.888671875 1503.0435791015625 2609.136474609375 1508.890380859375 C 2449.4375 1563.0689697265625 2386.282958984375 1599.75927734375 2613.387451171875 1756.410400390625" stroke-width="2.0" fill="rgb(47, 110, 132)" opacity="0.5685902"/>
    <path d="M 1458.34765625 1135.3121337890625 C 1531.3865966796875 1006.407958984375 1587.62548828125 988.52197265625 1842.1873779296875 1066.3011474609375 C 1781.822509765625 1188.5980224609375 1715.548828125 1211.9864501953125 1751.5703125 1123.0914306640625 C 1648.321044921875 1143.349609375 1618.4053955078125 1173.6031494140625 1458.34765625 1135.3121337890625" stroke-width="2.0" fill="rgb(150, 151, 130)" opacity="0.9361092"/>
    <path d="M 2492.231201171875 710.319091796875 C 2212.201171875 599.5332641601562 2231.288330078125 500.14056396484375 2301.227294921875 500.8053283691406 C 2282.975341796875 482.07623291015625 2336.566162109375 442.2446594238281 2523.301513671875 433.47113037109375 C 2527.11572265625 459.26702880859375 2512.40869140625 520.41748046875 2492.231201171875 710.319091796875" stroke-width="2.0" fill="rgb(224, 185, 119)" opacity="0.7082781"/>
    <path d="M 1642.36669921875 323.91162109375 C 1783.8218994140625 101.05015563964844 1710.352294921875 208.6070098876953 1569.111083984375 199.68435668945312 C 1492.531005859375 187.0005645751953 1608.2615966796875 223.04644775390625 1735.6171875 168.40501403808594 C 1642.386474609375 77.08858489990234 1557.2022705078125 67.53154754638672 1542.678466796875 -23.601715087890625 C 1306.7674560546875 -38.256492614746094 1250.0855712890625 33.16972732543945 1233.1890869140625 -13.588177680969238 C 1343.75537109375 -4.13170051574707 1328.720947265625 101.19379425048828 1642.36669921875 323.91162109375" stroke-width="2.0" fill="rgb(233, 148, 4)" opacity="0.40432474"/>
    <path d="M 465.2810363769531 292.8288269042969 C 335.81427001953125 254.03128051757812 279.2276611328125 277.3437805175781 212.7726287841797 369.2862243652344 C 334.555419921875 450.8516540527344 376.3028869628906 471.4914245605469 220.02740478515625 376.8164367675781 C 158.42543029785156 410.6799621582031 101.46841430664062 519.1063232421875 268.5906677246094 553.2566528320312 C 348.87298583984375 753.8296508789062 418.21099853515625 696.0056762695312 465.2810363769531 292.8288269042969" stroke-width="2.0" fill="rgb(230, 205, 159)" opacity="0.8497618"/>
    <path d="M 1161.1666259765625 242.94305419921875 C 1123.53076171875 390.9805603027344 1096.8084716796875 322.5545959472656 1079.4052734375 321.4881896972656 C 1115.3604736328125 331.3973083496094 977.6327514648438 277.3952941894531 1014.062744140625 499.07122802734375 C 1133.786865234375 493.2095642089844 999.9134521484375 515.57177734375 1411.1121826171875 541.8825073242188 C 1440.7774658203125 267.5399169921875 1372.5811767578125 197.7396240234375 1161.1666259765625 242.94305419921875" stroke-width="2.0" fill="rgb(138, 162, 157)" opacity="0.84980196"/>
    <path d="M 1461.5294189453125 1337.2012939453125 C 1756.5234375 1374.75 1832.12646484375 1393.899658203125 1856.6170654296875 1590.9962158203125 C 1804.0802001953125 1604.9168701171875 1718.2191162109375 1666.330810546875 1504.1298828125 1468.813232421875 C 1528.443603515625 1648.9014892578125 1732.77978515625 1625.410888671875 1715.6781005859375 1671.05517578125 C 1812.30419921875 1754.35400390625 1860.982177734375 1886.751953125 1628.317138671875 1949.3480224609375 C 1405.0848388671875 1932.1595458984375 1382.173583984375 1790.5594482421875 1461.5294189453125 1337.2012939453125" stroke-width="2.0" fill="rgb(76, 108, 111)" opacity="0.71093386"/>
    <path d="M 2561.19921875 333.8948669433594 C 2797.49755859375 417.6351318359375 2767.07177734375 481.46844482421875 2757.759033203125 508.1919860839844 C 2737.100341796875 523.7899780273438 2701.63232421875 502.00433349609375 2625.215576171875 533.3588256835938 C 2677.82470703125 578.7973022460938 2728.25 573.5391845703125 2763.270263671875 496.39263916015625 C 2673.02783203125 462.6243591308594 2620.464599609375 463.69122314453125 2646.538330078125 576.8463745117188 C 2491.979736328125 609.7437133789062 2472.835693359375 565.6066284179688 2561.19921875 333.8948669433594" stroke-width="2.0" fill="rgb(230, 173, 78)" opacity="0.555776"/>
    <path d="M 2789.896240234375 330.826171875 C 2766.515625 92.81291198730469 2822.482177734375 19.237957000732422 2809.686279296875 -11.435576438903809 C 2642.83984375 -23.4825439453125 2615.49853515625 -15.482181549072266 2311.113037109375 -27.025266647338867 C 2288.08544921875 231.33164978027344 2287.750732421875 253.0425262451172 2789.896240234375 330.826171875" stroke-width="2.0" fill="rgb(242, 192, 99)" opacity="0.64782387"/>
    <path d="M 2469.368408203125 1859.159423828125 C 2509.7763671875 1852.5731201171875 2422.133056640625 1895.5189208984375 2400.4248046875 1741.168212890625 C 2601.470458984375 1769.2706298828125 2646.20703125 1780.0382080078125 2684.154541015625 1774.72607421875 C 2712.818115234375 1860.300537109375 2775.07763671875 1801.9337158203125 2823.7666015625 1836.952880859375 C 2935.11181640625 1842.3795166015625 3021.910400390625 1781.0545654296875 3046.455078125 1968.281494140625 C 2528.74365234375 2107.26025390625 2529.30419921875 2155.243408203125 2469.368408203125 1859.159423828125" stroke-width="2.0" fill="rgb(25, 72, 109)" opacity="0.6855884"/>
    <path d="M 1317.94970703125 1024.2764892578125 C 1194.636962890625 1051.31640625 1280.8397216796875 991.9261474609375 1237.8775634765625 740.1486206054688 C 1030.34033203125 749.1697387695312 975.2622680664062 714.188720703125 1028.420166015625 1035.804443359375 C 1356.374755859375 1062.772216796875 1262.911865234375 961.7412109375 1317.94970703125 1024.2764892578125" stroke-width="2.0" fill="rgb(36, 65, 100)" opacity="0.87235314"/>
    <path d="M 1825.0487060546875 1616.991455078125 C 1775.755126953125 1744.290283203125 1642.551513671875 1646.8258056640625 1774.687744140625 1624.85400390625 C 1765.4307861328125 1577.9827880859375 1589.109375 1611.1112060546875 1416.3841552734375 1420.7523193359375 C 1743.1871337890625 1434.174072265625 1710.8458251953125 1439.5723876953125 1825.0487060546875 1616.991455078125" stroke-width="2.0" fill="rgb(142, 118, 69)" opacity="0.32936496"/>
    <path d="M 360.214111328125 950.802490234375 C 353.8935546875 872.901123046875 313.8986511230469 866.2977294921875 321.9851379394531 1037.635009765625 C 474.9231262207031 1082.4937744140625 554.366943359375 1099.263427734375 693.7207641601562 1053.54736328125 C 585.9139404296875 820.872314453125 552.776611328125 877.8125610351562 570.5159912109375 707.8148803710938 C 310.5809020996094 812.0913696289062 372.35693359375 801.984375 360.214111328125 950.802490234375" stroke-width="2.0" fill="rgb(63, 128, 118)" opacity="0.4537747"/>
    <path d="M 1499.8980712890625 1087.633544921875 C 1532.2972412109375 1250.237060546875 1411.77783203125 1257.110595703125 1585.5079345703125 1370.219482421875 C 1635.7890625 1411.3726806640625 1640.3760986328125 1463.72216796875 1288.512939453125 1436.57275390625 C 1271.3748779296875 1097.052978515625 1299.142578125 1126.879150390625 1499.8980712890625 1087.633544921875" stroke-width="2.0" fill="rgb(108, 119, 121)" opacity="1.0"/>
    <path d="M 618.8364868164062 363.81494140625 C 792.9967651367188 298.18572998046875 794.2058715820312 236.2801055908203 935.9490356445312 217.06629943847656 C 782.0355224609375 279.9736022949219 852.8080444335938 243.85556030273438 775.7201538085938 298.51641845703125 C 741.02294921875 329.4344787597656 675.4264526367188 342.4292297363281 700.0734252929688 343.5249938964844 C 622.7672729492188 364.64764404296875 586.44384765625 458.6683654785156 618.8364868164062 363.81494140625" stroke-width="2.0" fill="rgb(43, 59, 75)" opacity="0.90784484"/>
    <path d="M 1444.8753662109375 2060.914794921875 C 1465.10302734375 2136.527099609375 1411.5894775390625 2151.641845703125 1419.058349609375 2159.176025390625 C 1288.175048828125 2117.898681640625 1284.3753662109375 2125.6748046875 1222.2493896484375 2101.669921875 C 1129.5230712890625 1950.533203125 1225.232421875 2048.8349609375 1444.8753662109375 2060.914794921875" stroke-width="2.0" fill="rgb(25, 56, 98)" opacity="0.8452559"/>
    <path d="M 464.2161560058594 605.4270629882812 C 470.0950012207031 625.438720703125 478.4960021972656 625.6884765625 435.36920166015625 561.0623168945312 C 409.9044189453125 547.220947265625 349.7156677246094 672.419189453125 246.742431640625 731.8544921875 C 432.83831787109375 529.63232421875 409.0535583496094 519.43115234375 464.2161560058594 605.4270629882812" stroke-width="2.0" fill="rgb(72, 72, 56)" opacity="0.6390816"/>
    <path d="M 948.8578491210938 1711.376953125 C 882.6493530273438 1712.0616455078125 912.2186279296875 1877.69091796875 1037.351318359375 1989.546630859375 C 1216.9718017578125 1976.1595458984375 1179.01025390625 1989.8321533203125 1170.961181640625 1944.8592529296875 C 1222.5743408203125 1568.6185302734375 1252.4110107421875 1588.62255859375 1058.7393798828125 1635.3280029296875 C 1160.2091064453125 1811.36376953125 1039.7520751953125 1730.8302001953125 948.8578491210938 1711.376953125" stroke-width="2.0" fill="rgb(0, 65, 76)" opacity="0.4242754"/>
    <path d="M 1540.89501953125 247.1348876953125 C 1626.3438720703125 278.98211669921875 1629.3092041015625 229.15707397460938 1694.0443115234375 393.3953857421875 C 1571.160888671875 456.17376708984375 1518.732177734375 392.3597106933594 1318.89599609375 401.51263427734375 C 1272.8311767578125 285.0891418457031 1152.75634765625 314.0254821777344 1100.11181640625 12.864130973815918 C 1337.3006591796875 -71.33070373535156 1305.310302734375 60.314510345458984 1540.89501953125 247.1348876953125" stroke-width="2.0" fill="rgb(220, 197, 146)" opacity="0.82465273"/>
    <path d="M 2250.549072265625 181.30325317382812 C 1990.8603515625 193.2489471435547 2038.460693359375 116.90196228027344 2064.3974609375 180.8700714111328 C 1898.9576416015625 179.6436767578125 1925.8345947265625 114.075927734375 1853.1053466796875 48.60023880004883 C 1919.0350341796875 -91.70645904541016 1958.819580078125 -36.45671081542969 2002.345458984375 -65.28685760498047 C 2160.0048828125 -167.91053771972656 2221.598388671875 -237.61497497558594 2250.549072265625 181.30325317382812" stroke-width="2.0" fill="rgb(241, 186, 89)" opacity="0.61974436"/>
    <path d="M 410.3225402832031 1253.8214111328125 C 690.6450805664062 1182.2950439453125 721.8246459960938 997.0106201171875 729.8596801757812 1354.1131591796875 C 423.541259765625 1334.8240966796875 425.65234375 1231.7962646484375 704.5022583007812 1131.0504150390625 C 519.462646484375 1005.0631713867188 416.7918701171875 1052.091064453125 410.3225402832031 1253.8214111328125" stroke-width="2.0" fill="rgb(107, 139, 157)" opacity="0.9474074"/>
    <path d="M 1911.564208984375 1725.16357421875 C 1950.5211181640625 1854.5604248046875 2051.8623046875 1727.7388916015625 1779.9052734375 1872.1134033203125 C 2093.89794921875 1940.4090576171875 2132.439208984375 1974.82275390625 2223.13525390625 1943.4921875 C 2304.676025390625 1818.30029296875 2239.53271484375 1774.6251220703125 1911.564208984375 1725.16357421875" stroke-width="2.0" fill="rgb(111, 145, 161)" opacity="0.83246183"/>
    <path d="M 2769.3935546875 106.8582992553711 C 2842.45166015625 297.9947204589844 2842.171142578125 342.7917785644531 3100.412841796875 282.4918212890625 C 3134.968505859375 125.0851821899414 3144.60498046875 67.53298950195312 3089.742919921875 -15.645018577575684 C 2869.52392578125 -58.82435989379883 2786.709716796875 -7.300405025482178 2769.3935546875 106.8582992553711" stroke-width="2.0" fill="rgb(238, 176, 62)" opacity="0.5184295"/>
    <path d="M 3017.615478515625 726.4921264648438 C 3139.302978515625 696.3622436523438 3172.35546875 686.6420288085938 3100.909912109375 284.2453308105469 C 2705.07763671875 297.27227783203125 2881.091552734375 353.2784118652344 2969.6025390625 618.0263671875 C 2718.1669921875 578.4307861328125 2703.26953125 592.8607177734375 2765.931396484375 384.0806579589844 C 2830.510498046875 327.1729736328125 2844.0400390625 308.81109619140625 3017.615478515625 726.4921264648438" stroke-width="2.0" fill="rgb(236, 199, 136)" opacity="0.856252"/>
    <path d="M 1968.3421630859375 852.3753051757812 C 1946.5224609375 1013.5725708007812 1933.04052734375 1025.1258544921875 1980.425048828125 1091.8453369140625 C 2027.967529296875 1142.053466796875 2216.728759765625 1129.061767578125 2248.57470703125 1085.2657470703125 C 2279.8916015625 935.3884887695312 2288.880615234375 899.0665283203125 1968.3421630859375 852.3753051757812" stroke-width="2.0" fill="rgb(190, 187, 162)" opacity="1.0"/>
    <path d="M 483.8125915527344 1813.0040283203125 C 569.1019287109375 1771.6246337890625 502.61993408203125 1634.7537841796875 430.3921813964844 1725.1964111328125 C 394.02044677734375 1769.58251953125 354.92108154296875 1655.938232421875 385.77020263671875 1658.36474609375 C 359.2248840332031 1650.0465087890625 394.0438232421875 1658.632568359375 377.3097839355469 1659.992919921875 C 356.28515625 1767.1734619140625 364.0086364746094 1653.831298828125 483.8125915527344 1813.0040283203125" stroke-width="2.0" fill="rgb(9, 35, 84)" opacity="0.76934886"/>
    <path d="M 483.8351745605469 1173.4520263671875 C 422.39093017578125 1053.72900390625 429.8662414550781 1087.2781982421875 432.9469909667969 1036.0740966796875 C 281.7474670410156 1163.70166015625 154.14881896972656 1024.7333984375 132.7030029296875 1099.309814453125 C 234.24432373046875 1233.5565185546875 292.17816162109375 1221.848876953125 296.79058837890625 1248.11279296875 C 430.9272155761719 1321.1876220703125 455.5268859863281 1273.213623046875 422.4723205566406 1207.087890625 C 352.845458984375 1245.3193359375 365.9180908203125 1237.5234375 483.8351745605469 1173.4520263671875" stroke-width="2.0" fill="rgb(20, 34, 95)" opacity="0.85149103"/>
    <path d="M 638.5552368164062 770.310302734375 C 621.9762573242188 802.0699462890625 576.2591552734375 857.2822875976562 661.2362670898438 825.597900390625 C 737.4180908203125 873.0807495117188 591.9896850585938 939.0853881835938 922.9710083007812 935.286865234375 C 826.1493530273438 762.5636596679688 653.2804565429688 664.3904418945312 691.3739624023438 998.91748046875 C 537.7793579101562 968.8234252929688 600.9090576171875 830.4744262695312 638.5552368164062 770.310302734375" stroke-width="2.0" fill="rgb(172, 193, 184)" opacity="1.0"/>
    <path d="M 2743.557861328125 1891.3397216796875 C 2994.589599609375 1850.6971435546875 3095.252685546875 1899.84814453125 3132.849609375 1772.9681396484375 C 2829.158935546875 1740.1263427734375 2757.573974609375 1905.94921875 2792.753662109375 1792.8565673828125 C 2872.940673828125 1623.4193115234375 2920.50048828125 1607.4420166015625 2680.21630859375 1670.234375 C 2695.500732421875 1859.115234375 2761.596923828125 1718.3079833984375 2889.036865234375 1630.27783203125 C 2888.880859375 1590.9967041015625 2915.434326171875 1549.5084228515625 2743.557861328125 1891.3397216796875" stroke-width="2.0" fill="rgb(27, 54, 101)" opacity="0.92075294"/>
    <path d="M 2555.00244140625 530.0787353515625 C 2775.077392578125 569.5094604492188 2725.64990234375 520.3140258789062 2886.454833984375 346.8354797363281 C 2694.642578125 283.97869873046875 2664.76904296875 238.00164794921875 2577.95068359375 464.26898193359375 C 2536.663330078125 172.67637634277344 2552.0458984375 258.8896179199219 2910.5810546875 347.86407470703125 C 2855.689208984375 89.39000701904297 2723.5966796875 86.78784942626953 2555.00244140625 530.0787353515625" stroke-width="2.0" fill="rgb(245, 210, 151)" opacity="0.9885683"/>
    <path d="M 412.0819091796875 1118.13330078125 C 528.9479370117188 1080.7752685546875 523.7450561523438 957.0120849609375 385.533447265625 942.765380859375 C 368.0462646484375 990.9981689453125 409.2593688964844 987.9287719726562 382.8601379394531 1053.0933837890625 C 308.0141296386719 1031.76904296875 246.03269958496094 945.5275268554688 336.8297424316406 976.8781127929688 C 281.6081848144531 910.2404174804688 360.6822509765625 911.3699340820312 301.0393371582031 853.0772094726562 C 349.1855163574219 772.3145141601562 354.6622314453125 839.685302734375 412.0819091796875 1118.13330078125" stroke-width="2.0" fill="rgb(0, 27, 98)" opacity="0.5700258"/>
    <path d="M 116.15900421142578 1805.3145751953125 C 59.830413818359375 1899.5052490234375 -15.065302848815918 1894.7901611328125 23.15940284729004 2073.910888671875 C 147.2470245361328 2061.814453125 131.11366271972656 1962.06005859375 112.56072998046875 1863.158935546875 C 94.68004608154297 1780.4312744140625 108.5369644165039 1833.1910400390625 122.5992202758789 1925.071044921875 C 97.62769317626953 1934.9937744140625 316.3068542480469 1914.9755859375 360.51788330078125 1866.7442626953125 C 319.5753173828125 1768.0101318359375 315.0262451171875 1782.799072265625 116.15900421142578 1805.3145751953125" stroke-width="2.0" fill="rgb(0, 24, 51)" opacity="0.58322316"/>
    <path d="M 2817.861083984375 686.2078247070312 C 2682.14306640625 671.8994750976562 2723.99267578125 721.7533569335938 2774.1474609375 698.9486694335938 C 2828.767822265625 673.9951782226562 2732.56591796875 704.3864135742188 2612.190673828125 559.6593627929688 C 2704.484375 517.9579467773438 2917.65478515625 532.4269409179688 3090.6669921875 719.346435546875 C 2992.06298828125 736.3931274414062 2936.80029296875 735.748779296875 2817.861083984375 686.2078247070312" stroke-width="2.0" fill="rgb(197, 175, 135)" opacity="1.0"/>
    <path d="M 62.924072265625 1858.8204345703125 C 103.38744354248047 1938.1864013671875 63.291900634765625 2001.11962890625 78.33981323242188 2076.6943359375 C 59.14451217651367 2108.94775390625 111.55965423583984 2161.558837890625 381.7502746582031 2088.79345703125 C 466.72052001953125 1935.4998779296875 475.48773193359375 1835.4017333984375 62.924072265625 1858.8204345703125" stroke-width="2.0" fill="rgb(29, 56, 98)" opacity="0.9513995"/>
    <path d="M 586.0254516601562 2035.735107421875 C 708.80908203125 1973.9775390625 739.004638671875 1970.142578125 759.5390625 2016.8974609375 C 743.7097778320312 2060.340576171875 701.84228515625 2133.60107421875 791.8984985351562 2068.9228515625 C 823.5111083984375 1974.766845703125 844.5814819335938 2036.01806640625 865.4962158203125 2037.985107421875 C 866.36572265625 1948.2738037109375 901.5908203125 2011.037841796875 1006.8875732421875 2075.585693359375 C 786.9744262695312 2187.427490234375 791.6854858398438 2253.502197265625 586.0254516601562 2035.735107421875" stroke-width="2.0" fill="rgb(31, 57, 90)" opacity="0.8031604"/>
    <path d="M 613.7842407226562 44.66501998901367 C 526.6152954101562 135.67433166503906 558.9299926757812 177.15142822265625 552.5758056640625 118.11698150634766 C 587.611083984375 106.30619049072266 507.4239501953125 173.30517578125 426.7823181152344 291.6439514160156 C 510.8433837890625 318.0406188964844 577.9718017578125 275.56829833984375 711.9411010742188 324.6874694824219 C 813.6608276367188 290.0992736816406 804.2592163085938 266.43157958984375 613.7842407226562 44.66501998901367" stroke-width="2.0" fill="rgb(240, 179, 83)" opacity="0.56129867"/>
    <path d="M 1243.6146240234375 498.8296813964844 C 1152.200439453125 416.2633361816406 1075.4361572265625 423.4050598144531 1028.8228759765625 774.3558349609375 C 1398.542236328125 776.689208984375 1262.27587890625 781.8952026367188 1289.6307373046875 754.224609375 C 1450.4564208984375 782.9581909179688 1417.890625 648.2879028320312 1428.57421875 776.9036254882812 C 1498.533447265625 790.0905151367188 1455.377685546875 743.6041259765625 1497.2542724609375 731.4855346679688 C 1547.11328125 719.8375854492188 1461.7799072265625 662.4324951171875 1243.6146240234375 498.8296813964844" stroke-width="2.0" fill="rgb(36, 62, 99)" opacity="0.89281"/>
    <path d="M 799.502197265625 1922.361083984375 C 843.0746459960938 1974.83251953125 867.9472045898438 1943.443359375 911.4989013671875 1947.1063232421875 C 852.60693359375 1943.17919921875 891.7061767578125 1977.841796875 861.9721069335938 1895.8875732421875 C 830.9717407226562 1952.15234375 817.7089233398438 1940.357177734375 817.6062622070312 1982.5809326171875 C 783.7816772460938 1975.288818359375 741.9766235351562 1938.368896484375 734.6900634765625 1647.098388671875 C 487.823486328125 1630.55419921875 532.2005615234375 1792.1444091796875 799.502197265625 1922.361083984375" stroke-width="2.0" fill="rgb(104, 164, 159)" opacity="0.6236445"/>
    <path d="M 793.2266235351562 1978.2069091796875 C 826.4430541992188 1964.461181640625 746.988037109375 1867.6265869140625 817.9826049804688 1912.6475830078125 C 778.7396850585938 1973.210205078125 839.8477172851562 2039.110107421875 969.8155517578125 1928.8150634765625 C 988.388671875 1802.6307373046875 936.8781127929688 1769.75341796875 781.3391723632812 1786.3460693359375 C 560.8504638671875 1878.6995849609375 631.5678100585938 1945.741455078125 793.2266235351562 1978.2069091796875" stroke-width="2.0" fill="rgb(140, 186, 182)" opacity="0.7905584"/>
    <path d="M 803.0542602539062 297.8975524902344 C 964.9193725585938 253.3670654296875 888.5116577148438 348.78192138671875 909.968017578125 522.2200317382812 C 661.3274536132812 575.5526123046875 718.4580688476562 586.4010009765625 678.0863037109375 490.5206604003906 C 713.999755859375 582.95166015625 740.3817138671875 628.6317749023438 441.9005126953125 611.2244262695312 C 436.1303405761719 349.0648498535156 507.0569152832031 409.6762390136719 803.0542602539062 297.8975524902344" stroke-width="2.0" fill="rgb(226, 238, 202)" opacity="0.6450234"/>
    <path d="M 711.0730590820312 1282.939208984375 C 820.5521240234375 1529.4376220703125 695.2108764648438 1479.023193359375 498.48193359375 1438.8350830078125 C 497.7796630859375 1330.2335205078125 356.8519287109375 1333.4716796875 368.8636779785156 1229.70361328125 C 609.3989868164062 1160.2799072265625 599.867919921875 1093.13720703125 711.0730590820312 1282.939208984375" stroke-width="2.0" fill="rgb(22, 53, 86)" opacity="0.7566311"/>
    <path d="M 43.06208801269531 880.591552734375 C -26.49911880493164 1155.1923828125 40.96071243286133 1141.5172119140625 -8.317353248596191 1181.781005859375 C 85.89766693115234 1224.210693359375 173.24478149414062 1238.94580078125 286.5306396484375 1181.164306640625 C 475.0158386230469 1210.2264404296875 489.4728698730469 1177.7564697265625 528.0365600585938 1041.9508056640625 C 373.54583740234375 1050.974609375 378.6140441894531 1046.1607666015625 480.8544616699219 1044.8720703125 C 491.1163635253906 990.3305053710938 351.97979736328125 865.2266235351562 43.06208801269531 880.591552734375" stroke-width="2.0" fill="rgb(23, 67, 67)" opacity="0.40814206"/>
    <path d="M 2906.1787109375 1390.3939208984375 C 2959.185302734375 1297.6328125 3014.439208984375 1297.2471923828125 3037.385498046875 1252.1947021484375 C 2916.21728515625 1217.0692138671875 2982.631103515625 1255.7491455078125 3050.947509765625 1303.75146484375 C 2963.88134765625 1295.233642578125 3012.477294921875 1265.9725341796875 3062.266845703125 1310.484130859375 C 3137.416015625 1323.802001953125 3075.54150390625 1283.67626953125 3121.46435546875 1405.30615234375 C 2985.649169921875 1469.0181884765625 2882.4091796875 1545.888916015625 2906.1787109375 1390.3939208984375" stroke-width="2.0" fill="rgb(6, 57, 104)" opacity="0.47041014"/>
    <path d="M 1813.820556640625 1533.778564453125 C 1825.67919921875 1540.8944091796875 1812.5152587890625 1629.50390625 1757.4573974609375 1607.78466796875 C 1670.2188720703125 1579.2550048828125 1689.5992431640625 1614.5693359375 1617.8883056640625 1563.5279541015625 C 1590.8944091796875 1568.02197265625 1502.41064453125 1581.5355224609375 1813.820556640625 1533.778564453125" stroke-width="2.0" fill="rgb(31, 48, 83)" opacity="0.8424332"/>
    <path d="M 1944.2957763671875 1096.794677734375 C 2091.961181640625 1128.8328857421875 2064.4130859375 1156.8377685546875 2143.4755859375 1170.6864013671875 C 2092.217529296875 1270.71875 2106.354248046875 1234.5350341796875 2142.86669921875 1440.395263671875 C 1881.622314453125 1387.6597900390625 1833.20849609375 1328.990478515625 1823.8526611328125 1257.968994140625 C 1761.1827392578125 1107.304931640625 1784.54296875 1137.85498046875 1944.2957763671875 1096.794677734375" stroke-width="2.0" fill="rgb(95, 98, 70)" opacity="0.67647237"/>
    <path d="M 2137.101806640625 1443.6839599609375 C 2164.386962890625 1700.7249755859375 2049.170654296875 1682.5416259765625 1830.06982421875 1583.9918212890625 C 1735.202392578125 1422.60205078125 1722.389892578125 1448.8729248046875 1678.5118408203125 1330.643798828125 C 1877.512939453125 1289.1087646484375 1844.4080810546875 1265.1170654296875 2137.101806640625 1443.6839599609375" stroke-width="2.0" fill="rgb(128, 133, 123)" opacity="1.0"/>
    <path d="M 406.7105712890625 1552.0909423828125 C 504.9061584472656 1545.60009765625 488.5839538574219 1557.4296875 449.45050048828125 1559.988037109375 C 367.1490173339844 1544.65966796875 201.8911590576172 1645.6241455078125 85.86644744873047 1538.730712890625 C 184.15530395507812 1321.7181396484375 259.3407287597656 1414.9146728515625 616.23779296875 1394.720458984375 C 689.6383666992188 1566.5048828125 617.9049072265625 1544.0096435546875 361.77685546875 1564.8970947265625 C 278.50634765625 1587.7098388671875 293.52911376953125 1582.205078125 406.7105712890625 1552.0909423828125" stroke-width="2.0" fill="rgb(99, 110, 113)" opacity="1.0"/>
    <path d="M 2004.60205078125 996.8169555664062 C 2040.721923828125 1133.2745361328125 1990.2490234375 1192.3736572265625 1769.7747802734375 1146.1199951171875 C 1861.588623046875 954.4254150390625 2019.72265625 1111.4127197265625 1959.674560546875 856.8902587890625 C 1831.53125 881.4075927734375 1821.40087890625 939.7628173828125 1760.1533203125 1040.4207763671875 C 1809.61767578125 1101.3359375 1793.65234375 1059.4830322265625 2004.60205078125 996.8169555664062" stroke-width="2.0" fill="rgb(164, 164, 140)" opacity="0.90256447"/>
    <path d="M 2353.436279296875 1116.8447265625 C 2226.692626953125 1067.7587890625 2173.5029296875 1076.8392333984375 1979.880615234375 1075.8983154296875 C 1950.73388671875 1324.6712646484375 1882.2711181640625 1414.3431396484375 2230.791259765625 1447.5516357421875 C 2287.533203125 1370.2642822265625 2320.94921875 1395.896484375 2353.436279296875 1116.8447265625" stroke-width="2.0" fill="rgb(151, 152, 131)" opacity="0.9603384"/>
    <path d="M 2198.803955078125 220.33680725097656 C 2078.63232421875 112.32441711425781 2020.2772216796875 99.27790069580078 1880.41162109375 282.4202575683594 C 1663.9547119140625 261.9452209472656 1681.724365234375 134.2440185546875 1732.29296875 41.22077941894531 C 1979.2667236328125 80.02710723876953 1974.804443359375 121.43301391601562 1979.632080078125 178.5299530029297 C 1822.3546142578125 271.71038818359375 1966.16943359375 387.90521240234375 2198.803955078125 220.33680725097656" stroke-width="2.0" fill="rgb(244, 208, 142)" opacity="0.8554667"/>
    <path d="M -86.338134765625 352.3683776855469 C -6.742824077606201 488.4637756347656 -10.411707878112793 418.2955322265625 0.6465624570846558 648.2914428710938 C 112.1082763671875 597.651123046875 18.427886962890625 552.498779296875 137.582763671875 562.2343139648438 C 174.39027404785156 432.2492980957031 168.97023010253906 375.0661926269531 163.20069885253906 392.7972412109375 C 171.1892852783203 375.5420227050781 152.68849182128906 366.80279541015625 156.85287475585938 206.7714080810547 C 186.2924041748047 181.53428649902344 72.9651107788086 145.0525360107422 -86.338134765625 352.3683776855469" stroke-width="2.0" fill="rgb(220, 183, 129)" opacity="0.791095"/>
    <path d="M 1800.6976318359375 1157.36865234375 C 1879.160400390625 1217.5557861328125 1905.7801513671875 1344.0455322265625 1743.15087890625 1333.9517822265625 C 1647.79443359375 1285.0653076171875 1703.1854248046875 1275.47802734375 1693.046875 1291.6693115234375 C 1602.1180419921875 1257.8048095703125 1652.1309814453125 1223.899169921875 1840.6077880859375 1140.4578857421875 C 1672.421875 1135.82421875 1670.104248046875 1229.7423095703125 1800.6976318359375 1157.36865234375" stroke-width="2.0" fill="rgb(147, 148, 129)" opacity="1.0"/>
    <path d="M 2880.869873046875 1072.1082763671875 C 2889.563232421875 1104.3680419921875 2981.912353515625 1067.6070556640625 3071.3232421875 935.4385986328125 C 2899.73876953125 942.4411010742188 2844.02783203125 933.4304809570312 2800.727294921875 922.50830078125 C 2787.223876953125 915.0894165039062 2849.366455078125 953.8021850585938 3132.947509765625 930.885498046875 C 3129.864501953125 744.9356689453125 3073.580078125 673.6258544921875 2632.1845703125 710.2709350585938 C 2723.174560546875 1014.2269897460938 2922.99365234375 905.162353515625 2880.869873046875 1072.1082763671875" stroke-width="2.0" fill="rgb(192, 178, 108)" opacity="0.41196793"/>
    <path d="M 2656.3720703125 1814.8310546875 C 2583.21533203125 1879.815185546875 2566.341552734375 1869.680908203125 2512.65966796875 1913.2054443359375 C 2442.3935546875 1947.730712890625 2348.226318359375 1990.8634033203125 2282.796142578125 2016.3919677734375 C 2265.34814453125 1922.46826171875 2244.65283203125 2107.91650390625 2171.417236328125 1730.9163818359375 C 2539.63671875 1804.1309814453125 2559.91162109375 1859.4854736328125 2656.3720703125 1814.8310546875" stroke-width="2.0" fill="rgb(50, 84, 113)" opacity="0.83971125"/>
    <path d="M 1327.143310546875 718.2347412109375 C 1580.3367919921875 582.0592651367188 1780.6104736328125 682.1185913085938 1819.2257080078125 556.4635009765625 C 1683.8153076171875 400.82733154296875 1517.8609619140625 352.7344665527344 1369.862548828125 397.0688171386719 C 1464.665283203125 677.868408203125 1480.5400390625 672.5471801757812 1600.0869140625 636.698486328125 C 1757.0860595703125 635.6407470703125 1826.3038330078125 568.1793212890625 1719.115966796875 745.9971923828125 C 1738.237548828125 890.0660400390625 1505.9306640625 944.5316162109375 1327.143310546875 718.2347412109375" stroke-width="2.0" fill="rgb(176, 186, 165)" opacity="0.819252"/>
    <path d="M 1942.033447265625 845.24365234375 C 1774.0283203125 577.9923095703125 1863.4364013671875 595.3895874023438 2016.3453369140625 650.5877685546875 C 2022.443603515625 659.2229614257812 2159.342041015625 611.323486328125 2023.543212890625 824.1260986328125 C 1808.9827880859375 723.3023071289062 1925.189453125 538.2066650390625 2150.59423828125 709.437744140625 C 2271.751220703125 541.4376220703125 2249.4814453125 378.78375244140625 2006.3189697265625 350.5683288574219 C 1788.455322265625 420.56048583984375 1904.3424072265625 522.9151000976562 1942.033447265625 845.24365234375" stroke-width="2.0" fill="rgb(215, 223, 106)" opacity="0.25536144"/>
    <path d="M 1674.398681640625 826.5046997070312 C 1645.4080810546875 817.8347778320312 1557.8868408203125 824.8134155273438 1524.1514892578125 1034.317626953125 C 1775.6168212890625 1042.0347900390625 1829.691650390625 1040.7010498046875 1730.4810791015625 923.401123046875 C 1784.26806640625 877.2803955078125 1829.135498046875 917.5022583007812 1674.398681640625 826.5046997070312" stroke-width="2.0" fill="rgb(155, 158, 137)" opacity="0.826127"/>
    <path d="M 1682.7900390625 1802.34326171875 C 1746.496337890625 2027.7027587890625 1784.146728515625 1956.2498779296875 1983.967041015625 1927.431640625 C 1934.4127197265625 1933.207275390625 1917.124267578125 1939.258544921875 2164.825439453125 1944.6241455078125 C 1974.109130859375 1811.0098876953125 2032.735595703125 1867.20654296875 2274.108154296875 1942.8187255859375 C 2094.9697265625 1746.7216796875 1839.5699462890625 1740.8408203125 1682.7900390625 1802.34326171875" stroke-width="2.0" fill="rgb(0, 23, 57)" opacity="0.509589"/>
    <path d="M 210.68511962890625 235.17787170410156 C 132.06919860839844 185.42153930664062 -3.7409021854400635 264.61944580078125 -18.080562591552734 257.8587341308594 C -57.15395736694336 -31.371173858642578 -3.879149913787842 -62.65013122558594 290.7084655761719 -70.36690521240234 C 287.5577087402344 131.63699340820312 228.2087860107422 129.5077667236328 210.68511962890625 235.17787170410156" stroke-width="2.0" fill="rgb(228, 188, 120)" opacity="0.695018"/>
    <path d="M 2789.517822265625 652.1614379882812 C 2782.111328125 721.7534790039062 2671.37841796875 722.7453002929688 2627.37939453125 745.040283203125 C 2645.07275390625 741.5485229492188 2579.623779296875 736.0884399414062 2632.676513671875 760.62109375 C 2567.337158203125 722.4500732421875 2547.060791015625 699.6022338867188 2457.64013671875 703.535888671875 C 2408.1142578125 520.317626953125 2525.235107421875 517.5091552734375 2789.517822265625 652.1614379882812" stroke-width="2.0" fill="rgb(181, 163, 127)" opacity="1.0"/>
    <path d="M 1567.5616455078125 -91.43404388427734 C 1507.91015625 97.73033905029297 1585.3720703125 126.2322769165039 1765.2275390625 149.67660522460938 C 1798.689697265625 -69.52889251708984 1735.4881591796875 -26.139490127563477 1705.020263671875 -10.898473739624023 C 1760.47802734375 -54.20038604736328 1810.7613525390625 -103.7658462524414 1825.4862060546875 -71.20296478271484 C 1742.2926025390625 -87.97708129882812 1767.889404296875 -66.2262954711914 1779.586181640625 91.92768859863281 C 1933.722412109375 108.49571990966797 1985.455810546875 -69.88964080810547 1567.5616455078125 -91.43404388427734" stroke-width="2.0" fill="rgb(246, 209, 148)" opacity="0.9774214"/>
    <path d="M 1245.35302734375 760.6220092773438 C 1496.0894775390625 810.8270263671875 1569.3392333984375 820.1256713867188 1603.018798828125 875.0638427734375 C 1537.205078125 1163.3975830078125 1486.912841796875 1180.3057861328125 1291.6419677734375 1148.1141357421875 C 1324.774169921875 1101.2020263671875 1209.8863525390625 1115.4302978515625 1245.35302734375 760.6220092773438" stroke-width="2.0" fill="rgb(192, 189, 154)" opacity="0.7228333"/>
    <path d="M 1874.585205078125 1838.740478515625 C 1685.473876953125 1669.997314453125 1713.146728515625 1628.5693359375 1819.656982421875 1559.868408203125 C 2134.4814453125 1665.57861328125 2035.2364501953125 1663.5927734375 1736.4434814453125 1621.2198486328125 C 1813.560302734375 1716.52685546875 1993.5517578125 1799.792724609375 1874.585205078125 1838.740478515625" stroke-width="2.0" fill="rgb(32, 55, 96)" opacity="0.9188473"/>
    <path d="M 443.6126708984375 1608.5833740234375 C 482.9924621582031 1612.06103515625 439.7852478027344 1599.4539794921875 414.5782165527344 1626.6629638671875 C 436.7987976074219 1608.923583984375 374.8970642089844 1646.109130859375 315.10064697265625 1672.2786865234375 C 283.9346923828125 1684.3148193359375 287.54840087890625 1688.9984130859375 443.6126708984375 1608.5833740234375" stroke-width="2.0" fill="rgb(160, 183, 76)" opacity="0.70479214"/>
    <path d="M 2375.157470703125 81.1172866821289 C 2599.9814453125 272.38922119140625 2616.80810546875 292.1105041503906 2543.056884765625 364.3176574707031 C 2467.556884765625 340.38592529296875 2393.70068359375 317.5732727050781 2333.453857421875 342.89453125 C 2268.5 270.1308898925781 2161.675537109375 188.53160095214844 2375.157470703125 81.1172866821289" stroke-width="2.0" fill="rgb(244, 218, 156)" opacity="0.71027946"/>
    <path d="M 821.9824829101562 273.0634765625 C 912.21826171875 226.47601318359375 897.6922607421875 237.18678283691406 902.345458984375 229.83868408203125 C 1084.0963134765625 236.85435485839844 1147.38671875 296.757568359375 1125.3167724609375 -47.64889144897461 C 907.2117919921875 133.29061889648438 874.7512817382812 163.02569580078125 1065.431396484375 1.5879226922988892 C 695.21923828125 -36.880496978759766 616.652587890625 -20.54585838317871 597.3704223632812 9.463172912597656 C 682.424560546875 141.61485290527344 745.559326171875 300.5309143066406 821.9824829101562 273.0634765625" stroke-width="2.0" fill="rgb(231, 169, 71)" opacity="0.54074764"/>
    <path d="M 2183.70458984375 1127.3555908203125 C 2239.762451171875 899.9347534179688 2305.66455078125 921.7030029296875 2341.8056640625 962.1192626953125 C 2333.46142578125 924.532470703125 2423.451171875 945.4996337890625 2540.822265625 927.3209838867188 C 2451.1787109375 1143.8837890625 2254.972412109375 1085.77294921875 2289.190673828125 1300.62744140625 C 2597.12841796875 1339.8936767578125 2619.477294921875 1268.7933349609375 2552.356201171875 915.2550048828125 C 2473.510986328125 1063.363037109375 2357.54345703125 1167.48974609375 2183.70458984375 1127.3555908203125" stroke-width="2.0" fill="rgb(168, 166, 141)" opacity="0.9324193"/>
    <path d="M 2692.72021484375 868.8906860351562 C 2947.0966796875 1008.2550048828125 3002.837646484375 1024.291259765625 2921.264892578125 1104.9205322265625 C 2903.738525390625 1132.353271484375 2877.254150390625 1165.15185546875 2757.64306640625 1302.4354248046875 C 2495.781005859375 1304.5543212890625 2456.554931640625 1242.8736572265625 2533.453125 981.8551635742188 C 2567.689697265625 911.4910888671875 2557.123046875 929.889892578125 2692.72021484375 868.8906860351562" stroke-width="2.0" fill="rgb(147, 149, 125)" opacity="0.80039567"/>
    <path d="M 703.448486328125 996.5685424804688 C 979.2548217773438 1375.2607421875 994.1873779296875 1436.4752197265625 639.5014038085938 1409.65576171875 C 607.1494140625 1033.26171875 817.61181640625 1058.3470458984375 907.4187622070312 1328.6995849609375 C 1018.2930908203125 1291.71337890625 1058.3316650390625 1167.041259765625 980.1773681640625 953.59130859375 C 850.4658203125 1041.5889892578125 894.6121826171875 1077.8809814453125 923.4534912109375 957.0279541015625 C 701.2745361328125 971.178466796875 706.9400634765625 915.5625610351562 703.448486328125 996.5685424804688" stroke-width="2.0" fill="rgb(33, 57, 93)" opacity="0.85769296"/>
    <path d="M 2531.302734375 1595.94189453125 C 2487.350341796875 1568.263427734375 2547.598876953125 1582.5606689453125 2646.713623046875 1756.021484375 C 2395.037353515625 1731.3214111328125 2528.463134765625 1625.283203125 2193.185302734375 1693.3765869140625 C 2094.8193359375 1693.2288818359375 2260.2646484375 1616.3548583984375 2432.943359375 1589.546875 C 2438.689208984375 1598.2772216796875 2428.0244140625 1523.5924072265625 2531.302734375 1595.94189453125" stroke-width="2.0" fill="rgb(121, 150, 155)" opacity="0.7859045"/>
  </g>
</svg>
