<?xml version="1.0" ?>
<svg xmlns="http://www.w3.org/2000/svg" version="1.1" width="800" height="538">
  <defs/>
  <g>
    <path d="M -0.5488307476043701 6.338291645050049 C 203.96572875976562 -8.25034236907959 184.72105407714844 38.31666564941406 4.586027145385742 24.07442855834961 C 105.62397766113281 74.77812957763672 94.59988403320312 121.25161743164062 1.3057409524917603 51.1334114074707" stroke-width="27.28807258605957" fill="none" stroke="rgb(194, 161, 92)" stroke-opacity="0.4449828" stroke-linecap="round" stroke-linejoin="round"/>
    <path d="M 95.37469482421875 291.8006286621094 C -6.135593414306641 278.61004638671875 53.21440505981445 313.76959228515625 -0.57175612449646 299.9972229003906" stroke-width="19.597793579101562" fill="none" stroke="rgb(47, 72, 101)" stroke-opacity="0.5101862" stroke-linecap="round" stroke-linejoin="round"/>
    <path d="M 327.3117370605469 317.4334411621094 C 350.320556640625 302.56756591796875 324.7742614746094 275.8475036621094 275.3423156738281 249.62428283691406" stroke-width="19.931568145751953" fill="none" stroke="rgb(40, 78, 98)" stroke-opacity="0.6153253" stroke-linecap="round" stroke-linejoin="round"/>
    <path d="M 23.412200927734375 204.59539794921875 C -30.0096435546875 206.3288116455078 15.208074569702148 202.78964233398438 -6.372587203979492 175.4453125" stroke-width="12.334724426269531" fill="none" stroke="rgb(29, 65, 122)" stroke-opacity="0.7801787" stroke-linecap="round" stroke-linejoin="round"/>
    <path d="M 25.16526985168457 198.20106506347656 C -19.052976608276367 233.17013549804688 -23.46565055847168 179.78927612304688 107.43356323242188 126.20648956298828 C 36.9561882019043 231.36526489257812 -9.976898193359375 169.34071350097656 22.5581111907959 269.12261962890625" stroke-width="26.548381805419922" fill="none" stroke="rgb(105, 88, 24)" stroke-opacity="0.32411942" stroke-linecap="round" stroke-linejoin="round"/>
    <path d="M 85.58412170410156 464.0328369140625 C 89.58634948730469 465.4027404785156 51.023895263671875 449.9930419921875 31.37055778503418 477.97607421875 C 95.55189514160156 475.9395751953125 105.3653564453125 465.0703125 141.275146484375 453.47235107421875 C 83.8065185546875 507.4165344238281 102.7729263305664 484.3912048339844 64.61097717285156 488.5716857910156" stroke-width="15.68124008178711" fill="none" stroke="rgb(102, 125, 140)" stroke-opacity="0.8892801" stroke-linecap="round" stroke-linejoin="round"/>
    <path d="M 797.4549560546875 199.3551483154297 C 702.0536499023438 198.6988525390625 757.3583984375 180.6172637939453 814.8750610351562 158.48876953125 C 817.1815795898438 171.46176147460938 815.564453125 164.3689727783203 833.0275268554688 185.03599548339844 C 836.7957763671875 217.89759826660156 844.9708862304688 251.15936279296875 730.4808349609375 183.9450225830078" stroke-width="25.770557403564453" fill="none" stroke="rgb(224, 198, 142)" stroke-opacity="0.40278354" stroke-linecap="round" stroke-linejoin="round"/>
    <path d="M 284.21026611328125 95.09654998779297 C 284.04132080078125 77.4013442993164 305.0788879394531 91.49749755859375 314.5421447753906 80.40054321289062 C 361.669189453125 60.671363830566406 347.39910888671875 22.310985565185547 231.48687744140625 51.93825912475586" stroke-width="17.8566837310791" fill="none" stroke="rgb(127, 140, 123)" stroke-opacity="0.33165428" stroke-linecap="round" stroke-linejoin="round"/>
    <path d="M 361.9834289550781 437.6572570800781 C 392.48388671875 511.3692321777344 438.74072265625 524.820068359375 488.9051818847656 513.4551391601562 C 432.5533142089844 516.8976440429688 355.03485107421875 522.3098754882812 324.89495849609375 427.3100280761719" stroke-width="30.0" fill="none" stroke="rgb(85, 106, 123)" stroke-opacity="1.0" stroke-linecap="round" stroke-linejoin="round"/>
    <path d="M 210.20738220214844 255.70912170410156 C 190.19607543945312 276.1327819824219 184.14370727539062 210.83534240722656 174.9549560546875 222.22901916503906 C 207.08323669433594 268.463134765625 238.35572814941406 318.82598876953125 142.1943359375 273.4393005371094" stroke-width="21.274700164794922" fill="none" stroke="rgb(129, 148, 145)" stroke-opacity="0.6181394" stroke-linecap="round" stroke-linejoin="round"/>
    <path d="M 531.4024047851562 438.66552734375 C 534.6090087890625 434.0882873535156 526.3128051757812 427.1097717285156 531.078125 434.1024475097656 C 512.05615234375 419.7448425292969 508.9677429199219 454.91650390625 585.1546630859375 479.1531677246094" stroke-width="14.719542503356934" fill="none" stroke="rgb(33, 62, 91)" stroke-opacity="0.9589544" stroke-linecap="round" stroke-linejoin="round"/>
    <path d="M 400.482666015625 289.8113098144531 C 449.20684814453125 238.82431030273438 411.7402648925781 254.82989501953125 441.9556579589844 320.28912353515625 C 449.2197265625 244.8903045654297 457.63970947265625 243.1594696044922 433.1792907714844 255.28427124023438" stroke-width="19.85125732421875" fill="none" stroke="rgb(226, 194, 133)" stroke-opacity="0.33695433" stroke-linecap="round" stroke-linejoin="round"/>
    <path d="M 723.6713256835938 371.8074035644531 C 840.2705688476562 227.27818298339844 856.0648803710938 287.8732604980469 734.0205078125 390.0852966308594" stroke-width="26.580814361572266" fill="none" stroke="rgb(38, 83, 112)" stroke-opacity="0.67819643" stroke-linecap="round" stroke-linejoin="round"/>
    <path d="M 98.64550018310547 478.6553955078125 C 0.6502556204795837 474.7405700683594 9.853957176208496 512.2007446289062 38.57587814331055 503.90106201171875 C 134.77362060546875 480.6504211425781 144.90130615234375 520.3917236328125 -9.426630973815918 519.4844970703125 C 0.09227155894041061 551.9641723632812 77.30484008789062 530.6941528320312 144.16604614257812 520.217041015625" stroke-width="19.47020721435547" fill="none" stroke="rgb(62, 90, 116)" stroke-opacity="0.9618087" stroke-linecap="round" stroke-linejoin="round"/>
    <path d="M 490.9396667480469 249.36807250976562 C 481.4140319824219 267.39849853515625 481.36297607421875 256.7380676269531 504.996337890625 245.9830780029297 C 478.2083740234375 234.67713928222656 482.80364990234375 245.1279296875 500.9308166503906 260.93377685546875 C 489.38153076171875 255.0266876220703 470.9612121582031 272.4625549316406 446.4137878417969 241.3499298095703" stroke-width="5.949195861816406" fill="none" stroke="rgb(222, 181, 113)" stroke-opacity="0.20573133" stroke-linecap="round" stroke-linejoin="round"/>
    <path d="M 708.1905517578125 35.181663513183594 C 900.5529174804688 71.70216369628906 878.2716674804688 -10.504487037658691 698.2608642578125 10.88407039642334 C 746.8052978515625 36.82752990722656 798.465087890625 21.199953079223633 822.0267333984375 33.96521759033203 C 798.45849609375 18.8928279876709 816.0358276367188 21.566511154174805 810.5187377929688 27.720291137695312" stroke-width="20.01040267944336" fill="none" stroke="rgb(229, 168, 49)" stroke-opacity="0.3096133" stroke-linecap="round" stroke-linejoin="round"/>
    <path d="M 455.5765686035156 118.1217041015625 C 409.58050537109375 107.89828491210938 388.77740478515625 127.42253112792969 449.03741455078125 142.2615966796875 C 453.38201904296875 163.64077758789062 410.1459045410156 129.85598754882812 415.5936279296875 155.58090209960938" stroke-width="9.564682960510254" fill="none" stroke="rgb(123, 140, 151)" stroke-opacity="0.24882104" stroke-linecap="round" stroke-linejoin="round"/>
    <path d="M 192.98193359375 153.6326904296875 C 195.1581268310547 158.14511108398438 188.47140502929688 198.37823486328125 259.6156005859375 140.6544647216797" stroke-width="24.00412940979004" fill="none" stroke="rgb(32, 67, 103)" stroke-opacity="0.9699148" stroke-linecap="round" stroke-linejoin="round"/>
    <path d="M 523.029296875 344.4158020019531 C 585.8392333984375 394.95166015625 547.5675048828125 405.7174072265625 632.2420654296875 363.1319274902344 C 605.4389038085938 368.91668701171875 555.058837890625 363.2192077636719 560.8943481445312 393.936767578125 C 509.76544189453125 406.4789123535156 564.3997802734375 393.12384033203125 471.41802978515625 404.0343322753906" stroke-width="25.709096908569336" fill="none" stroke="rgb(98, 96, 91)" stroke-opacity="0.80866545" stroke-linecap="round" stroke-linejoin="round"/>
    <path d="M 684.5867309570312 92.32707214355469 C 715.2786865234375 57.59103012084961 641.0214233398438 47.95103073120117 830.7972412109375 72.00568389892578 C 712.4960327148438 145.053955078125 685.4813842773438 130.0355987548828 693.0006713867188 -7.458083629608154" stroke-width="26.838409423828125" fill="none" stroke="rgb(246, 227, 189)" stroke-opacity="0.8901154" stroke-linecap="round" stroke-linejoin="round"/>
    <path d="M 707.49609375 495.8882141113281 C 855.5030517578125 481.1059875488281 834.351318359375 504.6609191894531 686.0464477539062 530.6367797851562 C 802.5489501953125 529.9513549804688 827.4953002929688 534.8597412109375 777.5347900390625 516.5942993164062" stroke-width="18.36675453186035" fill="none" stroke="rgb(152, 171, 151)" stroke-opacity="0.6696509" stroke-linecap="round" stroke-linejoin="round"/>
    <path d="M 708.7728881835938 280.5968933105469 C 690.0949096679688 279.4078063964844 678.264892578125 278.5074768066406 663.3641357421875 280.71856689453125 C 666.6929931640625 285.5391540527344 669.8577270507812 271.29083251953125 679.3270263671875 272.7601013183594 C 699.9732055664062 280.7809753417969 688.8522338867188 281.8625793457031 672.896484375 275.6659851074219" stroke-width="2.0" fill="none" stroke="rgb(169, 229, 136)" stroke-opacity="0.22231954" stroke-linecap="round" stroke-linejoin="round"/>
    <path d="M 294.4620361328125 475.5453186035156 C 324.58990478515625 497.2863464355469 260.50286865234375 447.85089111328125 261.0517272949219 489.5592956542969 C 310.45635986328125 488.9096374511719 292.1463623046875 491.66094970703125 293.8433837890625 465.690185546875 C 312.1148986816406 455.4158935546875 276.84783935546875 445.0577392578125 282.32733154296875 450.6339416503906" stroke-width="15.36516284942627" fill="none" stroke="rgb(10, 46, 48)" stroke-opacity="0.38047087" stroke-linecap="round" stroke-linejoin="round"/>
    <path d="M 628.9688720703125 322.6526184082031 C 757.7171020507812 266.9737243652344 713.8956909179688 216.6368865966797 658.3952026367188 173.1263885498047 C 805.7269287109375 271.7833557128906 890.3927001953125 267.8466491699219 731.9146728515625 256.3205871582031" stroke-width="30.0" fill="none" stroke="rgb(218, 194, 138)" stroke-opacity="0.34662333" stroke-linecap="round" stroke-linejoin="round"/>
    <path d="M 642.2127075195312 110.60944366455078 C 449.89971923828125 212.84011840820312 474.05865478515625 250.7745361328125 663.406982421875 131.2539520263672 C 660.4457397460938 204.24853515625 541.2047119140625 215.80702209472656 506.33843994140625 240.60069274902344 C 489.484619140625 243.75767517089844 575.3226928710938 273.4500427246094 674.0557861328125 188.93157958984375" stroke-width="30.0" fill="none" stroke="rgb(241, 224, 186)" stroke-opacity="0.551376" stroke-linecap="round" stroke-linejoin="round"/>
    <path d="M 499.1592102050781 51.428863525390625 C 647.98681640625 36.904632568359375 617.4814453125 87.98848724365234 600.3494262695312 19.27927589416504 C 487.5672302246094 42.84539031982422 569.671142578125 13.049314498901367 614.235107421875 55.54355239868164" stroke-width="27.04668426513672" fill="none" stroke="rgb(242, 210, 124)" stroke-opacity="0.37669486" stroke-linecap="round" stroke-linejoin="round"/>
    <path d="M 21.101287841796875 185.07608032226562 C 49.064884185791016 72.07843780517578 24.12912368774414 57.515865325927734 19.326656341552734 131.50271606445312 C 9.316537857055664 51.92295455932617 2.8184375762939453 41.573177337646484 7.613030910491943 188.4220733642578" stroke-width="22.188920974731445" fill="none" stroke="rgb(205, 192, 161)" stroke-opacity="1.0" stroke-linecap="round" stroke-linejoin="round"/>
    <path d="M 229.37574768066406 246.8213653564453 C 216.05511474609375 206.5107421875 163.99044799804688 182.62747192382812 222.65016174316406 258.571533203125" stroke-width="14.630316734313965" fill="none" stroke="rgb(69, 94, 85)" stroke-opacity="0.3302078" stroke-linecap="round" stroke-linejoin="round"/>
    <path d="M 667.3560180664062 268.5084533691406 C 629.7733764648438 314.2965087890625 578.0315551757812 314.1158752441406 602.1703491210938 299.8250427246094 C 530.3543701171875 321.3921203613281 534.0801391601562 302.9111022949219 675.9949340820312 300.2684326171875 C 561.9869384765625 311.2157287597656 587.6017456054688 313.85089111328125 491.1965637207031 331.6140441894531" stroke-width="23.30979347229004" fill="none" stroke="rgb(206, 197, 174)" stroke-opacity="0.8312224" stroke-linecap="round" stroke-linejoin="round"/>
    <path d="M 454.75872802734375 205.39353942871094 C 380.27227783203125 197.79519653320312 373.8431091308594 244.7644500732422 442.9831237792969 211.05039978027344 C 456.42755126953125 230.719970703125 418.03472900390625 219.43408203125 395.0690002441406 260.4281921386719 C 397.3108215332031 150.85211181640625 407.3084411621094 106.05323791503906 303.64776611328125 196.8350372314453" stroke-width="30.0" fill="none" stroke="rgb(163, 163, 139)" stroke-opacity="0.37549633" stroke-linecap="round" stroke-linejoin="round"/>
    <path d="M 385.407958984375 361.7003479003906 C 421.1949157714844 386.92449951171875 400.7621154785156 389.49609375 470.9870910644531 402.7005615234375 C 482.5856018066406 400.3127136230469 416.4201965332031 378.6766662597656 350.7181701660156 347.7667236328125" stroke-width="15.146203994750977" fill="none" stroke="rgb(11, 37, 66)" stroke-opacity="0.75903845" stroke-linecap="round" stroke-linejoin="round"/>
    <path d="M 280.7912902832031 365.3402099609375 C 282.3557434082031 364.37115478515625 273.0638122558594 363.660888671875 247.11746215820312 362.8369445800781 C 236.87942504882812 364.3882141113281 249.45913696289062 333.00848388671875 215.00845336914062 357.0774230957031 C 208.98680114746094 364.6260070800781 218.126708984375 343.0125732421875 255.5068817138672 315.1894836425781" stroke-width="7.5858306884765625" fill="none" stroke="rgb(153, 146, 94)" stroke-opacity="0.20540608" stroke-linecap="round" stroke-linejoin="round"/>
    <path d="M 292.59381103515625 26.238117218017578 C 344.2151794433594 5.651148796081543 315.2703857421875 13.118021965026855 159.6812744140625 10.935839653015137 C 179.0978240966797 69.85199737548828 374.45416259765625 -8.81396484375 361.9324645996094 41.57844161987305 C 202.5035400390625 36.5543327331543 183.2086181640625 73.58139038085938 343.2008056640625 52.705230712890625" stroke-width="22.514108657836914" fill="none" stroke="rgb(242, 222, 178)" stroke-opacity="0.68768364" stroke-linecap="round" stroke-linejoin="round"/>
    <path d="M 85.16552734375 339.9080505371094 C 256.9674072265625 361.46240234375 238.62374877929688 278.1285705566406 104.19656372070312 326.4721984863281" stroke-width="30.0" fill="none" stroke="rgb(18, 55, 82)" stroke-opacity="0.6896964" stroke-linecap="round" stroke-linejoin="round"/>
    <path d="M 227.0572052001953 266.5480041503906 C 242.31808471679688 270.6934509277344 289.6360168457031 278.05218505859375 273.28216552734375 271.1963195800781 C 250.58071899414062 313.70953369140625 226.02101135253906 311.4795837402344 245.9816131591797 270.3169860839844 C 302.8115234375 300.1456298828125 287.1291809082031 315.9813537597656 283.4349060058594 195.1755828857422" stroke-width="23.903759002685547" fill="none" stroke="rgb(38, 73, 103)" stroke-opacity="0.7658414" stroke-linecap="round" stroke-linejoin="round"/>
    <path d="M 519.157958984375 164.64183044433594 C 555.45166015625 127.65707397460938 546.0460815429688 121.84708404541016 575.8497314453125 144.5294647216797 C 534.7658081054688 122.06444549560547 534.3935546875 148.6761016845703 531.7138671875 155.48326110839844" stroke-width="8.505675315856934" fill="none" stroke="rgb(215, 172, 78)" stroke-opacity="0.07828185" stroke-linecap="round" stroke-linejoin="round"/>
    <path d="M 655.6516723632812 124.56371307373047 C 670.2422485351562 181.11276245117188 721.1187133789062 182.54986572265625 789.1617431640625 175.2210693359375 C 796.4645385742188 86.49015808105469 802.2699584960938 80.61994171142578 710.531494140625 85.98033905029297 C 799.012451171875 119.35482025146484 814.6553344726562 185.8284454345703 675.8834228515625 136.9477081298828" stroke-width="27.728363037109375" fill="none" stroke="rgb(242, 223, 190)" stroke-opacity="1.0" stroke-linecap="round" stroke-linejoin="round"/>
    <path d="M 84.67340087890625 531.7985229492188 C 231.18214416503906 548.5411376953125 217.96800231933594 535.4774780273438 107.43421173095703 523.1734619140625" stroke-width="13.434932708740234" fill="none" stroke="rgb(44, 74, 101)" stroke-opacity="0.99793667" stroke-linecap="round" stroke-linejoin="round"/>
    <path d="M 654.4038696289062 61.20132064819336 C 656.3058471679688 58.30378723144531 627.0292358398438 77.1596450805664 629.7448120117188 75.16580200195312" stroke-width="2.0" fill="none" stroke="rgb(195, 243, 180)" stroke-opacity="0.4361361" stroke-linecap="round" stroke-linejoin="round"/>
    <path d="M 203.5666046142578 152.47848510742188 C 273.61029052734375 102.59306335449219 325.7016906738281 177.1934356689453 284.867919921875 120.07708740234375" stroke-width="21.36801528930664" fill="none" stroke="rgb(56, 87, 118)" stroke-opacity="0.9425012" stroke-linecap="round" stroke-linejoin="round"/>
    <path d="M 297.8307800292969 375.5359191894531 C 366.22979736328125 363.5205078125 362.43157958984375 338.94488525390625 319.02471923828125 369.60137939453125 C 258.03826904296875 383.5726623535156 287.1055603027344 365.3053894042969 299.0229187011719 441.8627624511719 C 272.4185791015625 385.0600891113281 273.21600341796875 345.0946350097656 404.0440979003906 479.1154479980469" stroke-width="30.0" fill="none" stroke="rgb(187, 190, 176)" stroke-opacity="0.6313946" stroke-linecap="round" stroke-linejoin="round"/>
    <path d="M 395.1878356933594 -1.5798084735870361 C 370.21966552734375 25.748905181884766 348.53460693359375 3.6462788581848145 297.6825256347656 -7.294448375701904" stroke-width="23.417335510253906" fill="none" stroke="rgb(245, 223, 182)" stroke-opacity="0.8367278" stroke-linecap="round" stroke-linejoin="round"/>
    <path d="M 611.7561645507812 5.656677722930908 C 531.209716796875 -1.7480487823486328 553.51318359375 20.363527297973633 504.703857421875 -0.0607103556394577" stroke-width="17.10659408569336" fill="none" stroke="rgb(245, 226, 183)" stroke-opacity="0.8019625" stroke-linecap="round" stroke-linejoin="round"/>
    <path d="M 102.05854034423828 373.89654541015625 C 62.83408737182617 389.16571044921875 15.13364028930664 360.78466796875 21.593517303466797 345.1605224609375 C 56.351654052734375 382.9310302734375 63.80739974975586 342.1663818359375 139.09909057617188 380.9560241699219 C 73.80277252197266 386.19281005859375 29.828950881958008 416.9010925292969 20.928693771362305 348.1943664550781" stroke-width="18.89661407470703" fill="none" stroke="rgb(14, 45, 69)" stroke-opacity="0.70191604" stroke-linecap="round" stroke-linejoin="round"/>
    <path d="M 390.1112365722656 117.4708023071289 C 307.5050048828125 95.45668029785156 272.3023986816406 119.98363494873047 282.0035705566406 103.05860137939453 C 270.6224060058594 96.02530670166016 262.59307861328125 101.28263092041016 257.4870300292969 133.57650756835938 C 210.8805389404297 111.32550811767578 206.5089569091797 110.1587142944336 202.98599243164062 56.27821350097656" stroke-width="27.691768646240234" fill="none" stroke="rgb(59, 87, 101)" stroke-opacity="0.35146153" stroke-linecap="round" stroke-linejoin="round"/>
    <path d="M 545.8572998046875 355.8238220214844 C 659.9208984375 358.89892578125 627.9932250976562 332.4299011230469 496.84429931640625 342.42926025390625" stroke-width="18.315052032470703" fill="none" stroke="rgb(134, 134, 131)" stroke-opacity="0.9596962" stroke-linecap="round" stroke-linejoin="round"/>
    <path d="M 727.7315673828125 361.2895812988281 C 801.749267578125 332.3652038574219 794.7547607421875 344.6969909667969 706.3904418945312 381.0015869140625 C 672.6326293945312 356.9725036621094 711.0267944335938 347.9990539550781 713.4907836914062 352.8154602050781" stroke-width="14.80392074584961" fill="none" stroke="rgb(10, 49, 86)" stroke-opacity="0.57708144" stroke-linecap="round" stroke-linejoin="round"/>
    <path d="M 493.3371887207031 389.47296142578125 C 343.95977783203125 366.4070739746094 301.67987060546875 295.45855712890625 474.36920166015625 338.56201171875 C 501.157470703125 371.45867919921875 456.70880126953125 367.34796142578125 344.3980712890625 327.3297119140625" stroke-width="25.363998413085938" fill="none" stroke="rgb(127, 127, 120)" stroke-opacity="0.87723565" stroke-linecap="round" stroke-linejoin="round"/>
    <path d="M 491.07647705078125 91.57508850097656 C 600.5557861328125 122.14543151855469 634.1929931640625 179.6150665283203 676.1134643554688 123.66613006591797 C 519.259765625 101.17442321777344 510.5392150878906 57.96476745605469 629.8558959960938 84.93981170654297" stroke-width="28.288333892822266" fill="none" stroke="rgb(242, 220, 166)" stroke-opacity="0.35227767" stroke-linecap="round" stroke-linejoin="round"/>
    <path d="M 569.9480590820312 437.88165283203125 C 620.463623046875 467.5873107910156 653.6423950195312 450.1903076171875 622.863525390625 483.5807189941406 C 623.6605224609375 458.7387390136719 593.1856689453125 467.87640380859375 580.6112670898438 459.4082946777344 C 594.3214111328125 465.0584411621094 578.7669067382812 459.3963928222656 565.5675659179688 452.1960144042969" stroke-width="7.720398426055908" fill="none" stroke="rgb(29, 60, 87)" stroke-opacity="0.86123264" stroke-linecap="round" stroke-linejoin="round"/>
    <path d="M 477.9687194824219 315.59393310546875 C 533.4651489257812 309.1208801269531 562.9227294921875 301.68975830078125 543.6863403320312 278.7090148925781 C 530.0648803710938 283.11785888671875 550.96484375 308.3762512207031 550.3159790039062 332.2410583496094" stroke-width="10.758347511291504" fill="none" stroke="rgb(205, 185, 147)" stroke-opacity="0.34147525" stroke-linecap="round" stroke-linejoin="round"/>
    <path d="M 95.69152069091797 123.31510162353516 C 306.737548828125 68.66838836669922 263.1251525878906 11.030016899108887 139.56776428222656 85.48341369628906 C 244.39007568359375 -36.473270416259766 178.89581298828125 -25.07313346862793 130.3404083251953 52.24890899658203 C 143.84454345703125 75.81697082519531 154.12071228027344 62.759521484375 43.18788146972656 127.6431884765625" stroke-width="30.0" fill="none" stroke="rgb(241, 227, 199)" stroke-opacity="0.932228" stroke-linecap="round" stroke-linejoin="round"/>
    <path d="M 456.62408447265625 274.0781555175781 C 569.0684814453125 276.0995788574219 610.0907592773438 275.39862060546875 675.6680297851562 225.0165252685547 C 699.314208984375 248.15811157226562 673.2305908203125 301.87957763671875 506.341552734375 293.717529296875" stroke-width="30.0" fill="none" stroke="rgb(244, 232, 207)" stroke-opacity="0.84644973" stroke-linecap="round" stroke-linejoin="round"/>
    <path d="M 310.2615051269531 296.29541015625 C 289.42626953125 176.51351928710938 358.76934814453125 197.15640258789062 235.87562561035156 204.4401092529297" stroke-width="24.552003860473633" fill="none" stroke="rgb(51, 86, 119)" stroke-opacity="0.92497677" stroke-linecap="round" stroke-linejoin="round"/>
    <path d="M 456.4178771972656 63.8315544128418 C 591.3777465820312 66.31645965576172 428.0910949707031 52.18914794921875 451.5556945800781 27.236228942871094 C 584.6524658203125 52.926963806152344 559.3760986328125 13.24611759185791 454.51190185546875 5.715494632720947 C 432.87127685546875 54.31259536743164 399.0262756347656 108.58446502685547 535.4426879882812 73.40348052978516" stroke-width="25.268230438232422" fill="none" stroke="rgb(249, 236, 200)" stroke-opacity="0.8579323" stroke-linecap="round" stroke-linejoin="round"/>
    <path d="M 49.14093780517578 502.86376953125 C -18.761219024658203 522.7161254882812 -13.170272827148438 456.23638916015625 62.620853424072266 431.2928771972656" stroke-width="30.0" fill="none" stroke="rgb(120, 119, 77)" stroke-opacity="0.3200229" stroke-linecap="round" stroke-linejoin="round"/>
    <path d="M 295.6252136230469 115.95939636230469 C 346.37762451171875 185.1575164794922 363.877685546875 192.40797424316406 284.55194091796875 176.3560333251953 C 192.49839782714844 202.09275817871094 220.1083221435547 141.13092041015625 323.88409423828125 160.84120178222656" stroke-width="22.721139907836914" fill="none" stroke="rgb(41, 78, 113)" stroke-opacity="0.97356147" stroke-linecap="round" stroke-linejoin="round"/>
    <path d="M 475.68365478515625 249.02146911621094 C 434.6047668457031 216.32070922851562 432.36322021484375 208.93045043945312 502.1960144042969 213.44854736328125 C 468.3111267089844 235.12478637695312 461.9117431640625 220.7196807861328 481.55181884765625 235.56863403320312" stroke-width="20.666608810424805" fill="none" stroke="rgb(200, 178, 130)" stroke-opacity="0.30434042" stroke-linecap="round" stroke-linejoin="round"/>
    <path d="M 618.4067993164062 444.2685241699219 C 706.2094116210938 433.5944519042969 682.1777954101562 465.2459411621094 602.7970581054688 450.61053466796875" stroke-width="12.381467819213867" fill="none" stroke="rgb(18, 76, 110)" stroke-opacity="0.6857322" stroke-linecap="round" stroke-linejoin="round"/>
    <path d="M 710.3583984375 209.22483825683594 C 710.1466674804688 211.1741485595703 710.966552734375 203.43450927734375 710.4308471679688 204.8900604248047 C 703.114013671875 199.14857482910156 712.9450073242188 206.68663024902344 710.8326416015625 205.61148071289062" stroke-width="2.0" fill="none" stroke="rgb(146, 238, 215)" stroke-opacity="0.46486053" stroke-linecap="round" stroke-linejoin="round"/>
    <path d="M 247.64376831054688 302.4237060546875 C 252.36585998535156 327.03839111328125 276.55743408203125 323.1136169433594 225.07809448242188 336.1058349609375" stroke-width="6.194360733032227" fill="none" stroke="rgb(163, 156, 37)" stroke-opacity="0.0" stroke-linecap="round" stroke-linejoin="round"/>
    <path d="M 180.498779296875 164.63546752929688 C 188.98016357421875 158.30999755859375 174.3164825439453 160.91104125976562 183.96945190429688 165.7183837890625 C 180.24021911621094 166.41033935546875 177.4984588623047 168.3147430419922 181.43096923828125 160.83477783203125 C 179.31881713867188 163.29733276367188 155.0517120361328 166.96397399902344 262.58538818359375 196.6947479248047" stroke-width="19.88219451904297" fill="none" stroke="rgb(121, 124, 105)" stroke-opacity="0.13286567" stroke-linecap="round" stroke-linejoin="round"/>
    <path d="M 765.2623901367188 306.4384765625 C 639.3843994140625 372.52459716796875 661.142822265625 391.2086486816406 737.061279296875 418.02191162109375 C 790.7982177734375 401.6563415527344 803.3033447265625 372.0856018066406 781.1737060546875 370.5642395019531" stroke-width="29.38104248046875" fill="none" stroke="rgb(213, 223, 207)" stroke-opacity="0.8186447" stroke-linecap="round" stroke-linejoin="round"/>
    <path d="M 65.88829040527344 204.49806213378906 C 194.8911590576172 168.81275939941406 165.1226806640625 206.21499633789062 70.37350463867188 233.86346435546875" stroke-width="28.240013122558594" fill="none" stroke="rgb(171, 169, 122)" stroke-opacity="0.36051452" stroke-linecap="round" stroke-linejoin="round"/>
    <path d="M 158.58544921875 413.6927490234375 C 142.9068603515625 471.52490234375 159.68734741210938 433.0005187988281 171.88584899902344 420.51776123046875 C 187.39990234375 469.56182861328125 239.55789184570312 521.51025390625 91.77364349365234 434.4483337402344" stroke-width="30.0" fill="none" stroke="rgb(113, 137, 113)" stroke-opacity="0.40627247" stroke-linecap="round" stroke-linejoin="round"/>
    <path d="M 516.398193359375 191.73243713378906 C 516.1934814453125 191.1059112548828 516.4596557617188 199.18453979492188 516.3518676757812 198.9847869873047 C 516.4951171875 191.2036895751953 516.064697265625 191.23106384277344 517.2376708984375 189.8333740234375 C 507.4497985839844 182.46827697753906 487.25341796875 190.11846923828125 490.3034973144531 189.24038696289062" stroke-width="2.0" fill="none" stroke="rgb(238, 190, 200)" stroke-opacity="0.4022433" stroke-linecap="round" stroke-linejoin="round"/>
    <path d="M 515.6575927734375 131.10647583007812 C 517.6198120117188 130.50730895996094 509.10797119140625 133.91184997558594 504.97711181640625 125.73980712890625" stroke-width="2.0" fill="none" stroke="rgb(154, 193, 204)" stroke-opacity="0.15976863" stroke-linecap="round" stroke-linejoin="round"/>
    <path d="M 430.04541015625 98.74612426757812 C 560.732666015625 141.31118774414062 563.1370849609375 138.5167999267578 515.066650390625 148.66748046875 C 483.93170166015625 141.9425506591797 482.5496826171875 137.14767456054688 444.3648376464844 131.86376953125" stroke-width="23.44062042236328" fill="none" stroke="rgb(224, 175, 73)" stroke-opacity="0.20213062" stroke-linecap="round" stroke-linejoin="round"/>
    <path d="M 103.39379119873047 302.10028076171875 C 144.43975830078125 241.4109649658203 128.05812072753906 215.64295959472656 148.6946563720703 235.05181884765625 C 137.99195861816406 267.2575988769531 143.086181640625 256.4331970214844 224.115478515625 249.14405822753906" stroke-width="20.497766494750977" fill="none" stroke="rgb(0, 21, 28)" stroke-opacity="0.30338287" stroke-linecap="round" stroke-linejoin="round"/>
    <path d="M 184.5322265625 518.6403198242188 C 178.63287353515625 539.1690063476562 150.03622436523438 531.8028564453125 189.60092163085938 501.00628662109375 C 172.7213897705078 508.0861511230469 160.93643188476562 530.3178100585938 100.16403198242188 508.95458984375 C 186.34368896484375 503.4297180175781 194.87789916992188 503.9950256347656 159.1410369873047 486.4820556640625" stroke-width="13.18114948272705" fill="none" stroke="rgb(53, 83, 108)" stroke-opacity="0.9677789" stroke-linecap="round" stroke-linejoin="round"/>
    <path d="M 219.97486877441406 543.6170654296875 C 273.9729919433594 339.45880126953125 247.99671936035156 315.0718078613281 262.1880187988281 346.7425537109375 C 291.0914001464844 346.08331298828125 289.4658203125 348.8774108886719 276.30438232421875 350.0457763671875" stroke-width="30.0" fill="none" stroke="rgb(185, 195, 180)" stroke-opacity="0.6785996" stroke-linecap="round" stroke-linejoin="round"/>
    <path d="M 148.12265014648438 111.77130889892578 C 190.58213806152344 71.6085205078125 175.94593811035156 95.31925964355469 206.15719604492188 70.71317291259766 C 202.99087524414062 71.3943862915039 210.83041381835938 66.0816879272461 250.0137481689453 52.769264221191406" stroke-width="2.0" fill="none" stroke="rgb(19, 31, 54)" stroke-opacity="0.7698398" stroke-linecap="round" stroke-linejoin="round"/>
    <path d="M 708.5905151367188 414.7886047363281 C 636.4090576171875 479.0152893066406 614.9490966796875 476.28289794921875 645.0236206054688 462.6042785644531 C 640.29443359375 455.934814453125 630.5765991210938 486.8363342285156 595.3975219726562 474.6926574707031 C 611.0745239257812 472.6790466308594 565.6036987304688 511.6270751953125 653.0785522460938 458.9520263671875" stroke-width="18.362255096435547" fill="none" stroke="rgb(68, 94, 116)" stroke-opacity="0.82759947" stroke-linecap="round" stroke-linejoin="round"/>
    <path d="M 536.816650390625 341.320556640625 C 513.0396118164062 306.4346618652344 492.00897216796875 298.2730407714844 461.56744384765625 301.2497863769531 C 549.4158935546875 373.7758483886719 526.8887329101562 374.94744873046875 415.6172180175781 308.1736755371094" stroke-width="26.31609535217285" fill="none" stroke="rgb(197, 185, 150)" stroke-opacity="0.2994893" stroke-linecap="round" stroke-linejoin="round"/>
    <path d="M 150.57606506347656 312.6758728027344 C 53.47997283935547 286.8553771972656 51.18206024169922 291.0723876953125 127.16175842285156 329.2048034667969 C 75.70164489746094 233.99002075195312 66.89142608642578 260.4739074707031 158.05809020996094 305.2688293457031" stroke-width="20.496015548706055" fill="none" stroke="rgb(46, 84, 115)" stroke-opacity="0.6668666" stroke-linecap="round" stroke-linejoin="round"/>
    <path d="M 336.6731262207031 538.26171875 C 246.109619140625 468.8806457519531 259.7023010253906 454.9212951660156 306.1405944824219 511.6927490234375 C 321.9080810546875 485.88140869140625 301.49053955078125 516.9061889648438 365.04461669921875 541.9058837890625" stroke-width="17.34408187866211" fill="none" stroke="rgb(73, 102, 125)" stroke-opacity="1.0" stroke-linecap="round" stroke-linejoin="round"/>
    <path d="M 7.849438667297363 312.92974853515625 C 32.08677291870117 336.1886901855469 27.96692657470703 294.8797607421875 -15.288556098937988 360.6214599609375 C 90.39900970458984 320.2453918457031 -9.33767032623291 307.49383544921875 152.1041717529297 378.1739807128906" stroke-width="30.0" fill="none" stroke="rgb(184, 187, 171)" stroke-opacity="0.8439423" stroke-linecap="round" stroke-linejoin="round"/>
    <path d="M 430.58734130859375 178.64964294433594 C 517.6867065429688 183.6293182373047 490.83837890625 165.01275634765625 503.9356994628906 171.3952178955078 C 436.4178466796875 152.16162109375 389.56268310546875 135.98464965820312 483.95654296875 191.4102783203125" stroke-width="25.300975799560547" fill="none" stroke="rgb(157, 135, 71)" stroke-opacity="0.22466409" stroke-linecap="round" stroke-linejoin="round"/>
    <path d="M 85.17411804199219 245.08865356445312 C 109.76583099365234 241.4671173095703 140.20303344726562 275.60931396484375 93.39348602294922 255.2808380126953" stroke-width="17.631038665771484" fill="none" stroke="rgb(47, 79, 105)" stroke-opacity="0.8389946" stroke-linecap="round" stroke-linejoin="round"/>
    <path d="M 2.7168476581573486 210.40589904785156 C 16.82854461669922 185.59298706054688 -30.185861587524414 234.81399536132812 21.071979522705078 210.7183380126953 C -20.954164505004883 192.4347686767578 -6.33889102935791 232.35650634765625 57.829341888427734 191.0130615234375" stroke-width="11.34887981414795" fill="none" stroke="rgb(18, 53, 89)" stroke-opacity="0.5583557" stroke-linecap="round" stroke-linejoin="round"/>
    <path d="M 435.0145568847656 317.37384033203125 C 339.1804504394531 340.75933837890625 298.53961181640625 259.7677001953125 373.05584716796875 157.5063018798828 C 362.7660217285156 293.35467529296875 336.7408142089844 277.6014404296875 471.70086669921875 318.5464172363281" stroke-width="30.0" fill="none" stroke="rgb(227, 217, 192)" stroke-opacity="0.7143808" stroke-linecap="round" stroke-linejoin="round"/>
    <path d="M 247.03518676757812 256.9486389160156 C 248.36451721191406 294.8031005859375 162.174072265625 335.22955322265625 159.35008239746094 375.5113830566406 C 291.98345947265625 315.4090270996094 256.4302978515625 239.62367248535156 217.32919311523438 321.2924499511719" stroke-width="21.32975196838379" fill="none" stroke="rgb(58, 88, 113)" stroke-opacity="0.7326347" stroke-linecap="round" stroke-linejoin="round"/>
    <path d="M 717.2349243164062 288.78253173828125 C 651.3302612304688 363.0755920410156 609.5987548828125 393.40252685546875 588.6206665039062 347.0837707519531 C 698.6256713867188 346.2701110839844 690.3666381835938 330.6048278808594 559.1707153320312 335.77789306640625 C 561.0909423828125 335.3649597167969 603.0509033203125 335.30548095703125 692.8975830078125 310.5426025390625" stroke-width="20.350770950317383" fill="none" stroke="rgb(150, 150, 141)" stroke-opacity="0.966189" stroke-linecap="round" stroke-linejoin="round"/>
    <path d="M 429.6109619140625 3.639756202697754 C 425.7253723144531 16.801767349243164 353.5912170410156 18.68839454650879 335.6121826171875 164.9257049560547 C 439.3026428222656 -1.9506680965423584 401.93927001953125 -45.06073760986328 403.8244934082031 150.51608276367188 C 451.5262451171875 123.28535461425781 369.88800048828125 56.52730178833008 441.84906005859375 -9.781831741333008" stroke-width="29.540376663208008" fill="none" stroke="rgb(188, 167, 106)" stroke-opacity="0.30945754" stroke-linecap="round" stroke-linejoin="round"/>
    <path d="M 760.0248413085938 430.7813720703125 C 800.9839477539062 432.6165771484375 763.22314453125 419.7532043457031 810.183837890625 409.2984924316406" stroke-width="21.058481216430664" fill="none" stroke="rgb(0, 67, 109)" stroke-opacity="0.73836243" stroke-linecap="round" stroke-linejoin="round"/>
    <path d="M 185.81507873535156 505.30426025390625 C 162.94845581054688 511.9583435058594 149.62742614746094 490.22467041015625 132.7086944580078 493.25970458984375 C 128.33026123046875 485.6867370605469 141.2449951171875 509.4739074707031 62.30826187133789 527.7484741210938" stroke-width="14.115131378173828" fill="none" stroke="rgb(45, 77, 104)" stroke-opacity="0.85933226" stroke-linecap="round" stroke-linejoin="round"/>
    <path d="M 807.9230346679688 453.5164794921875 C 766.1944580078125 450.7841491699219 716.7413330078125 473.3880920410156 732.4168701171875 466.2280578613281 C 727.4907836914062 462.4301452636719 713.39892578125 509.33758544921875 686.1685180664062 499.8207702636719 C 794.385986328125 486.4321594238281 755.7872924804688 474.3770751953125 811.2340698242188 479.94439697265625" stroke-width="19.613008499145508" fill="none" stroke="rgb(0, 42, 84)" stroke-opacity="0.7027065" stroke-linecap="round" stroke-linejoin="round"/>
    <path d="M 349.81915283203125 342.0302734375 C 319.2768249511719 315.9327697753906 338.4175720214844 306.9598388671875 291.1247253417969 299.199951171875" stroke-width="20.922014236450195" fill="none" stroke="rgb(59, 85, 113)" stroke-opacity="0.8743747" stroke-linecap="round" stroke-linejoin="round"/>
    <path d="M 181.557861328125 271.39678955078125 C 174.380126953125 274.7353820800781 238.2395477294922 258.5882568359375 228.05715942382812 317.53106689453125 C 246.84442138671875 268.09765625 217.79742431640625 208.20257568359375 223.95144653320312 272.9483337402344 C 198.58692932128906 303.7151184082031 285.91259765625 326.2643127441406 286.8459167480469 255.29258728027344" stroke-width="9.450961112976074" fill="none" stroke="rgb(8, 47, 89)" stroke-opacity="0.267097" stroke-linecap="round" stroke-linejoin="round"/>
    <path d="M 645.69091796875 423.52154541015625 C 678.8626708984375 426.3536071777344 649.7048950195312 434.104736328125 723.7267456054688 408.6033935546875" stroke-width="12.268548011779785" fill="none" stroke="rgb(22, 72, 107)" stroke-opacity="0.6796441" stroke-linecap="round" stroke-linejoin="round"/>
    <path d="M 448.6736755371094 175.86041259765625 C 437.50579833984375 218.80825805664062 442.95989990234375 178.77554321289062 429.4686279296875 188.50733947753906 C 427.9765930175781 169.64483642578125 427.95928955078125 172.42263793945312 388.56982421875 173.5470428466797" stroke-width="12.318840980529785" fill="none" stroke="rgb(122, 146, 162)" stroke-opacity="0.36168614" stroke-linecap="round" stroke-linejoin="round"/>
    <path d="M 1.418652057647705 274.6872253417969 C 77.41597747802734 327.49554443359375 95.60342407226562 311.0810852050781 40.1639518737793 217.57969665527344 C 36.85874938964844 272.67108154296875 56.17483901977539 330.5406188964844 95.31839752197266 306.7002868652344" stroke-width="25.026290893554688" fill="none" stroke="rgb(21, 47, 35)" stroke-opacity="0.30669028" stroke-linecap="round" stroke-linejoin="round"/>
    <path d="M 568.01416015625 438.75213623046875 C 562.8329467773438 456.54388427734375 538.0032348632812 433.2513427734375 520.2329711914062 431.1541748046875 C 578.123779296875 431.84625244140625 536.1240234375 423.7796325683594 482.3141174316406 451.2809143066406 C 512.703857421875 461.1379699707031 477.6462707519531 363.71258544921875 428.8493957519531 495.6722106933594" stroke-width="30.0" fill="none" stroke="rgb(202, 209, 198)" stroke-opacity="1.0" stroke-linecap="round" stroke-linejoin="round"/>
    <path d="M 759.1155395507812 136.2086181640625 C 656.2061767578125 110.90380096435547 633.0870361328125 92.8252944946289 618.7693481445312 -42.340415954589844 C 701.1685791015625 130.4127960205078 654.2591552734375 84.42145538330078 667.7293090820312 -18.55537223815918" stroke-width="26.586694717407227" fill="none" stroke="rgb(245, 226, 185)" stroke-opacity="0.8136187" stroke-linecap="round" stroke-linejoin="round"/>
    <path d="M 42.84524154663086 164.79669189453125 C 215.41575622558594 172.86940002441406 214.82923889160156 119.11127471923828 39.211856842041016 134.46401977539062 C 75.50347137451172 62.309532165527344 87.05974578857422 104.16844940185547 82.51387786865234 66.09568786621094 C 173.36016845703125 61.01359176635742 158.4359130859375 45.553436279296875 -9.494338989257812 51.962921142578125" stroke-width="28.520414352416992" fill="none" stroke="rgb(200, 184, 144)" stroke-opacity="0.36319587" stroke-linecap="round" stroke-linejoin="round"/>
    <path d="M 721.4990844726562 433.06109619140625 C 759.8615112304688 444.1295471191406 773.9369506835938 428.9590759277344 722.5289916992188 433.59136962890625" stroke-width="12.076822280883789" fill="none" stroke="rgb(104, 156, 142)" stroke-opacity="0.3445915" stroke-linecap="round" stroke-linejoin="round"/>
    <path d="M 153.07579040527344 125.09886169433594 C 236.57962036132812 105.8500747680664 228.2541046142578 75.38423919677734 175.5388946533203 108.60027313232422 C 171.9520721435547 83.77989196777344 158.98687744140625 77.2961196899414 182.42616271972656 80.05619049072266" stroke-width="9.58940601348877" fill="none" stroke="rgb(255, 253, 233)" stroke-opacity="0.51211625" stroke-linecap="round" stroke-linejoin="round"/>
    <path d="M 698.40478515625 486.64910888671875 C 609.6578979492188 513.5151977539062 580.4130249023438 525.9219360351562 685.7910766601562 508.0688171386719" stroke-width="15.920085906982422" fill="none" stroke="rgb(32, 72, 101)" stroke-opacity="0.8503345" stroke-linecap="round" stroke-linejoin="round"/>
    <path d="M 735.3580322265625 434.8241271972656 C 782.8054809570312 444.5030517578125 824.8601684570312 407.8079528808594 812.4266967773438 455.3593444824219 C 695.5516967773438 456.7034912109375 734.4010620117188 479.5578918457031 723.9088134765625 466.1002197265625 C 739.5015869140625 464.7384033203125 762.5277099609375 469.1516418457031 700.2316284179688 468.6837463378906" stroke-width="11.775985717773438" fill="none" stroke="rgb(32, 69, 99)" stroke-opacity="0.781611" stroke-linecap="round" stroke-linejoin="round"/>
    <path d="M 389.1236267089844 413.1426086425781 C 597.3055419921875 540.7984619140625 555.4500732421875 480.6439208984375 589.8889770507812 485.7764587402344" stroke-width="30.0" fill="none" stroke="rgb(71, 85, 100)" stroke-opacity="0.73664063" stroke-linecap="round" stroke-linejoin="round"/>
  </g>
</svg>
